<?xml version="1.0" encoding="utf-8"?>
<!-- Generator: Adobe Illustrator 28.3.0, SVG Export Plug-In . SVG Version: 6.00 Build 0)  -->
<svg version="1.1" id="Capa_1" xmlns="http://www.w3.org/2000/svg" xmlns:xlink="http://www.w3.org/1999/xlink" x="0px" y="0px"
	 viewBox="0 0 923.4 203.1" style="enable-background:new 0 0 923.4 203.1;" xml:space="preserve">
<style type="text/css">
	.st0{fill:#F7EB62;}
	.st1{fill:none;stroke:#F7EB62;stroke-miterlimit:10;}
	.st2{fill:#E9B046;}
	.st3{fill:#347357;}
	.st4{fill:#E1B446;}
	.st5{fill:#092E37;}
	.st6{fill:#FFC366;}
	.st7{fill:#F9CC71;}
	.st8{fill:#317256;}
	.st9{fill:#1E3837;}
	.st10{fill:#7BC6A8;}
	.st11{fill:#377F60;}
	.st12{fill:#BDC1BF;}
	.st13{fill:#818784;}
	.st14{fill:#BBC369;}
	.st15{fill:#B5A46C;}
	.st16{fill:#CCBD86;}
	.st17{fill:#E1D299;}
	.st18{fill:#023437;}
	.st19{fill:#2E5E48;}
	.st20{fill:#E4CE94;}
	.st21{fill:#E5D196;}
	.st22{fill:#D8996E;}
	.st23{fill:#2080CE;}
	.st24{fill:#587C47;}
	.st25{fill:#4E7345;}
	.st26{fill:#6B3E26;}
	.st27{fill:#686461;}
	.st28{fill:#F09142;}
	.st29{fill:#F3B664;}
	.st30{fill:#F8E1C9;}
	.st31{fill:#E52C2B;}
	.st32{fill:#C24937;}
	.st33{fill:#F0CBA8;}
	.st34{fill:#FFF8B8;}
	.st35{fill:#D9CFB8;}
	.st36{fill:#F8EBD3;}
	.st37{fill:#F9E3C6;}
	.st38{fill:#EF9B01;}
	.st39{fill:#38AA45;}
	.st40{fill:#5CB35C;}
	.st41{fill:#F9B513;}
	.st42{fill:#E79403;}
	.st43{fill:#60605E;}
	.st44{fill:#9E9E93;}
	.st45{fill:#66C1FF;}
</style>
<path class="st0" d="M711,0c0,0-41.1,26.3,0,59.7c0,0-62.2-7.9-57.2,24s-4.4,21.9-12.6,35.5s-15.7,45.1,26.2,49.8
	c41.9,4.7-1.4,34.2-1.4,34.2h257.6V0H711z"/>
<g>
	<g>
		<line class="st1" x1="445" y1="63" x2="440.4" y2="61.3"/>
		<line class="st1" x1="431.9" y1="58" x2="427.3" y2="56.3"/>
	</g>
</g>
<g>
	<polygon class="st2" points="691.3,163.6 691.3,143.4 682.2,143.4 682.2,141.2 683.6,141.2 683.9,99.8 682.2,99.8 682.2,98.1 
		683.9,98.1 683.9,60.3 683.9,60.3 683.9,56.7 674.4,56.7 676.1,36 667.9,35.9 667.9,37.5 666.1,37.5 666.1,38.2 667.9,38.2 
		667.9,38.9 666.1,38.9 666.1,39.7 667.9,39.7 667.9,40.4 666.1,40.4 666.1,41.1 667.9,41.1 667.9,41.9 666.1,41.9 666.1,42.6 
		667.9,42.6 667.9,43.3 666.1,43.3 666.1,44.1 667.9,44.1 667.9,44.9 666.1,44.9 666.1,45.4 666.1,45.6 667.9,45.6 667.9,46.3 
		666.1,46.3 666.1,47.1 667.9,47.1 667.9,47.8 666.1,47.8 666.1,48.5 667.9,48.5 668,49.3 666.1,49.3 666.1,50 668,50 668,50.8 
		666.1,50.8 666.1,51.5 668,51.5 668,55.9 669.1,55.9 669.1,57.5 661.7,57.5 661.7,60.3 661.7,77.3 662.7,77.4 662.7,79.3 
		656.6,79.3 656.8,98.6 657.7,98.6 657.7,100.7 651.9,100.7 651.9,120.1 653.3,120.1 653.2,121.7 646.6,121.6 646.6,141.2 
		647.6,141.2 647.6,143.7 639.7,143.8 639.8,163.7 622.1,163.8 622.1,172.7 623.6,172.7 623.6,176.4 693.2,176.2 693.2,172.8 
		695,172.8 695,163.6 	"/>
	<polygon class="st3" points="673.5,21.4 673.4,163.3 680.2,163.3 679.9,21.4 677.3,21.4 677.2,14.5 676.4,14.5 676.5,21.1 
		673.5,21.1 	"/>
</g>
<g>
	<polygon class="st4" points="640.1,110.3 556.1,96.2 555.8,178.9 640.9,178.9 	"/>
	<polygon class="st5" points="555.3,136.2 641.4,150.7 641.4,154.6 555.3,141.5 	"/>
	<polygon class="st5" points="556.2,99.3 642.2,114.5 642.2,118.5 555.8,103.7 	"/>
	<polygon class="st5" points="555.7,106.2 641.6,121.4 641.6,125.4 555.2,110.6 	"/>
	<polygon class="st5" points="555.7,113.6 641.6,128.8 641.6,132.8 555.2,118 	"/>
	<polygon class="st5" points="555.7,121.2 641.6,136.4 641.6,140.5 555.2,125.7 	"/>
	<polygon class="st5" points="555.7,128.7 641.6,143.9 641.6,148 555.2,133.1 	"/>
	<polygon class="st5" points="554,153.2 641,159.1 641.5,163.2 554,157.7 	"/>
	<polygon class="st5" points="641.3,164.8 555.4,160.9 555.4,165.3 641.1,169 	"/>
	<polygon class="st5" points="641.4,171.3 553.9,168.2 553.9,173.9 641.6,175.3 	"/>
	<polygon class="st6" points="517.5,100.1 517.3,178.9 529.3,178.9 528.4,91.6 	"/>
	<polygon class="st7" points="537.7,93.2 542.3,91 543.8,178.9 537.5,178.9 	"/>
	<polygon class="st4" points="528.4,91.6 537.7,93.9 538.4,178.9 529.3,178.9 	"/>
	<polygon class="st2" points="542.3,91 556.1,92.6 555.8,178.9 543.8,178.9 	"/>
	<polygon class="st8" points="517.5,103.8 526.7,95.8 526.7,100.5 517.5,108 	"/>
	<polygon class="st8" points="517.5,111.6 517.5,115.6 526.7,108.4 526.7,104.3 	"/>
	<polygon class="st8" points="526.7,112.6 517.5,119.3 517.5,123.2 526.7,116.7 	"/>
	<polygon class="st8" points="526.7,121.3 517.5,127 517.4,131 526.7,125.7 	"/>
	<polygon class="st5" points="530.6,95.4 530.6,99.8 537.2,100.6 537.2,96.7 	"/>
	<polygon class="st5" points="530.6,103.2 530.6,107.6 537.2,108.4 537.2,104.4 	"/>
	<polygon class="st5" points="530.6,111.1 530.6,115.4 537.2,116.1 537.2,111.9 	"/>
	<polygon class="st5" points="530.8,119.3 530.8,123.2 537.4,123.2 537.4,119.4 	"/>
	<polygon class="st5" points="537.5,132.5 537.4,127.9 530.6,127.9 530.6,132.5 	"/>
	<rect x="530.5" y="136" class="st5" width="7.2" height="4.6"/>
	<rect x="530.3" y="144.6" class="st5" width="7.2" height="4.6"/>
	<polygon class="st5" points="537.6,157.8 537.6,153.3 530.5,153.2 530.5,157.8 	"/>
	<polygon class="st5" points="537.5,166.5 537.5,162 530.4,161.9 530.4,166.5 	"/>
	<polygon class="st5" points="537.6,175.3 537.6,170.8 530.5,170.7 530.5,175.3 	"/>
	<polygon class="st8" points="526.7,129 517.4,134.5 517.4,137.9 526.7,133.5 	"/>
	<polygon class="st8" points="526.7,137.4 517.4,142.1 517.4,145.7 526.7,141.7 	"/>
	<polygon class="st8" points="526.7,146.4 517.4,149.6 517.4,153.2 526.6,150.1 	"/>
	<polygon class="st8" points="526.7,154.1 517.3,156.9 517.4,160.6 526.7,158.5 	"/>
	<polygon class="st8" points="526.6,162.5 517.3,165.1 517.3,168.3 526.6,166.9 	"/>
	<polygon class="st8" points="526.6,170.9 517.3,172.2 517.3,176 526.6,175.3 	"/>
	<polygon class="st9" points="544,92.2 547.2,92.9 547.2,101.9 544,101.9 	"/>
	<polygon class="st9" points="543.8,104 547,104.6 547,113.6 543.8,113.6 	"/>
	<polygon class="st9" points="544,115.8 547.2,116.4 547.2,125.4 544,125.4 	"/>
	<polygon class="st9" points="543.8,127.5 547,128.2 547,137.1 543.8,137.1 	"/>
	<polygon class="st9" points="543.8,139.1 547,139.7 547,148.7 543.8,148.7 	"/>
	<polygon class="st9" points="544,151 547.2,151.7 547.2,160.6 544,160.6 	"/>
	<polygon class="st9" points="550.8,93.2 552.4,93.6 552.3,160.8 550.8,160.4 	"/>
</g>
<g>
	<polygon class="st10" points="515.9,181.3 516,196.8 515.8,197 516.2,197 516.2,180.5 	"/>
	<polygon class="st10" points="514.7,184.1 514.8,196.8 514.6,197 515.1,197 515,183.3 	"/>
	<polygon class="st11" points="518,176.3 518,197 519,197 518,45.2 518.8,174 	"/>
	<polygon class="st10" points="513.1,196.4 513.1,188.2 512.8,188.9 512.8,194.7 511.9,195.7 511.9,191 511.6,191.8 511.6,194.7 
		510.3,196.2 510.3,194.9 509.4,197 513.5,197 513.5,195.9 	"/>
	<polygon class="st2" points="505.5,195 503.4,191 504.7,37.5 493.6,46.3 491.7,197 505.5,197 	"/>
	<polygon class="st11" points="515,183.3 514.4,42.8 514,42.5 514.7,184.1 	"/>
	<polygon class="st11" points="513.4,42.1 512.9,41.9 513.4,117.3 	"/>
	<polygon class="st11" points="516.2,180.5 515.6,43.6 514.9,43.2 515.9,181.3 	"/>
	<path class="st11" d="M512.8,188.9l0.3-0.7l-0.7-146.7l-0.6-0.4l0,0L512.8,188.9z"/>
	<polygon class="st11" points="518.8,174 518,45.2 517.2,44.6 518,176.3 	"/>
	<polygon class="st11" points="516.7,44.3 516.2,44 516.7,128.2 	"/>
	<path class="st11" d="M505.5,195.1L505.5,195.1v2h4l0.8-2v-1.2l-0.5,0.5l-0.7-155l0,0l-0.6-0.4l0,0l1,153.6l-0.9,1l-0.7-155l0,0
		l-0.5-0.3l0,0l0.9,154.3L507,194l-0.1-156.2l0,0l-0.5-0.3l0.3,152.4L505.5,195.1z"/>
	<path class="st11" d="M510.2,123.9L510.1,40l0,0l-0.5-0.3l0,0L510.2,123.9z"/>
	<path class="st11" d="M511.6,191.8l0.3-0.8l-0.7-150.3l0,0l-0.5-0.3l0,0L511.6,191.8z"/>
	<path class="st12" d="M506.9,37.8l0.6,0.3C507.5,38.1,507.4,37.6,506.9,37.8z"/>
	<path class="st12" d="M507.1,194l1.3-1.5l-0.9-154.3l0,0l-0.6-0.3l0,0L507.1,194z"/>
	<path class="st12" d="M508,38.5l0.6,0.3C508.5,38.8,508.4,38.3,508,38.5z"/>
	<path class="st12" d="M508.7,193.6l0.9-1l-1-153.6l0,0l-0.6-0.3l0,0L508.7,193.6z"/>
	<path class="st12" d="M509.1,39.3l0.6,0.4C509.7,39.6,509.6,39,509.1,39.3z"/>
	<polygon class="st12" points="509.8,194.3 510.3,193.8 510.2,123.9 509.7,39.7 509.7,39.7 509.1,39.3 509.1,39.3 	"/>
	<path class="st12" d="M510.1,40l0.6,0.3C510.7,40.2,510.6,39.8,510.1,40z"/>
	<polygon class="st12" points="511.6,194.7 511.6,191.8 510.3,194.9 510.3,196.2 	"/>
	<path class="st12" d="M510.2,123.9l0.5,69.3l-0.4,0.5v1.2l1.3-3.2l-0.8-151.4l0,0l-0.6-0.3l0,0L510.2,123.9z"/>
	<polygon class="st12" points="510.2,123.9 510.3,193.8 510.7,193.3 	"/>
	<path class="st12" d="M514,42.5c0,0-0.1-0.7-0.6-0.4l0,0L514,42.5L514,42.5z"/>
	<polygon class="st12" points="514.7,184.1 513.9,186.2 514,195.4 513.5,195.9 513.5,197 514.6,197 514.8,196.8 	"/>
	<polygon class="st12" points="513.9,186.2 514.7,184.1 514,42.5 513.4,42.1 513.4,117.3 	"/>
	<path class="st12" d="M514.9,43.2c0,0-0.1-0.7-0.6-0.4l0,0L514.9,43.2L514.9,43.2z"/>
	<polygon class="st12" points="515.9,181.3 515,183.3 515.1,197 515.8,197 516,196.8 	"/>
	<polygon class="st12" points="515.9,181.3 514.9,43.2 514.4,42.8 515,183.3 	"/>
	<path class="st12" d="M516.2,43.9c0,0-0.1-0.7-0.6-0.4l0,0L516.2,43.9L516.2,43.9z"/>
	<polygon class="st12" points="516.7,179.2 516.2,180.5 516.2,197 516.7,197 	"/>
	<polygon class="st12" points="516.7,179.2 516.7,128.2 516.2,44 515.6,43.6 516.2,180.5 	"/>
	<path class="st12" d="M517.2,44.6c0,0-0.1-0.7-0.6-0.4l0,0L517.2,44.6L517.2,44.6z"/>
	<polygon class="st12" points="517.1,178.5 517.1,197 518,197 518,176.3 	"/>
	<polygon class="st12" points="517.1,178.5 518,176.3 517.2,44.6 516.7,44.3 516.7,128.2 	"/>
	<polygon class="st12" points="517.1,197 517.1,178.5 516.7,179.2 516.7,197 	"/>
	<polygon class="st12" points="516.7,128.2 516.7,179.2 517.1,178.5 	"/>
	<path class="st12" d="M511.2,40.7l0.6,0.3C511.8,41,511.7,40.4,511.2,40.7z"/>
	<polygon class="st12" points="512.8,194.7 512.8,188.9 511.9,191 511.9,195.7 	"/>
	<path class="st12" d="M511.9,191l0.8-2l-1-147.9l0,0l-0.6-0.3l0,0L511.9,191z"/>
	<path class="st12" d="M512.9,41.8c0,0-0.1-0.7-0.6-0.4l0,0L512.9,41.8L512.9,41.8z"/>
	<polygon class="st12" points="513.5,195.9 513.5,187.1 513.1,188.2 513.1,196.4 	"/>
	<polygon class="st12" points="513.5,187.1 513.4,117.3 512.9,41.9 512.3,41.5 513.1,188.2 	"/>
	<polygon class="st12" points="514,195.4 513.9,186.2 513.5,187.1 513.5,195.9 	"/>
	<polygon class="st12" points="513.4,117.3 513.5,187.1 513.9,186.2 	"/>
	<polygon class="st13" points="506.4,37.5 506.4,37.5 505.6,36.7 504.7,37.5 504.7,37.5 505.5,36.9 	"/>
	<polygon class="st13" points="505.5,195 505.5,36.9 504.7,37.5 503.4,191 	"/>
	<polygon class="st13" points="505.5,195 505.5,195.1 506.7,189.9 506.4,37.5 505.5,36.9 	"/>
</g>
<path class="st14" d="M211.7,166.4l29.1-35.7c0,0,66.3-60.4,99-54.3c32.7,6.1,164.9,117.9,164.9,117.9s-32.1-1.3-33.2-1.2
	c-1.1,0.1-172.7,5.7-172.7,5.7L211.7,166.4z"/>
<path class="st3" d="M306.2,177.2c0,0,69.2-31.1,124.4-16.7c0,0,17-22.4-27.4-34.8s-108.8-28.4-87-45.7c0,0,11.6-5,22.6-3.8
	c11,1.3,65.2,34.6,92.4,58.9c0,0,65.8,44.3,69.2,54.7c3.3,10.4-143,0-143,0S297.4,188.8,306.2,177.2z"/>
<g>
	<polygon class="st15" points="616.6,163.8 616.6,175.8 569.2,175.8 569.2,161 	"/>
	<polygon class="st16" points="542.7,177.1 542.7,165.8 569.2,160.1 569.2,177.5 	"/>
	<polygon class="st16" points="616.2,55.9 599.2,47 596.6,94.2 590.3,116.4 578.8,140.3 567.7,159.9 568.1,162.4 620.4,166.2 	"/>
	<path class="st17" d="M582,61.5c0,0,4,0,17.2-14.5c0,0,2,23.7,0.6,33.5c-1.4,9.8-5,60.2-31.7,79.2v2.7l-28.8,5.5v-3.3
		c0,0,27.6-26.5,33.6-50.3c0,0,6.8-18.5,8-34.2C582.2,64.4,582,61.5,582,61.5z"/>
	<polygon class="st18" points="610.8,57.5 610.8,55.8 599.5,50 599.7,52.5 	"/>
	<polygon class="st18" points="610.5,63.7 610.5,61.3 599.9,56.3 600.1,59.3 	"/>
	<polygon class="st18" points="610.5,70.7 610.5,67.6 600.2,63.7 600.3,67.1 	"/>
	<polygon class="st18" points="610.4,78.4 610.4,74.9 600.3,71.4 600.3,75 	"/>
	<polygon class="st18" points="610.4,87.6 610.4,83.9 599.8,80.6 599.3,84.5 	"/>
	<polygon class="st18" points="610.4,98.4 610.4,93.9 598.6,90.6 597.9,96 	"/>
	<polygon class="st18" points="610.5,108.4 610.5,103.5 597.1,100.6 596.2,105.5 	"/>
	<polygon class="st18" points="610.5,118 610.4,113 595.2,110 593.9,115.2 	"/>
	<polygon class="st18" points="610.5,127.6 610.5,122.9 592.7,119.7 591.1,124.5 	"/>
	<polygon class="st18" points="610.5,137.3 610.5,132.5 589.2,129.6 587.5,133.9 	"/>
	<polygon class="st18" points="610.4,147 610.4,142.3 584.9,139.2 582.4,143.7 	"/>
	<polygon class="st18" points="610.5,156.5 610.5,152.2 578.8,149 575.3,153.2 	"/>
	<path class="st19" d="M599.5,50c0,0-5.5,8.7-17.6,14.3v1.8c0,0,13.4-6.8,17.7-13.6L599.5,50z"/>
	<path class="st19" d="M599.9,56.3c0,0-8.1,9.8-18.1,12.7l-0.2,2.1c0,0,10.7-3.3,18.5-11.9L599.9,56.3z"/>
	<path class="st19" d="M600.2,63.7c0,0-10.3,9.8-18.9,11.9l-0.2,2.4c0,0,9.9-2.5,19.2-11.1L600.2,63.7z"/>
	<path class="st19" d="M600.3,71.4c0,0-10.5,9.4-19.6,11.3l-0.4,3.3c0,0,13.8-4.8,20-11.1V71.4z"/>
	<path class="st19" d="M599.8,80.6c0,0-12.3,8.9-20.4,10.4l-0.7,3.2c0,0,8.5-1.2,20.6-9.6L599.8,80.6z"/>
	<path class="st19" d="M598.6,90.6c0,0-0.2,2.6-21.2,9.3l-1,3.6c0,0,8.9-2.3,21.4-7.5L598.6,90.6z"/>
	<path class="st19" d="M597.1,100.6c0,0-6.3,5-22.4,8.9l-1.1,3.4c0,0,14.2-3.2,22.7-7.5L597.1,100.6z"/>
	<path class="st19" d="M595.2,110c0,0-10.9,6.2-23.7,9.1l-1.5,3.7c0,0,17.6-3.7,23.8-7.6L595.2,110z"/>
	<path class="st19" d="M592.7,119.7c0,0-16.9,7.7-25.4,9l-2,3.5c0,0,15.6-2.4,25.9-7.8L592.7,119.7z"/>
	<path class="st19" d="M589.2,129.6"/>
	<path class="st19" d="M589.2,129.6c0,0-14.5,7.6-28,8.7l-2.2,3.2c0,0,11.6-0.2,28.4-7.6L589.2,129.6z"/>
	<path class="st19" d="M584.9,139.2c0,0-17.4,8.3-31,9.1l-3.6,4.3c0,0,27.5-6.3,31.9-8.9L584.9,139.2z"/>
	<path class="st19" d="M578.8,149c0,0-15.1,6.3-32.7,8.5l-3.5,3.7c0,0,4.5,2.6,32.7-8L578.8,149z"/>
	<polygon class="st18" points="613.5,55.1 616.8,158 617.9,158.6 614.2,55.1 	"/>
</g>
<polygon class="st20" points="160,45.1 160,57.3 168.5,61.1 168.5,57.6 164.9,55.1 163.2,55 163.1,45.1 "/>
<path class="st21" d="M152.1,61.6l0.7-0.2c0,0,0,5.1,0,5.2s17.8,0.6,17.8,0.6l-0.1-5.1l-6.4-2.1h-2.5l-5.4-2L152.1,61.6z"/>
<path class="st14" d="M119.5,94c2.4-1.1,21.4-24,34-28.2c1.1-0.4,2.1-0.6,3.1-0.7l3.4-0.4c0,0-1.2,4.6,4.1,10.8
	c5.4,6.2,5.4,14.7,4.2,14.9c-1.1,0.2-9.1-4.6-7.8,1.5s7.6,14.2,6.7,19.5c-0.9,5.3,1.2,13.7-0.4,13.8c-1.6,0.1,0.5,5.8,2,8.3
	c1.5,2.5-4.2,3.3-6.2,3.3s-2.4,2.6-1.4,5.3s-12,4-8.5,8c3.5,4.1-33.3-25.6-33.3-25.6L119.5,94L119.5,94z"/>
<path class="st22" d="M155.1,58.6c0.5-0.3,4.1-3,4.1-3l2.8,0.2v0.8l-0.7,1.1l9.3,2.8v1.5h-3.4L155.1,58.6z"/>
<path class="st3" d="M158.6,65.4c0,0,3.1-2.6,8.9,0c5.9,2.6,25.3,18.4,25.3,18.4s15.3,15,27.3,20.7c12,5.7,20.9,26.2,20.9,26.2
	l-0.6,6.9c-0.7,9.2-5.9,17.4-13.8,22l-22.1,13L172,183.5l-27.6,0.8l10.3-23l-13.7-28.4L158.6,65.4z"/>
<path class="st23" d="M128.3,203.2H260l46.7-25.4c0,0-18.5-26.4-34.1-8.2c0,0-13.6-17.1-24.8,0c0,0-11.1-17.8-24.2,0
	c0,0-8.9-10.7-20.6,0l-12,10.1l-54.3,9.9L128.3,203.2z"/>
<path class="st14" d="M-0.8,114.6c0,0,76.2-59.9,91.7-46.4s30.4,27,30.4,27l13.3,25.9l26.8,22.9l-10.3,26.7l-151.4,4.2L-0.8,114.6z"
	/>
<path class="st14" d="M226.6,203.2c0,0,99.2-44.1,170.4-32.1s165.5,32.1,165.5,32.1H226.6z"/>
<g>
	<g>
		<path class="st24" d="M102.6,108.2c0,0,0.5-3.6,2.4-1.3c1.8,2.4,2.8,6.2,7,10.1c4.1,3.9,5.9,6.3,5.5,12.3c-0.3,6-1.1,4,0.7,6
			c1.8,2,1.8,5.9,0.2,7.7c-1.5,1.8-6.7,10.6-18.9,8c0,0-11-2.4-10.7-11.5l5.4-8l-2.6-11.6l8.1-9.2l1.3-1.8
			C101,108.8,101.8,108,102.6,108.2z"/>
		<path class="st25" d="M101.5,108.5c0,0-0.9,1.4,1.1,2.2c0,0,0,2.8-0.2,4.1c-0.2,1.3,3.1,10.8,2,14.7c0,0-1.1,6.4-4.1,9.8
			c0,0-0.8,5.4,0,6.6c0,0-11.1,3.7-11.6-5.3c0,0-0.8-2.8,3.1-7.2c0,0-3.6-11.1-1.3-14.7c2.3-3.7,3.6-5.1,7-7.5
			C100.8,108.8,101.3,108.2,101.5,108.5z"/>
		<path class="st26" d="M103,172.4v-23.7c0,0-3.3-1.9-3.3-3.2c0-1.3,1.3,1.8,3.6,2.6l-0.2-17c0,0,1.1-3.9,1.3-0.5
			c0.2,3.3,0,17.6,0,17.6s3.1-2,3.9-3.7c0.8-1.8,0.8-0.2,0.8-0.2s-0.2,2.4-3.5,4.2c0,0-0.8,0.5-1.1,0.5l-0.2,24.1l-1.1-0.3
			L103,172.4z"/>
	</g>
	<g>
		<path class="st24" d="M131.5,138.4c0,0,0.2-1.7,1.1-0.6c0.8,1.1,1.3,2.9,3.3,4.7c2,1.8,2.8,3,2.6,5.8c-0.2,2.8-0.5,1.9,0.3,2.8
			c0.8,1,0.8,2.8,0.1,3.7c-0.7,0.8-3.2,5-8.9,3.7c0,0-5.2-1.1-5.1-5.4l2.5-3.8l-1.2-5.4l3.9-4.4l0.6-0.8
			C130.8,138.6,131.2,138.3,131.5,138.4z"/>
		<path class="st25" d="M131.1,138.5c0,0-0.4,0.7,0.6,1.1c0,0,0,1.3-0.1,2c-0.1,0.6,1.5,5.1,1,6.9c0,0-0.5,3-2,4.6
			c0,0-0.3,2.6,0,3.1c0,0-5.2,1.8-5.4-2.5c0,0-0.3-1.3,1.5-3.4c0,0-1.7-5.2-0.6-6.9c1.1-1.7,1.7-2.4,3.3-3.5
			C130.8,138.7,130.9,138.4,131.1,138.5z"/>
		<path class="st26" d="M131.7,168.7v-11.1c0,0-1.5-0.9-1.5-1.5c0-0.6,0.6,0.8,1.7,1.2l-0.1-8c0,0,0.5-1.8,0.6-0.2
			c0.1,1.5,0,8.4,0,8.4s1.5-0.9,1.8-1.8c0.3-0.8,0.3-0.1,0.3-0.1s-0.1,1.1-1.6,2c0,0-0.3,0.2-0.5,0.2l-0.1,11.4l-0.6-0.2V168.7z"/>
	</g>
	<g>
		<path class="st24" d="M54.2,31.5c0,0,0.9-6,3.8-2.1c3,3.8,4.7,10.2,11.5,16.7s9.7,10.4,9.1,20.4s-1.9,6.5,1.1,9.9
			c3,3.4,3,9.8,0.4,12.8c-2.6,3-11.1,17.5-31.2,13.3c0,0-18.1-4.1-17.8-19.1l8.9-13.4l-4.3-19.3l13.7-15.4l2.1-3
			C51.7,32.4,53,31.1,54.2,31.5z"/>
		<path class="st25" d="M52.5,31.9c0,0-1.5,2.4,2,3.7c0,0,0,4.7-0.4,6.8c-0.4,2.1,5.1,18,3.4,24.4c0,0-1.7,10.6-6.8,16.3
			c0,0-1.3,9,0,11c0,0-18.4,6.2-19.3-8.8c0,0-1.3-4.7,5.1-11.9c0,0-6-18.4-2.1-24.4s6-8.5,11.5-12.4S52.1,31.5,52.5,31.9z"/>
		<path class="st26" d="M55.1,137.9V98.7c0,0-5.5-3.2-5.5-5.3c0-2.1,2.1,3,6,4.3l-0.4-28.2c0,0,1.7-6.4,2.1-0.9
			c0.4,5.5,0,29.3,0,29.3s5.1-3.3,6.4-6.2c1.3-3,1.3-0.4,1.3-0.4s-0.2,4.1-5.8,7.1c0,0-1.3,0.9-1.7,0.9l-0.2,39.8l-2-0.6L55.1,137.9
			z"/>
	</g>
	<path class="st14" d="M-0.4,167.5l148.6-1.5c0,0,116.7,0.7,19.3,20.6s48,16.8,48,16.8H-0.4V167.5z"/>
	<path class="st3" d="M-0.4,168.3h85.7l-2.1-1.7l34.6-0.2c0,0,30.2,13.5-11.9,13.7S-0.4,168.3-0.4,168.3z"/>
	<polygon class="st27" points="20.2,67.1 20.2,127.9 22.5,127.9 22.5,66.4 	"/>
	<g>
		<path class="st28" d="M85.2,148.8v-1.6l-0.1,0.2l-9.9-11.3l9.9-9.4l0.4,0.4c0.1-1.5,0.2-2.8,0.2-2.8H-0.4v40.4v4.4h85.7v-1.1
			l-8-9.8L85.2,148.8z"/>
		<path class="st29" d="M75.2,136.1l9.9,11.3l0.1-0.2l-0.1-9.8c0,0-3.2-1.6-2.1-2c1.1-0.2,2.4,0.3,2.3-0.9c-0.1-0.8,0.1-4.8,0.2-7.6
			l-0.4-0.4L75.2,136.1z"/>
		<polygon class="st29" points="83,151.8 85.2,151 85.2,148.8 77.3,158.3 85.2,168 85.1,152.9 		"/>
	</g>
	<path class="st30" d="M-0.4,50.2c0,0,12.5-2.4,17.7-7.9l2.9-1.9l2,0.2c0,0,5.8,5,9.6,6.6c3.8,1.6,15.7,5.8,21.1,6.9
		c5.5,1.1,28,14,28,14l-81.5,0.2V50.2z"/>
	<path class="st31" d="M20.2,41.8c0,0-1.1,7.4-20.6,12.2v14.1h7.2C6.7,68.2,17.1,53.1,20.2,41.8z"/>
	<path class="st31" d="M21.6,41.8l3.3,8.2l10.6,18.1h27.1c0,0-14.7-13.6-24.6-15.3C28,51.3,21.6,41.8,21.6,41.8z"/>
	<path class="st32" d="M6.7,68.2c0,0-0.8,9.3-7.2,10.3V68.2H6.7z"/>
	<path class="st33" d="M21.3,69.3c0,0-0.3,3.8-2.3,6.4c-2,2.7-6,2.7-8.2,0.1c-1.4-1.7-3.2-4.3-3.6-7.3v-0.2l28.2-0.1
		c0,0-3.2,15.4-10.8,8.6C24.6,76.7,21.8,74.2,21.3,69.3z"/>
	<circle class="st0" cx="21" cy="40.2" r="3"/>
	<circle class="st34" cx="21.9" cy="39.6" r="1.5"/>
	<path class="st32" d="M49.1,68.8c0,0-1.1,9.9-7.2,9.6c-6-0.3-6.5-10.2-6.5-10.2l27.1,0.1c0,0-1.1,10.5-6.9,10.2
		C49.8,78,49.1,68.8,49.1,68.8z"/>
	<path class="st33" d="M76,68.8c0,0-1.4,9.9-6.9,9.3c-5.5-0.6-6.6-10-6.6-10L81,68l0,0c2,1,3.3,2.8,3.4,5l0.2,3.4
		c0,0-4.4,2.9-6.8-3.3L76,68.8z"/>
	<polygon class="st29" points="-0.4,124 2.7,124 -0.4,128.3 	"/>
	<polygon class="st29" points="4.5,124.6 -0.4,130.5 -0.4,139.9 4.8,146 13.5,134.7 	"/>
	<polygon class="st29" points="-0.4,163.8 3.9,168.3 -0.4,168.3 	"/>
	<path class="st29" d="M5.3,167.9c0.2-0.3,8.8-10.6,8.8-10.6l-9-10.4l-5.5,6.9v7.2L5.3,167.9z"/>
	<polygon class="st29" points="-0.4,151.4 2.9,146.6 -0.4,141.5 	"/>
	<polygon class="st35" points="-0.4,121 -0.4,122.7 86.1,122.7 78.7,121 	"/>
	<rect x="-0.4" y="122.7" class="st36" width="86.6" height="1.6"/>
	<path class="st30" d="M-1.5,21.5h56.2c0,0-2.3-4.4-8.6-1.6c0,0-8.5-19.3-20.1-2c0,0-3.3-3.7-6.4,0.5c0,0-8.7-18.5-20.6-2.4
		L-1.5,21.5z"/>
	<path class="st30" d="M79.5,34.8c0.2,0,13.5-19.5,18.9-3.8c0,0,3-2.8,5.5,0.8c0,0,2.9-5,9.8,3H79.5z"/>
	<polygon class="st29" points="6.5,124.3 14.1,132.7 22.2,124.3 	"/>
	<polygon class="st29" points="24.6,125.3 14.7,134.7 24.6,146 33.7,134.7 	"/>
	<polygon class="st29" points="26.5,124.3 34.8,133.2 42.9,124.3 	"/>
	<polygon class="st29" points="45.5,124.3 53.7,133.2 61.8,124.3 	"/>
	<polygon class="st29" points="6.5,146.5 14.1,135.9 23,146.5 15.2,156.1 	"/>
	<polygon class="st29" points="24.6,147.5 16.2,157.5 24.6,167.6 32.4,157.5 	"/>
	<polygon class="st29" points="44.3,126.3 34.4,135.8 44.3,147.1 53.5,135.8 	"/>
	<polygon class="st29" points="26.4,147.5 33.9,137 42.8,147.5 35,157.1 	"/>
	<polygon class="st29" points="44.9,148 36.5,157.9 44.9,168.2 52.8,157.9 	"/>
	<polygon class="st29" points="7.6,168.3 15.5,158.8 22.5,168.3 	"/>
	<polygon class="st29" points="26.6,168.3 34.4,158.8 41.5,168.3 	"/>
	<polygon class="st29" points="64.8,125.3 54.8,134.7 64.8,146 73.9,134.7 	"/>
	<polygon class="st29" points="66.6,124.3 74.9,133.2 83,124.3 	"/>
	<polygon class="st29" points="46.7,146.5 54.3,135.9 63.1,146.5 55.4,156.1 	"/>
	<polygon class="st29" points="64.8,147.5 56.4,157.5 64.8,167.6 72.6,157.5 	"/>
	<polygon class="st29" points="66.5,147.5 74,137 82.9,147.5 75.2,157.1 	"/>
	<polygon class="st29" points="47.8,168.3 55.6,158.8 62.6,168.3 	"/>
	<polygon class="st29" points="66.7,168.3 74.6,158.8 81.6,168.3 	"/>
</g>
<path class="st37" d="M109.7,68c0,0-0.1-2.6,4-1.4c0,0,0.6-0.2,1.5-3.5c0,0,0.2-4.1,6.4,0c0,0,1.5,2.2,3.7,2.8
	c2.3,0.7,3.4,1.4,3.7,2.1L109.7,68L109.7,68z"/>
<path class="st37" d="M174.7,50.5c0,0-0.1-1.8,2.8-1c0,0,0.4-0.2,1-2.4c0,0,0.1-2.9,4.5,0c0,0,1.1,1.5,2.6,2c1.5,0.4,2.4,1,2.6,1.5
	H174.7z"/>
<path class="st37" d="M214.5,20.2c0,0-0.1-3.8,6-2c0,0,0.8-0.3,2.2-5.3c0,0,0.2-6.3,9.7,0c0,0,2.3,3.3,5.7,4.2c3.4,1,5.2,2,5.7,3.2
	L214.5,20.2L214.5,20.2z"/>
<path class="st37" d="M306.7,27.6c0,0-0.1-3.8,6-2c0,0,0.8-0.3,2.2-5.3c0,0,0.2-6.3,9.7,0c0,0,2.3,3.3,5.7,4.2c3.4,1,5.2,2,5.7,3.2
	L306.7,27.6L306.7,27.6z"/>
<path class="st37" d="M215.4,73.1l4.7-5.4c2.1-2.4,5-4.1,8.1-4.9l0.9-0.2c0,0,4.6-11.8,18.1-11.3c13.5,0.5,24.2,14.3,24.5,15.1
	c0.2,0.8,5-3.6,11.5,1.6c0,0,6,2.8,8.5,0.6c0,0,10.4-1.6,19.8,4.4L215.4,73.1L215.4,73.1z"/>
<path class="st37" d="M531,68.2l2.3-2.6c1.1-1.1,2.4-2,3.9-2.4l0.5-0.1c0,0,2.3-5.7,8.7-5.4s11.6,6.9,11.8,7.2
	c0.2,0.4,2.4-1.7,5.5,0.8c0,0,2.9,1.3,4.1,0.2c0,0,5-0.8,9.5,2.1L531,68.2L531,68.2z"/>
<path class="st37" d="M571.4,24.9l1.1-1.2c0.5-0.6,1.1-1,2-1.1l0.2-0.1c0,0,1.1-2.8,4.3-2.7c3.2,0.2,5.7,3.3,5.8,3.6
	c0.1,0.2,1.1-0.8,2.7,0.4c0,0,1.5,0.7,2,0.2c0,0,2.4-0.4,4.6,1.1L571.4,24.9L571.4,24.9z"/>
<path class="st37" d="M630.8,48.4l1.1-1.2c0.5-0.6,1.1-1,2-1.1l0.2-0.1c0,0,1.1-2.8,4.3-2.7c3.2,0.2,5.7,3.3,5.8,3.6
	c0.1,0.2,1.1-0.8,2.7,0.4c0,0,1.5,0.7,2,0.2c0,0,2.4-0.4,4.6,1.1L630.8,48.4L630.8,48.4z"/>
<path class="st37" d="M683.6,19.8l2.3-2.6c1.1-1.1,2.4-2,3.9-2.4l0.5-0.1c0,0,2.3-5.7,8.7-5.4c6.5,0.2,11.6,6.9,11.8,7.2
	c0.2,0.3,2.4-1.7,5.5,0.8c0,0,2.9,1.3,4.1,0.2c0,0,5-0.8,9.5,2.1L683.6,19.8L683.6,19.8z"/>
<path class="st37" d="M470.8,28.8l1.7-2c0.8-0.9,1.8-1.5,2.9-1.8l0.3-0.1c0,0,1.7-4.3,6.6-4.1c4.9,0.2,8.8,5.2,8.9,5.5
	c0.1,0.3,1.8-1.3,4.2,0.6c0,0,2.2,1,3.1,0.2c0,0,3.7-0.6,7.2,1.6H470.8z"/>
<g>
	<path class="st38" d="M896.6,114.5L896.6,114.5C896.6,114.6,896.6,114.5,896.6,114.5L896.6,114.5z"/>
	<g>
		<path class="st39" d="M750.3,54.4c-0.2,0-0.5,0.1-0.7,0.2c-1.1,0.9-3.3,3.4-3.9,8.8l0,0c2.5,2.3,4.5,5.5,4.5,10.1L750.3,54.4
			L750.3,54.4z"/>
		<path class="st40" d="M750.3,80.3v-6.9c-0.1-4.6-2-7.8-4.5-10.1c-2.4-2.2-5.2-3.5-7.2-4.2c-0.4-0.1-0.9,0-1,0.4
			c-0.1,0.2-0.1,0.5,0.1,0.7c1.7,2.3,2.8,5,3.3,7.8C745.4,70.2,750.2,74,750.3,80.3z"/>
		<path class="st39" d="M749.4,84.5c0.3,0,0.6-0.1,0.9-0.1v-4.2c-0.1-6.3-4.9-10.1-9.5-12.3c-1.7-0.8-3.6-1.5-5.5-2
			c-0.4-0.1-0.8,0.1-1,0.4c-0.1,0.2-0.1,0.5,0.1,0.7c2.3,2.8,4.2,6,5.4,9.3l0.1,0.1C743.7,78,747.6,80.6,749.4,84.5z"/>
		<path class="st40" d="M743.8,84.9c1.5-0.2,3.1-0.4,4.8-0.4c0.2,0,0.5,0,0.7,0c-1.8-3.9-5.7-6.4-9.5-8.1c-2-0.9-3.9-1.5-5.4-1.9
			c-0.4-0.1-0.8,0.1-1,0.4c-0.1,0.2,0,0.5,0.2,0.7c3.1,2.9,5.5,6.3,6.9,10.1c0.8-0.2,1.7-0.4,2.6-0.5
			C743.3,85,743.6,84.9,743.8,84.9z"/>
		<path class="st41" d="M728,111.5c1.4-0.2,2.7-0.5,4.1-0.8c1.9-0.4,3.9-0.8,5.7-1.3c-3-1.6-5.7-3.4-8.4-5.3
			c-0.7-0.5-1.4-1.1-2.1-1.6l0,0c-1.1,0.2-2.3,0.4-3.4,0.7c-0.4,1.6-0.6,3.1-0.8,4.6c1.1,1,2.3,1.9,3.5,2.8
			C727.1,110.9,727.6,111.2,728,111.5z"/>
		<path class="st41" d="M725.2,109.9c-0.7-0.5-1.4-1.1-2.1-1.7c-0.2,1.4-0.2,2.9-0.3,4.3c1.6-0.3,3.1-0.6,4.6-0.9
			C726.7,111.1,726,110.5,725.2,109.9z"/>
		<path class="st41" d="M724.7,100.4c-0.2,0.8-0.5,1.6-0.7,2.4c1-0.2,1.9-0.4,3-0.5C726.2,101.6,725.5,101,724.7,100.4z"/>
		<path class="st41" d="M738.3,91L738.3,91c1.5-0.4,3.1-0.8,4.6-1.2c2.3-0.7,4.6-1.3,6.9-2.1c-1.3-0.4-2.5-0.9-3.7-1.4
			c-0.2-0.1-0.4-0.2-0.5-0.2c-0.8-0.3-1.6-0.7-2.3-1c-0.9,0.2-1.7,0.4-2.6,0.5c-2.6,0.7-4.8,1.6-6.7,2.8c0.4,0.2,0.7,0.4,1.1,0.7
			C736,89.7,737.1,90.4,738.3,91z"/>
		<path class="st41" d="M731.8,101.3c1.7-0.4,3.6-0.8,5.3-1.1c-2-1.1-4-2.3-5.8-3.7c-1.1-0.8-2.3-1.6-3.4-2.5c-1.3,1.9-2.3,3.9-3,6
			c0.8,0.7,1.7,1.4,2.6,2.2C728.9,101.8,730.4,101.6,731.8,101.3z"/>
		<path class="st41" d="M737.7,91.1c-1.4-0.8-2.9-1.6-4.3-2.5c-2,1.3-3.6,2.8-4.9,4.4c0.8-0.1,1.6-0.3,2.3-0.5
			C733.2,92.1,735.5,91.6,737.7,91.1z"/>
		<path class="st41" d="M737.7,99.9c2.3-0.5,4.5-1.1,6.7-1.7c1.8-0.5,3.6-1.1,5.4-1.7c-2-0.7-3.9-1.4-5.8-2.3
			c-2-0.8-3.9-1.8-5.8-2.8c-2.8,0.7-5.7,1.3-8.5,1.9c-0.5,0.1-0.9,0.2-1.4,0.2c-0.1,0.1-0.1,0.1-0.1,0.2c1.5,1.1,3.1,2.3,4.7,3.3
			C734.4,98,736,99,737.7,99.9z"/>
		<path class="st41" d="M728.9,120c1.7-0.4,3.4-0.7,5.1-1c1.4-0.3,2.8-0.6,4.2-1c-0.8-0.4-1.6-0.8-2.3-1.2c-2.8-1.5-5.4-3.1-7.9-4.9
			c-1.7,0.4-3.4,0.7-5.1,1c0,0.8,0,1.5,0,2.2c0.6,0.5,1.2,1.1,1.8,1.6C726.1,117.9,727.4,119,728.9,120z"/>
		<path class="st41" d="M741.7,90.5c-1,0.2-1.9,0.5-2.9,0.7c2.2,1.2,4.5,2.3,6.9,3.3c1.5,0.7,3.1,1.3,4.7,1.8v-8.4
			C747.5,88.9,744.6,89.7,741.7,90.5z"/>
		<path class="st41" d="M743.1,98.9c-1.6,0.5-3.3,0.9-4.9,1.3c1.9,1,3.8,2,5.7,2.9c2.1,1,4.3,1.8,6.4,2.6v-9
			C747.9,97.5,745.5,98.2,743.1,98.9z"/>
		<path class="st41" d="M744.2,108.1c-1.7,0.5-3.5,1-5.2,1.4c1,0.5,2,1,3,1.5c2.7,1.3,5.5,2.4,8.3,3.4v-8.4
			C748.3,106.9,746.2,107.5,744.2,108.1z"/>
		<path class="st41" d="M746,116.3c-2.2,0.7-4.5,1.3-6.8,1.9c3.6,1.7,7.3,3.1,11.1,4.3v-7.6C748.9,115.4,747.4,115.9,746,116.3z"/>
		<path class="st41" d="M738.8,126c3.3,1.6,6.7,3,10.2,4.2c0.4,0.1,0.8,0.3,1.3,0.4v-7.7C746.5,124.1,742.7,125.2,738.8,126z"/>
		<path class="st41" d="M738.5,109.3c2.3-0.6,4.7-1.3,7-1.9c1.4-0.4,2.9-0.9,4.3-1.4c-2.6-1-5.1-2-7.6-3.2c-1.6-0.7-3.1-1.5-4.6-2.3
			c-2.3,0.5-4.8,1.1-7.2,1.6c-0.8,0.2-1.7,0.4-2.5,0.5c1,0.8,2,1.6,3.1,2.3C733.4,106.3,735.9,107.9,738.5,109.3L738.5,109.3z"/>
		<path class="st41" d="M740.7,133.8c2,0.9,4.2,1.7,6.3,2.5c1.1,0.4,2.2,0.7,3.3,1.1v-6.3C747.1,132.1,743.9,133,740.7,133.8z"/>
		<path class="st41" d="M723,115.9c-0.1-0.1-0.1-0.1-0.2-0.2c0,1.9,0.2,3.7,0.5,5.4c1.7-0.3,3.4-0.6,5-1
			C726.5,118.8,724.7,117.4,723,115.9z"/>
		<path class="st41" d="M747,129.9c-3-1.1-6-2.3-8.8-3.8c-0.4,0.1-0.8,0.2-1.3,0.3c-2.4,0.5-4.8,1-7.2,1.4c1.1,0.8,2.3,1.5,3.6,2.2
			c2.2,1.3,4.5,2.4,6.8,3.4c3.3-0.8,6.4-1.6,9.6-2.6C748.8,130.6,747.9,130.2,747,129.9z"/>
		<path class="st41" d="M738.7,117.9c2.9-0.7,5.8-1.5,8.7-2.4c0.8-0.2,1.6-0.5,2.4-0.8c-3.3-1.1-6.4-2.5-9.5-4
			c-0.7-0.3-1.3-0.7-1.9-1l0,0c-2.5,0.7-5.1,1.2-7.6,1.7c-0.7,0.2-1.5,0.3-2.2,0.5c2.8,2,5.8,3.9,9,5.4
			C737.9,117.5,738.3,117.7,738.7,117.9L738.7,117.9z"/>
		<path class="st41" d="M738.4,125.7c3.8-0.8,7.6-1.8,11.3-3c-0.4-0.1-0.8-0.2-1.2-0.4c-3.4-1.1-6.7-2.5-9.9-4c-2,0.5-4.1,1-6.1,1.4
			c-1,0.2-2.1,0.4-3.1,0.7c2,1.4,4,2.7,6.2,3.9C736.5,124.7,737.4,125.2,738.4,125.7C738.3,125.8,738.4,125.7,738.4,125.7z"/>
		<path class="st41" d="M737.7,125.9c-1.3-0.7-2.6-1.4-3.9-2.2c-1.7-1-3.4-2.1-5-3.3c-1.8,0.4-3.6,0.7-5.4,1
			c0.2,0.8,0.4,1.5,0.6,2.2l0,0c1.7,1.4,3.4,2.6,5.3,3.9C732.1,127,734.9,126.5,737.7,125.9z"/>
		<path class="st41" d="M739.5,133.6c-2.8-1.3-5.4-2.6-7.9-4.2c-0.8-0.5-1.6-1-2.4-1.5c-1,0.2-2,0.4-3,0.5c1.6,2.7,3.8,4.9,6.3,6.6
			c2.2-0.5,4.5-1,6.7-1.4C739.3,133.7,739.4,133.7,739.5,133.6z"/>
		<path class="st41" d="M744,139.5c2,0.3,4.2,0.5,6.3,0.5v-2.3C748.2,138.3,746.1,138.9,744,139.5z"/>
		<path class="st41" d="M724.3,124.4c0.5,1.4,1,2.6,1.7,3.8c0.9-0.2,1.9-0.4,2.8-0.5C727.2,126.7,725.7,125.6,724.3,124.4z"/>
		<path class="st41" d="M745,135.9c-1.6-0.6-3.3-1.3-4.9-2c-0.8,0.2-1.6,0.4-2.4,0.5c-1.6,0.4-3.1,0.7-4.8,1c3,1.9,6.4,3.1,10.1,3.9
			l0,0c2.2-0.5,4.5-1.1,6.6-1.8C748.1,137,746.5,136.5,745,135.9z"/>
		<path class="st41" d="M749.4,84.5c-0.2,0-0.5,0-0.7,0c-1.7,0.1-3.3,0.2-4.8,0.4c0.9,0.4,1.8,0.8,2.7,1.1c0.4,0.1,0.7,0.3,1.1,0.5
			c0.8,0.4,1.7,0.7,2.6,1v-3C750,84.5,749.7,84.5,749.4,84.5z"/>
		<path class="st42" d="M750.3,137.3c-1.1-0.4-2.2-0.7-3.3-1.1c-2.2-0.7-4.3-1.6-6.3-2.5c3.3-0.8,6.4-1.7,9.6-2.7v-0.4
			c-0.4-0.1-0.8-0.3-1.3-0.4c-3.5-1.2-6.9-2.6-10.2-4.2c3.9-0.9,7.7-1.9,11.4-3.1v-0.4c-3.8-1.2-7.5-2.6-11.1-4.3
			c2.3-0.5,4.6-1.2,6.8-1.9c1.4-0.4,2.9-0.9,4.3-1.4v-0.4c-2.8-1-5.7-2.2-8.3-3.4c-1-0.5-2-1-3-1.5c1.7-0.4,3.5-0.9,5.2-1.4
			c2-0.6,4.2-1.3,6.1-2v-0.4c-2.2-0.8-4.3-1.6-6.4-2.6c-2-0.9-3.9-1.9-5.7-2.9c1.7-0.4,3.3-0.8,4.9-1.3c2.4-0.7,4.8-1.4,7.2-2.2
			v-0.4c-1.6-0.5-3.1-1.1-4.7-1.8c-2.3-1-4.6-2-6.9-3.3c1-0.2,1.9-0.5,2.9-0.7c3-0.8,5.8-1.6,8.7-2.6v-0.4c-0.9-0.3-1.7-0.6-2.6-1
			c-0.4-0.1-0.7-0.3-1.1-0.5c-0.9-0.4-1.8-0.7-2.7-1.1c-0.2,0.1-0.5,0.1-0.7,0.1c0.8,0.4,1.6,0.7,2.3,1c0.2,0.1,0.4,0.2,0.5,0.2
			c1.2,0.5,2.5,1,3.7,1.4c-2.3,0.8-4.6,1.5-6.9,2.1c-1.5,0.4-3.1,0.8-4.6,1.2l0,0c-1.1-0.6-2.3-1.3-3.4-1.9
			c-0.4-0.2-0.7-0.4-1.1-0.7c-0.1,0.1-0.2,0.2-0.4,0.2c1.4,0.8,2.8,1.7,4.3,2.5c-2.2,0.5-4.5,1-6.8,1.4c-0.8,0.2-1.6,0.3-2.3,0.5
			c-0.1,0.1-0.2,0.3-0.4,0.5c0.5-0.1,0.9-0.2,1.4-0.2c2.9-0.5,5.7-1.1,8.5-1.9c1.9,1,3.8,1.9,5.8,2.8c1.9,0.8,3.9,1.6,5.8,2.3
			c-1.7,0.6-3.6,1.2-5.4,1.7c-2.2,0.7-4.5,1.2-6.7,1.7c-1.7-1-3.3-1.9-4.9-3c-1.6-1.1-3.2-2.2-4.7-3.3c-0.1,0.1-0.2,0.2-0.2,0.3
			c1.1,0.8,2.2,1.7,3.4,2.5c1.9,1.3,3.9,2.5,5.8,3.7c-1.7,0.4-3.6,0.8-5.3,1.1c-1.4,0.3-2.8,0.6-4.3,0.8c-0.9-0.7-1.7-1.4-2.6-2.2
			c-0.1,0.1-0.1,0.3-0.1,0.4c0.7,0.6,1.5,1.3,2.2,1.9c-1,0.2-1.9,0.4-3,0.5c-0.1,0.1-0.1,0.2-0.1,0.4c1.1-0.2,2.3-0.4,3.4-0.7l0,0
			c0.7,0.5,1.4,1.1,2.1,1.6c2.6,1.9,5.4,3.7,8.4,5.3c-1.9,0.5-3.8,0.9-5.7,1.3c-1.4,0.3-2.7,0.5-4.1,0.8c-0.5-0.3-0.9-0.7-1.3-1
			c-1.2-0.9-2.3-1.8-3.5-2.8c0,0.2-0.1,0.3-0.1,0.5c0.7,0.6,1.4,1.1,2.1,1.7c0.7,0.6,1.5,1.1,2.3,1.7c-1.6,0.3-3.1,0.6-4.6,0.9
			c0,0.1,0,0.2,0,0.4c1.7-0.3,3.4-0.6,5.1-1c2.5,1.8,5.1,3.4,7.9,4.9c0.8,0.4,1.5,0.8,2.3,1.2c-1.4,0.4-2.8,0.7-4.2,1
			c-1.7,0.4-3.4,0.7-5.1,1c-1.4-1.1-2.9-2.2-4.3-3.3c-0.6-0.5-1.2-1-1.8-1.6v0.1c0,0.1,0,0.3,0,0.4c0.1,0.1,0.1,0.1,0.2,0.2
			c1.7,1.5,3.5,2.9,5.4,4.3c-1.7,0.3-3.4,0.7-5,1c0,0.1,0.1,0.2,0.1,0.4c1.8-0.3,3.6-0.7,5.4-1c1.6,1.1,3.3,2.2,5,3.3
			c1.3,0.8,2.6,1.5,3.9,2.2c-2.8,0.6-5.6,1.2-8.4,1.7c-1.8-1.2-3.6-2.5-5.3-3.9c0.1,0.2,0.1,0.5,0.2,0.7l0,0c1.4,1.1,3,2.2,4.5,3.3
			c-0.9,0.2-1.9,0.4-2.8,0.5c0.1,0.1,0.1,0.2,0.2,0.4c1-0.2,2-0.4,3-0.5c0.8,0.5,1.6,1,2.4,1.5c2.5,1.6,5.2,2.9,7.9,4.2
			c-0.1,0-0.2,0.1-0.3,0.1c-2.2,0.5-4.5,1-6.7,1.4c0.1,0.1,0.3,0.2,0.4,0.3c1.6-0.3,3.2-0.7,4.8-1c0.8-0.2,1.6-0.4,2.4-0.5
			c1.6,0.7,3.2,1.4,4.9,2c1.6,0.6,3.1,1.1,4.8,1.6c-2.2,0.7-4.4,1.3-6.6,1.8c0.3,0.1,0.6,0.1,0.9,0.2l0,0c2.1-0.5,4.2-1.1,6.3-1.8
			L750.3,137.3L750.3,137.3z M731,104.7c-1.1-0.7-2.1-1.5-3.1-2.3c0.8-0.2,1.7-0.3,2.5-0.5c2.4-0.5,4.8-1,7.2-1.6
			c1.5,0.8,3,1.6,4.6,2.3c2.5,1.1,5,2.2,7.6,3.2c-1.4,0.5-2.8,1-4.3,1.4c-2.3,0.7-4.7,1.4-7,1.9l0,0
			C735.9,107.9,733.4,106.3,731,104.7z M737.4,117.3c-3.1-1.6-6.1-3.4-9-5.4c0.7-0.1,1.5-0.3,2.2-0.5c2.6-0.5,5.1-1.1,7.6-1.7l0,0
			c0.7,0.4,1.3,0.7,1.9,1c3,1.5,6.2,2.8,9.5,4c-0.8,0.3-1.6,0.5-2.4,0.8c-2.8,0.9-5.7,1.7-8.7,2.4l0,0
			C738.3,117.7,737.9,117.5,737.4,117.3z M735.5,124.3c-2.2-1.2-4.2-2.5-6.2-3.9c1.1-0.2,2.1-0.4,3.1-0.7c2-0.4,4.1-0.9,6.1-1.4
			c3.2,1.6,6.5,2.9,9.9,4c0.4,0.1,0.8,0.2,1.2,0.4c-3.7,1.1-7.5,2.1-11.3,3c-0.1,0-0.1,0-0.1,0C737.4,125.3,736.4,124.8,735.5,124.3
			z M733.3,130.1c-1.2-0.7-2.4-1.4-3.6-2.2c2.4-0.5,4.8-1,7.2-1.4c0.4-0.1,0.8-0.2,1.3-0.3c2.8,1.4,5.8,2.6,8.8,3.8
			c0.9,0.3,1.8,0.7,2.7,1c-3.1,1-6.4,1.9-9.6,2.6C737.8,132.5,735.5,131.4,733.3,130.1z"/>
	</g>
	<g>
		<g>
			<path class="st38" d="M760,80.6v-7.7c0-5.4-2.4-7.5-2.4-11.9c0-3.4,3.3-4.7,8.4-4.7h14.9c7.4,0,13.5,5.6,13.5,12.3
				S788.3,81,780.8,81h-9c0.2,5.2,2.5,7.2,2.5,11.6c0,3.5-3.3,4.7-8.4,4.7s-8.4-1.2-8.4-4.7C757.5,88.1,760,86,760,80.6z
				 M771.8,74.8c0,1.7,2,2.5,4.2,1.9c3.8-1.1,6.4-4.5,6.4-8.1c0-3.8-2.6-7-6.4-8.1c-2.2-0.7-4.2,0.2-4.2,1.9V74.8z"/>
		</g>
	</g>
	<g>
		<g>
			<path class="st38" d="M796.3,80.6v-7.7c0-5.4-2.4-7.5-2.4-11.9c0-3.5,3.3-4.8,8.4-4.8c5.2,0,8.4,1.3,8.4,4.8
				c0,4.4-2.5,6.4-2.5,11.9v7.7c0,5.4,2.5,7.5,2.5,11.9c0,3.5-3.3,4.7-8.4,4.7c-5.2,0-8.4-1.2-8.4-4.7
				C793.9,88.1,796.3,86,796.3,80.6z"/>
		</g>
	</g>
	<g>
		<g>
			<path class="st38" d="M817.4,81.4v-9.9c0-5.4-2.5-7.1-2.5-11.1c0-3,2.1-4.2,5.2-4.2h2.4c6.7,0,15.4,12.8,21,20.5
				c1.4,2,5.3,6.9,5.2,6.6c0.1-0.4,0.1-0.8,0.1-1.3v-9.9c0-5.4-4.8-7.7-4.8-11.7c0-3,2.6-4.2,6.9-4.2c3.7,0,6.9,1.2,6.9,4.2
				c0,4-4.8,6.3-4.8,11.7V82c0,5.4,2.5,7.1,2.5,11.1c0,3-2.1,4-5.2,4h-2.4c-6.7,0-15.4-12.6-20.9-20.5c-1.3-1.7-5.2-6.5-5.2-6.6
				c-0.1,0.5-0.1,0.9-0.1,1.3v9.9c0,5.4,4.8,7.7,4.8,11.7c0,3-2.6,4-6.9,4c-3.7,0-6.9-1.1-6.9-4C812.5,89.1,817.4,86.7,817.4,81.4z"
				/>
		</g>
	</g>
	<g>
		<g>
			<path class="st38" d="M856.6,92.2c1.1-3.6,6.1-5.7,7.8-10.2l4-10.7c1.5-4.2,0.3-6.9,1.9-10.8c1.2-3,4-4.2,7.4-4.2
				c7.8,0,10.2,11.2,12.1,16.6l2.8,7.7c1.9,5.4,5.2,7.5,6.7,11.9c1.2,3.5-2.1,4.7-7.3,4.7c-5.2,0-8.9-1.2-10.1-4.7
				c-1-2.7-0.7-4.5-0.8-6.7h-13.5c-0.3,2.8,4.3,4.6,3.8,7.7c-0.4,2.4-3.5,3.7-8.5,3.7C859.5,97.2,855.4,95.7,856.6,92.2z
				 M868.8,81.7h11.8l-3.1-8.9c-1.9-6-3.8-4.2-4.9-1.4L868.8,81.7z"/>
		</g>
	</g>
	<g>
		<g>
			<path class="st38" d="M760.6,126.3v-6.7c0-4.7-2.1-6.5-2.1-10.3c0-3.1,2.7-4.1,7.2-4.2h7.3c4.5,0,6.7-0.2,8.1-0.5
				c10.4-2.2,10.7,10.1,5.7,10.1c-4.6,0-6.4-6.1-11.1-6.1c-2.7,0-4.8,1.1-4.8,4v7.9h1.9c3.4,0,5.2-3,8.5-3c2.7,0,2.9,1.9,2.9,4.7
				c0,2.8-0.1,4.8-2.9,4.8c-3.3,0-5.1-3.1-8.5-3.1h-1.9v2.3c0,4.7,2.2,6.5,2.2,10.3c0,3.1-2.8,4.1-7.3,4.1c-4.5,0-7.3-1-7.3-4.1
				C758.5,132.8,760.6,131,760.6,126.3z"/>
		</g>
	</g>
	<g>
		<g>
			<path class="st38" d="M793.4,119.6c0-4.7-2.1-6.5-2.1-10.3c0-3.1,2.7-4.1,7.2-4.2h7.3c4.5,0,6.7-0.2,8.1-0.5
				c10.4-2.2,10.7,10.1,5.7,10.1c-4.6,0-6.4-6.1-11.1-6.1c-2.7,0-4.8,1.1-4.8,4v7.9h2.4c3.4,0,5.2-3,8.5-3c2.7,0,3,1.9,3,4.7
				s-0.2,4.8-3,4.8c-3.3,0-5.1-3.1-8.5-3.1h-2.4v9.2c0,2.9,2,4,4.8,4c4.6,0,6.4-6.1,11.1-6.1c5,0,4.7,12.2-5.7,10.1
				c-1.4-0.3-3.6-0.5-8.1-0.5h-7.3c-4.4,0-7.2-1.1-7.2-4.1c0-3.8,2.1-5.6,2.1-10.3V119.6L793.4,119.6z"/>
		</g>
	</g>
	<g>
		<g>
			<path class="st38" d="M826.6,121.7c-6.7-6.7,1.4-16.9,14.4-16.6c7.3,0.2,7.9,2,11.5,2.6c5.9,0.8,4.2,10.5-0.3,10.4
				c-5.1-0.1-5.6-9.3-12.6-9.4c-1.2-0.1-2,0.7-2,2.2c-0.4,5.8,9.7,7.8,14.9,12c0.5,0.4,1,0.8,1.3,1.2c6.7,6.8-1.4,17-14.4,16.6
				c-7.3-0.1-7.9-1.9-11.5-2.5c-5.6-0.8-4.1-10.5,0.3-10.5c5.2,0.1,5.6,9.3,12.6,9.5c1.2,0,2-0.7,2.1-2.2c0.3-5.8-9.7-7.8-14.9-12
				L826.6,121.7z"/>
		</g>
	</g>
	<g>
		<g>
			<path class="st38" d="M866.8,105.3c1,0.2,4.2,0.5,7.8,0.5h8.5c3.6,0,6.7-0.3,7.7-0.5c10.5-2.2,10.7,11.1,5.7,11.1
				c-4.6,0-7.7-7.1-11.6-7.1h-0.9c0,0.3,0.1,0.5,0.1,0.9V127c0,4.7,2.1,6.5,2.1,10.3c0,3.1-2.8,4.1-7.3,4.1c-4.5,0-7.3-1-7.3-4.1
				c0-3.8,2.2-5.6,2.2-10.3v-16.7c0-0.4,0-0.6,0.1-0.9h-0.9c-4,0-7.1,7.1-11.7,7.1C856.2,116.4,856.3,103.2,866.8,105.3z"/>
		</g>
	</g>
	<g>
		<path class="st38" d="M817.3,50.6c0.2-1.9,1.2-2.2,2.8-2.8c4.8-1.7,6.9-0.1,11,2.2c2,1.1,4.6,1.7,6.9,0.7c1-0.4,1.9-1,2.8-1.6
			c0.5-0.3,1-0.5,1.5-0.8c0.2-0.1,0.6-0.1,1,0c0.4,0.1,1,0.4,1.5,0.9c0.1,1.2,0.1,2-0.7,2.6c-1.7,1-3.9,1.4-6,1.1
			c-3.3-0.6-5.8-2.3-8.9-3.3c-1.1-0.4-2.2-0.8-3.4-0.8c-1.7,0.1-3,1-4.6,1.7c-0.8,0.4-1.6,1-2.6,0.7
			C818.1,51.1,817.7,50.9,817.3,50.6C817.3,50.6,817.3,50.6,817.3,50.6L817.3,50.6z"/>
	</g>
</g>
<path class="st22" d="M163.1,56l1.8-1l3.8,2.7h-0.5l-3.1-2L163.1,56z"/>
<polygon class="st22" points="159.9,45.1 161.6,44.1 163.3,45.1 "/>
<rect x="164.7" y="56.5" class="st22" width="0.9" height="1.1"/>
<path class="st10" d="M1159.4-355.3"/>
<g>
	<path class="st24" d="M295.1,130c0,0,0.5-3.5,2.3-1.2c1.8,2.3,2.8,6,6.7,9.8c4,3.7,5.7,6.1,5.4,11.9s-1.1,3.8,0.7,5.9
		c1.8,2,1.8,5.8,0.2,7.6s-6.5,10.2-18.3,7.8c0,0-10.6-2.4-10.5-11.2l5.2-7.8l-2.5-11.3l8-9l1.2-1.8
		C293.7,130.5,294.4,129.7,295.1,130z"/>
	<path class="st25" d="M294.2,130.2c0,0-0.9,1.4,1.1,2.1c0,0,0,2.8-0.2,4s3,10.6,2,14.3c0,0-1,6.3-4,9.5c0,0-0.7,5.3,0,6.4
		c0,0-10.8,3.6-11.3-5.2c0,0-0.7-2.8,3-7c0,0-3.5-10.8-1.2-14.3s3.5-5,6.7-7.2C293.5,130.6,293.9,130,294.2,130.2z"/>
	<path class="st26" d="M295.7,192.4v-23c0,0-3.3-1.9-3.3-3.1s1.2,1.8,3.5,2.5l-0.2-16.6c0,0,1-3.7,1.2-0.5s0,17.2,0,17.2
		s3-1.9,3.7-3.7c0.7-1.8,0.7-0.2,0.7-0.2s-0.2,2.4-3.4,4.1c0,0-0.7,0.5-1,0.5l-0.2,23.4l-1.1-0.3L295.7,192.4z"/>
</g>
<g>
	<path class="st24" d="M400.9,127.1c0,0,0.5-3.7,2.4-1.3c1.8,2.4,2.8,6.3,7.1,10.2c4.1,3.9,5.9,6.3,5.5,12.4c-0.3,6.1-1.1,4,0.7,6.1
		c1.9,2.1,1.8,6,0.2,7.8c-1.5,1.8-6.7,10.7-19,8c0,0-11.1-2.4-10.9-11.7l5.4-8.1l-2.6-11.7l8.4-9.4l1.3-1.8
		C399.3,127.5,400.1,126.7,400.9,127.1z"/>
	<path class="st25" d="M399.8,127.3c0,0-0.9,1.5,1.1,2.2c0,0,0,2.8-0.2,4.1s3.2,11,2.1,14.9c0,0-1.1,6.5-4.1,9.9c0,0-0.8,5.5,0,6.7
		c0,0-11.2,3.7-11.7-5.4c0,0-0.8-2.8,3.2-7.3c0,0-3.7-11.2-1.3-14.9s3.7-5.2,7.1-7.6C399.2,127.7,399.6,127.1,399.8,127.3z"/>
	<path class="st26" d="M401.4,192v-23.9c0,0-3.4-2-3.4-3.3s1.3,1.8,3.7,2.6l-0.2-17.2c0,0,1.1-3.9,1.3-0.5c0.2,3.4,0,17.9,0,17.9
		s3.2-2,3.9-3.8c0.8-1.8,0.8-0.2,0.8-0.2s-0.2,2.4-3.5,4.3c0,0-0.8,0.5-1.1,0.5l-0.2,24.3l-1.1-0.3L401.4,192z"/>
</g>
<g>
	<path class="st24" d="M346,138.8c0,0,0.3-2,1.3-0.7c1,1.3,1.6,3.5,3.9,5.7c2.4,2.2,3.3,3.6,3.1,7c-0.2,3.4-0.7,2.2,0.4,3.4
		c1.1,1.1,1.1,3.3,0.2,4.4c-0.9,1.1-3.8,6-10.6,4.6c0,0-6.2-1.4-6.1-6.5l3-4.6l-1.5-6.6l4.6-5.3l0.7-1.1
		C345.2,139.1,345.6,138.6,346,138.8z"/>
	<path class="st25" d="M345.5,138.9c0,0-0.5,0.8,0.7,1.2c0,0,0,1.6-0.2,2.4c-0.2,0.7,1.8,6.1,1.1,8.3c0,0-0.6,3.7-2.4,5.5
		c0,0-0.4,3.1,0,3.7c0,0-6.3,2.1-6.6-3c0,0-0.4-1.6,1.8-4.1c0,0-2-6.3-0.7-8.3c1.3-2,2-2.9,3.9-4.2S345.3,138.8,345.5,138.9z"/>
	<path class="st26" d="M346.3,175v-13.3c0,0-1.9-1.1-1.9-1.8c0-0.7,0.7,1.1,2,1.5l-0.2-9.6c0,0,0.6-2.2,0.7-0.3c0.2,1.9,0,10,0,10
		s1.8-1.1,2.2-2.1c0.4-1,0.4-0.2,0.4-0.2s-0.1,1.4-2,2.4c0,0-0.4,0.3-0.6,0.3l-0.1,13.6l-0.7-0.2L346.3,175z"/>
</g>
<g>
	
		<ellipse transform="matrix(0.2298 -0.9732 0.9732 0.2298 266.785 430.7453)" class="st0" cx="405.5" cy="46.8" rx="17.8" ry="17.8"/>
	<path class="st37" d="M424,67.6c-1.9,0-72.3,0.6-72.3,0.6s2.2-8.9,13.7-8.5c0,0-0.9-14.1,20.6-8.6c0,0,7-5.7,12,2.1
		c0,0,5.5-8.1,14.1-0.1c0,0,6.4-2.9,7,2.9c0,0,17.2-3.2,16.8,11.6L424,67.6z"/>
</g>
<path class="st14" d="M170.7,84.3c0,0-4.6,6.8-0.7,9.8c3.9,2.9,5,12.8,5,12.8s0.6-10.6-3.3-13.3C167.7,91,170.7,84.3,170.7,84.3z"/>
<path class="st14" d="M195.8,106.9c0,0,5.8,0.1,7.1,3.8c1.2,3.7,1.5,9.3,6,9.3c0,0-3.9,1.6-7.4-6.1
	C197.9,106.2,195.8,106.9,195.8,106.9z"/>
<polygon class="st43" points="492.8,190 523,174.1 581.8,174.1 693.5,175.5 923.4,203.2 481.9,203.2 "/>
<path class="st44" d="M523,174.1c-0.6,0-31.1,15.4,21.5,16.3c52.6,1-74.5-15.2,81.4-15.8L523,174.1z"/>
<path class="st45" d="M206.4,187.9c0,0,16.8-3.4,13.2-10.9C219.6,177.1,236.3,185.4,206.4,187.9z"/>
<path class="st45" d="M197.3,188.4c0,0-16.6,4.5-12.4,11.7C184.9,200.1,167.7,192.7,197.3,188.4z"/>
<path class="st14" d="M168.3,120.1c0,0,9.4,9.9,9.1,19.1c-0.3,9.2,9.4,14.1,9.4,14.1s-9.3-8-9-17.1
	C178.2,127.1,168.3,120.1,168.3,120.1z"/>
<g>
	<g>
		<line class="st1" x1="384.3" y1="15.9" x2="387.2" y2="19.8"/>
		<line class="st1" x1="391.1" y1="25" x2="394" y2="29"/>
	</g>
</g>
<g>
	<g>
		<line class="st1" x1="367.9" y1="44.9" x2="372.8" y2="45"/>
		<line class="st1" x1="378.6" y1="45" x2="383.5" y2="45.1"/>
	</g>
</g>
<g>
	<g>
		<line class="st1" x1="371.1" y1="29.1" x2="375.6" y2="31"/>
		<line class="st1" x1="381" y1="33.3" x2="385.4" y2="35.2"/>
	</g>
</g>
<g>
	<g>
		<line class="st1" x1="404.4" y1="9" x2="404.4" y2="13.9"/>
		<line class="st1" x1="404.4" y1="20.9" x2="404.4" y2="25.8"/>
	</g>
</g>
<g>
	<g>
		<line class="st1" x1="427.7" y1="15.2" x2="424.5" y2="18.9"/>
		<line class="st1" x1="419.7" y1="24.6" x2="416.5" y2="28.3"/>
	</g>
</g>
<g>
	<g>
		<line class="st1" x1="446.4" y1="44.9" x2="441.5" y2="45"/>
		<line class="st1" x1="433.2" y1="45" x2="428.4" y2="45.1"/>
	</g>
</g>
<g>
	<g>
		<line class="st1" x1="443" y1="28.4" x2="438.5" y2="30.1"/>
		<line class="st1" x1="430.9" y1="32.8" x2="426.3" y2="34.5"/>
	</g>
</g>
<g>
	<g>
		<path class="st39" d="M43.4,99.8c0.2-1.5,0.8-2.3,1.1-2.5c0.1-0.1,0.2-0.1,0.4,0c0.3,0.2,1,1,1.1,2.5l-1.3,3.5L43.4,99.8z"/>
		<path class="st40" d="M47.4,101.1c0.1-0.8,0.4-1.5,0.9-2.3c0.1-0.1,0.1-0.2-0.1-0.2c-0.1,0-0.2-0.1-0.2,0
			c-1.2,0.4-3.4,1.5-3.4,4.1c0-2.6-2.2-3.7-3.4-4.1c-0.1-0.1-0.2,0-0.3,0.1c0,0.1,0,0.2,0,0.2c0.5,0.7,0.8,1.5,0.9,2.3l2.8,4.1
			L47.4,101.1z"/>
		<path class="st39" d="M47.8,103.5c0.3-1,0.9-1.9,1.5-2.7c0.1-0.1,0.1-0.2,0-0.2s-0.2-0.1-0.2,0c-0.6,0.2-1.1,0.3-1.6,0.6
			c-1.3,0.7-2.8,1.7-2.8,3.6c0-1.9-1.4-2.9-2.8-3.6c-0.5-0.2-1.1-0.4-1.6-0.6c-0.1,0-0.2,0-0.3,0.2c0,0.1,0,0.2,0,0.2
			c0.7,0.8,1.2,1.7,1.5,2.7l3,2.8L47.8,103.5z"/>
		<path class="st40" d="M47.4,106.3c0.4-1.1,1.1-2.2,2-3.1c0.1-0.1,0.1-0.2,0-0.2c-0.1-0.1-0.2-0.1-0.2-0.1
			c-1.3,0.3-3.6,1.2-4.3,2.9h-0.5c-0.7-1.7-3-2.6-4.3-2.9c-0.1,0-0.2,0-0.3,0.2c0,0.1,0,0.2,0.1,0.2c0.9,0.9,1.6,1.9,2,3L47.4,106.3
			z"/>
		<path class="st41" d="M52.6,114.7L52.6,114.7c0,0.1,0,0.1,0,0.2c0,0.6-0.1,1.1-0.2,1.5v0.1c-0.1,0.2-0.2,0.5-0.2,0.7
			c0,0.1-0.1,0.2-0.1,0.2l0,0c-0.2,0.3-0.3,0.7-0.5,1l-0.1,0.1c-0.5,0.7-1.1,1.4-1.9,1.9l0,0c-0.1,0-0.1,0.1-0.2,0.1
			c-0.8,0.6-1.8,0.9-2.8,1.1l0,0c-0.1,0-0.2,0-0.2,0.1c-0.6,0.1-1.1,0.2-1.8,0.2c-0.7,0-1.2-0.1-1.8-0.2l0,0c-0.1,0-0.2,0-0.2-0.1
			l0,0c-1.1-0.2-2-0.6-2.9-1.1c-0.1,0-0.1-0.1-0.2-0.1c-0.7-0.5-1.4-1.1-1.8-2c0,0,0-0.1-0.1-0.1c-0.2-0.3-0.3-0.7-0.5-1.1l0,0
			c0-0.1-0.1-0.2-0.1-0.2l0,0c-0.1-0.2-0.1-0.4-0.2-0.7v-0.1c-0.1-0.5-0.2-1-0.2-1.5v-0.1l0,0c0-0.2,0-0.4,0-0.7v-0.1
			c0-0.4,0-0.8,0.1-1.2c0-0.1,0-0.1,0-0.2c0.1-0.4,0.1-0.9,0.2-1.3v-0.1c0.1-0.2,0.1-0.5,0.2-0.7v-0.1c0.2-0.6,0.5-1.2,0.9-1.7
			l0.1-0.1c0,0,0,0,0-0.1c0-0.1,0.1-0.1,0.1-0.2c0.4-0.5,0.8-0.9,1.4-1.3l0.1-0.1c0.7-0.4,1.6-0.8,2.7-1c0.1,0,0.2,0,0.2,0
			c0.6-0.1,1.2-0.2,1.9-0.2s1.3,0.1,1.9,0.2c0.1,0,0.2,0,0.2,0c1.1,0.2,1.9,0.6,2.6,1.1l0.1,0.1c0.5,0.3,0.9,0.7,1.2,1.1
			c0,0.1,0.1,0.1,0.1,0.2c0.1,0.1,0.1,0.2,0.2,0.2l0.1,0.1c0.4,0.6,0.7,1.1,0.9,1.7c0,0,0,0.1,0.1,0.1c0.1,0.2,0.2,0.4,0.2,0.6v0.1
			c0.2,0.5,0.2,0.9,0.3,1.4c0,0.1,0,0.1,0,0.2c0.1,0.4,0.1,0.8,0.1,1.2v0.1C52.6,114.3,52.6,114.5,52.6,114.7z"/>
		<path class="st42" d="M52.5,114.9c-0.5,0.4-1.1,0.9-1.6,1.3c-0.3-0.1-0.7-0.2-1-0.2c-0.6-0.1-1.1-0.2-1.7-0.4
			c0.1-0.1,0.2-0.1,0.2-0.2c1-0.5,1.8-1.1,2.7-1.6c0.5,0.1,1,0.2,1.5,0.2V114c-0.4-0.1-0.9-0.2-1.3-0.2c0.1-0.1,0.2-0.2,0.3-0.2
			c0.3-0.2,0.7-0.5,0.9-0.7c0-0.1,0-0.1,0-0.2c-0.2,0.2-0.4,0.3-0.7,0.5c-0.2,0.2-0.5,0.4-0.7,0.6c-0.2-0.1-0.5-0.1-0.7-0.2
			c-0.7-0.2-1.5-0.3-2.1-0.5c0.7-0.4,1.4-0.8,2-1.3c0.3-0.2,0.7-0.5,1-0.7c0.3,0.1,0.6,0.1,0.9,0.2V111c-0.2-0.1-0.5-0.1-0.7-0.2
			c0.2-0.2,0.3-0.3,0.6-0.4c0,0,0-0.1-0.1-0.1c-0.2,0.2-0.4,0.3-0.7,0.5c-0.2-0.1-0.5-0.1-0.8-0.2c-0.7-0.2-1.3-0.2-2-0.4
			c0.5-0.2,0.9-0.6,1.3-0.8c0.4-0.2,0.8-0.6,1.2-0.8l-0.1-0.1c-0.2,0.2-0.6,0.4-0.8,0.6c-0.6,0.4-1.1,0.7-1.8,1.1
			c-0.5-0.1-1-0.2-1.5-0.4c-0.7-0.2-1.3-0.4-2-0.7c0.4-0.2,0.8-0.3,1.3-0.5c0.7-0.3,1.4-0.7,2-1c0.7,0.2,1.4,0.3,2,0.4
			c0.2,0,0.4,0.1,0.6,0.1c0-0.1-0.1-0.1-0.1-0.2c-0.8-0.2-1.5-0.3-2.4-0.5c0.3-0.2,0.6-0.3,0.9-0.5c0.1-0.1,0.2-0.1,0.2-0.2
			l-0.1-0.1c-0.4,0.2-0.7,0.5-1.1,0.7c-0.3-0.1-0.6-0.2-0.9-0.2c-0.8-0.2-1.6-0.5-2.4-0.7c0.2-0.1,0.5-0.2,0.7-0.2
			c0.4-0.2,0.8-0.3,1.2-0.5c-0.1,0-0.2,0-0.2,0c-0.2,0.1-0.5,0.2-0.7,0.3c-0.4,0.2-0.7,0.3-1.1,0.4c-0.2-0.1-0.5-0.2-0.7-0.2
			c-0.4-0.2-0.7-0.3-1.1-0.5c-0.1,0-0.2,0-0.2,0c0.2,0.2,0.6,0.2,0.8,0.3c0.3,0.2,0.7,0.2,1.1,0.4c-0.7,0.2-1.3,0.4-2,0.7
			c-0.4,0.1-0.9,0.2-1.3,0.3l0,0c-0.3-0.2-0.7-0.3-1-0.6c-0.1-0.1-0.2-0.2-0.3-0.2l-0.1,0.1c0.4,0.2,0.8,0.5,1.2,0.7
			c-0.7,0.2-1.3,0.3-2,0.4c-0.2,0.1-0.4,0.1-0.7,0.2c0,0.1-0.1,0.1-0.1,0.2c0.2,0,0.2-0.1,0.4-0.1c0.8-0.2,1.6-0.3,2.4-0.6
			c0.6,0.3,1.1,0.6,1.6,0.8c0.6,0.2,1.1,0.5,1.7,0.7c-0.5,0.2-1.1,0.3-1.5,0.5c-0.7,0.2-1.3,0.3-2,0.5c-0.5-0.2-1-0.6-1.4-0.8
			c-0.5-0.3-0.9-0.7-1.4-1l-0.1,0.1c0.3,0.2,0.7,0.5,1,0.7c0.6,0.4,1.1,0.7,1.7,1.1c-0.5,0.1-1,0.2-1.5,0.3
			c-0.4,0.1-0.8,0.2-1.2,0.2c-0.2-0.2-0.5-0.4-0.7-0.7v0.1c0.2,0.2,0.4,0.3,0.7,0.6c-0.2,0.1-0.6,0.1-0.8,0.2v0.1
			c0.3-0.1,0.7-0.1,1-0.2l0,0c0.2,0.2,0.4,0.3,0.7,0.5c0.7,0.6,1.5,1.1,2.4,1.5c-0.6,0.2-1.1,0.2-1.6,0.4c-0.4,0.1-0.8,0.2-1.2,0.2
			c-0.2-0.1-0.2-0.2-0.4-0.3c-0.3-0.2-0.7-0.5-1-0.8c0,0.1,0,0.1,0,0.2c0.2,0.2,0.4,0.3,0.6,0.5c0.2,0.2,0.4,0.3,0.7,0.5
			c-0.4,0.1-0.9,0.2-1.3,0.2v0.1c0.5-0.1,1-0.2,1.5-0.2c0.7,0.5,1.5,1,2.3,1.4c0.2,0.1,0.4,0.2,0.7,0.3c-0.4,0.1-0.8,0.2-1.2,0.2
			c-0.5,0.1-1,0.2-1.5,0.3c-0.4-0.3-0.8-0.7-1.2-1c-0.2-0.2-0.3-0.3-0.5-0.5l0,0v0.1c0,0,0,0,0.1,0.1c0.5,0.4,1,0.8,1.5,1.2
			c-0.5,0.1-1,0.2-1.5,0.2v0.1c0.5-0.1,1.1-0.2,1.5-0.3c0.5,0.3,1,0.7,1.5,1c0.4,0.2,0.7,0.4,1.1,0.7c-0.8,0.2-1.6,0.3-2.4,0.5
			c-0.5-0.3-1.1-0.7-1.5-1.1c0,0.1,0.1,0.2,0.1,0.2l0,0c0.4,0.3,0.8,0.7,1.3,1c-0.2,0.1-0.6,0.1-0.8,0.2c0,0,0,0.1,0.1,0.1
			c0.3-0.1,0.6-0.1,0.9-0.2c0.2,0.2,0.5,0.3,0.7,0.4c0.7,0.4,1.5,0.8,2.3,1.2h-0.1c-0.7,0.2-1.3,0.3-2,0.4c0.1,0,0.1,0.1,0.2,0.1
			c0.5-0.1,0.9-0.2,1.4-0.3c0.2-0.1,0.5-0.1,0.7-0.2c0.5,0.2,0.9,0.4,1.4,0.6c0.5,0.2,0.9,0.3,1.4,0.5c-0.7,0.2-1.3,0.3-1.9,0.5
			c0.1,0,0.2,0,0.2,0.1l0,0c0.7-0.2,1.2-0.3,1.8-0.5c0.6,0.2,1.1,0.3,1.8,0.5c0.1,0,0.2,0,0.2-0.1c-0.7-0.2-1.2-0.3-1.9-0.5
			c0.3-0.1,0.6-0.2,0.9-0.3c0.7-0.2,1.3-0.5,1.9-0.7l0,0c0.1,0,0.1,0,0.2,0.1c0.6,0.2,1.1,0.2,1.7,0.4c0.1,0,0.1-0.1,0.2-0.1
			c-0.4-0.1-0.8-0.2-1.2-0.2c-0.2-0.1-0.4-0.1-0.6-0.2c0.7-0.3,1.3-0.6,1.9-1c0.4-0.2,0.7-0.4,1.1-0.7c0.2,0.1,0.5,0.1,0.7,0.2
			l0.1-0.1c-0.2-0.1-0.5-0.1-0.7-0.2c0.4-0.2,0.8-0.6,1.2-0.9l0,0c0-0.1,0.1-0.2,0.1-0.2c-0.5,0.4-1,0.7-1.5,1.1
			c-0.7-0.2-1.5-0.2-2.1-0.4c-0.1,0-0.2,0-0.2-0.1c0.2-0.2,0.5-0.2,0.7-0.4c0.7-0.3,1.2-0.7,1.9-1.1c0.5,0.1,1,0.2,1.5,0.3v-0.1
			c-0.5-0.1-1-0.2-1.4-0.2c0.4-0.3,0.8-0.6,1.1-0.9c0.2-0.1,0.3-0.2,0.4-0.3v-0.1l0,0C52.6,114.7,52.6,114.8,52.5,114.9z
			 M49.9,113.5c0.4,0.1,0.7,0.2,1.1,0.2c-0.7,0.5-1.5,1-2.2,1.4c-0.2,0.2-0.5,0.2-0.7,0.4c-0.7-0.2-1.4-0.3-2-0.6
			c-0.4-0.1-0.8-0.2-1.1-0.4c0.8-0.2,1.5-0.6,2.3-1c0.3-0.2,0.7-0.3,1-0.5C48.7,113.2,49.3,113.4,49.9,113.5z M44.8,116.9
			L44.8,116.9c1.1,0.3,2.2,0.7,3.3,0.9c-0.8,0.4-1.6,0.7-2.4,1.1c-0.3,0.1-0.6,0.2-0.9,0.3c-0.2-0.1-0.2-0.1-0.4-0.2
			c-1-0.3-2-0.7-2.9-1.2C42.6,117.5,43.6,117.3,44.8,116.9z M44.8,116.8L44.8,116.8c-1.1-0.3-2.2-0.7-3.2-1.2c0.7-0.2,1.3-0.3,2-0.6
			c0.4-0.2,0.8-0.2,1.2-0.4c0.2,0.1,0.5,0.2,0.7,0.2c0.8,0.2,1.6,0.5,2.4,0.7c-0.9,0.4-1.8,0.8-2.8,1.1
			C45,116.7,44.8,116.7,44.8,116.8z M44.8,114.5c-0.8-0.3-1.6-0.7-2.4-1c-0.3-0.2-0.6-0.3-0.9-0.4c0.5-0.2,1-0.2,1.5-0.4
			c0.6-0.2,1.2-0.4,1.8-0.6c0.4,0.2,0.9,0.3,1.3,0.4c0.7,0.2,1.3,0.4,2,0.6c-0.2,0.1-0.3,0.2-0.5,0.2
			C46.6,113.7,45.6,114.1,44.8,114.5z M50,110.8c0.4,0.1,0.8,0.2,1.2,0.2c-0.2,0.2-0.3,0.2-0.5,0.4c-0.8,0.6-1.6,1.1-2.5,1.5
			c-0.5-0.2-1.1-0.2-1.5-0.4c-0.6-0.2-1.1-0.3-1.7-0.6c0.6-0.2,1.2-0.5,1.8-0.7c0.6-0.2,1.2-0.6,1.7-0.9l0,0
			C48.9,110.6,49.5,110.6,50,110.8z M43.4,108.8c-0.7-0.2-1.3-0.6-2-0.9c0.2-0.1,0.6-0.2,0.8-0.2c0.8-0.2,1.7-0.5,2.5-0.7
			c0.7,0.2,1.4,0.5,2.1,0.7c0.4,0.1,0.8,0.2,1.2,0.3c-0.5,0.2-1.1,0.5-1.5,0.7c-0.6,0.2-1.1,0.5-1.8,0.7l0,0
			C44.3,109.1,43.8,108.9,43.4,108.8z M42.6,110c0.7-0.2,1.4-0.4,2.1-0.7l0,0c0.6,0.2,1.1,0.3,1.6,0.5c0.7,0.2,1.2,0.3,1.9,0.5
			c-0.4,0.2-0.8,0.4-1.2,0.7c-0.7,0.3-1.5,0.7-2.3,1c-0.7-0.2-1.2-0.5-1.9-0.7c-0.6-0.2-1.1-0.6-1.6-0.8
			C41.7,110.3,42.2,110.2,42.6,110z M39.1,111.7c-0.3-0.2-0.6-0.4-0.9-0.7c0.2-0.1,0.5-0.1,0.7-0.2c0.7-0.2,1.4-0.3,2-0.5
			c0.4,0.2,0.9,0.5,1.3,0.7c0.7,0.3,1.5,0.7,2.2,0.9c-0.4,0.2-0.8,0.2-1.2,0.4c-0.7,0.2-1.4,0.4-2,0.6l0,0
			C40.5,112.6,39.9,112.2,39.1,111.7z M41,115.3c-0.9-0.5-1.8-1-2.6-1.5c0.2-0.1,0.4-0.1,0.7-0.2c0.7-0.2,1.5-0.3,2.2-0.5l0,0
			c0.2,0.1,0.4,0.2,0.6,0.3c0.9,0.4,1.8,0.8,2.7,1.1c-0.2,0.1-0.5,0.2-0.7,0.2c-0.8,0.2-1.6,0.5-2.5,0.7l0,0
			C41.3,115.4,41.1,115.4,41,115.3z M40.4,117.3c-0.7-0.3-1.2-0.7-1.8-1.1c0.3-0.1,0.6-0.1,0.9-0.2c0.6-0.2,1.1-0.2,1.8-0.4
			c0.9,0.4,1.9,0.8,2.8,1.1c0.1,0,0.2,0.1,0.3,0.1c-1.1,0.3-2.1,0.7-3.3,0.9l0,0C41,117.6,40.7,117.5,40.4,117.3z M39.8,119
			c-0.3-0.2-0.7-0.4-1.1-0.7c0.7-0.2,1.4-0.2,2.1-0.4c0.2,0,0.2-0.1,0.4-0.1c0.8,0.4,1.6,0.7,2.5,1.1c0.2,0.1,0.5,0.2,0.8,0.2
			c-0.9,0.3-1.8,0.6-2.8,0.7C41.1,119.7,40.4,119.3,39.8,119z M46.2,120.6c-0.5,0.2-1,0.3-1.5,0.5l0,0c-0.3-0.1-0.7-0.2-1-0.3
			c-0.7-0.2-1.2-0.5-1.8-0.7c0.9-0.2,1.9-0.5,2.8-0.8c0.9,0.3,1.9,0.6,2.8,0.8C47,120.2,46.6,120.4,46.2,120.6z M50.6,118.4
			c-0.2,0.2-0.4,0.2-0.7,0.4c-0.7,0.5-1.5,0.9-2.4,1.2c-0.9-0.2-1.9-0.5-2.8-0.7c0.1,0,0.2-0.1,0.3-0.1c1.1-0.3,2-0.7,3-1.2
			C49,118,49.8,118.2,50.6,118.4z M49.4,117.1c-0.4,0.2-0.8,0.5-1.2,0.7c-1.1-0.2-2.2-0.6-3.3-0.9c1.1-0.3,2.2-0.8,3.2-1.3
			c0.4,0.1,0.9,0.2,1.3,0.3c0.5,0.1,0.9,0.2,1.4,0.3C50.3,116.5,49.9,116.8,49.4,117.1z"/>
	</g>
</g>
<g>
	<g>
		<path class="st39" d="M777.4,164.4c1.1-1.1,2-1.4,2.4-1.4c0.2,0,0.2,0.1,0.3,0.2c0.1,0.4,0.2,1.4-0.6,2.7l-3.1,2.1L777.4,164.4z"
			/>
		<path class="st40" d="M779.9,167.8c0.6-0.6,1.2-1.1,2-1.3c0.1,0,0.2-0.2,0.1-0.2c0-0.1-0.1-0.1-0.2-0.2c-1.2-0.3-3.7-0.7-5.1,1.5
			c1.5-2.1,0.4-4.3-0.3-5.4c-0.1-0.1-0.2-0.2-0.3-0.1c-0.1,0-0.1,0.1-0.1,0.2c0,0.8-0.2,1.6-0.6,2.4l-0.1,4.9L779.9,167.8z"/>
		<path class="st39" d="M778.7,169.9c0.8-0.6,1.8-1,2.8-1.3c0.1,0,0.2-0.2,0.2-0.2s-0.1-0.2-0.2-0.2c-0.6-0.2-1.1-0.3-1.6-0.4
			c-1.5-0.2-3.3-0.2-4.3,1.4c1.1-1.5,0.6-3.3-0.2-4.5c-0.2-0.5-0.6-1-1-1.4c-0.1-0.1-0.2-0.2-0.3-0.1c-0.1,0-0.1,0.1-0.1,0.2
			c0.1,1.1,0,2.1-0.2,3.1l0.8,4.1L778.7,169.9z"/>
		<path class="st40" d="M776.9,172c1-0.7,2.2-1.1,3.4-1.3c0.1,0,0.2-0.1,0.2-0.2c0-0.1-0.1-0.2-0.2-0.2c-1.3-0.5-3.7-1.1-5.3-0.1
			l-0.4-0.2c0.4-1.9-1-3.9-1.8-5c-0.1-0.1-0.2-0.2-0.3-0.1c-0.1,0.1-0.1,0.1-0.1,0.2c0.2,1.2,0.2,2.4-0.1,3.7L776.9,172z"/>
		<path class="st41" d="M776.2,181.8L776.2,181.8c-0.1,0.1-0.1,0.1-0.1,0.2c-0.3,0.4-0.7,0.8-1.1,1.1l-0.1,0.1
			c-0.2,0.2-0.4,0.3-0.6,0.5c-0.1,0.1-0.2,0.1-0.2,0.2l0,0c-0.3,0.2-0.7,0.4-1,0.5c0,0-0.1,0-0.1,0.1c-0.8,0.3-1.7,0.5-2.6,0.5l0,0
			c-0.1,0-0.1,0-0.2,0c-1-0.1-2-0.3-2.9-0.7l0,0c-0.1,0-0.2-0.1-0.2-0.1c-0.5-0.2-1.1-0.6-1.5-0.9s-1-0.7-1.4-1.1l0,0
			c-0.1-0.1-0.2-0.2-0.2-0.2l0,0c-0.7-0.8-1.4-1.6-1.7-2.6c0-0.1,0-0.1-0.1-0.2c-0.3-0.8-0.5-1.7-0.4-2.6v-0.1
			c0-0.4,0.1-0.8,0.2-1.1l0,0c0-0.1,0-0.2,0.1-0.2l0,0c0.1-0.2,0.2-0.4,0.2-0.7c0,0,0-0.1,0.1-0.1c0.2-0.5,0.5-0.9,0.8-1.4l0.1-0.1
			l0,0c0.1-0.2,0.2-0.3,0.4-0.5l0.1-0.1c0.2-0.3,0.5-0.7,0.8-1l0.1-0.1c0.3-0.3,0.7-0.7,1-1l0.1-0.1c0.2-0.2,0.3-0.3,0.6-0.4
			l0.1-0.1c0.5-0.4,1.1-0.7,1.7-0.9h0.1h0.1c0.1,0,0.1,0,0.2-0.1c0.6-0.2,1.2-0.2,1.9-0.2c0.1,0,0.1,0,0.2,0
			c0.8,0.1,1.8,0.3,2.8,0.7c0.1,0,0.1,0.1,0.2,0.1c0.5,0.2,1.1,0.6,1.6,1c0.6,0.4,1,0.8,1.4,1.2c0.1,0.1,0.1,0.1,0.2,0.2
			c0.7,0.7,1.2,1.5,1.5,2.4c0,0,0,0.1,0.1,0.1c0.2,0.6,0.3,1.1,0.3,1.6c0,0.1,0,0.1,0,0.2c0,0.1,0,0.2,0,0.2v0.1
			c0,0.7-0.1,1.3-0.2,1.9v0.1c-0.1,0.2-0.1,0.4-0.2,0.6v0.1c-0.2,0.5-0.3,0.9-0.6,1.3l-0.1,0.1c-0.2,0.4-0.4,0.7-0.6,1.1
			c0,0,0,0.1-0.1,0.1C776.5,181.4,776.4,181.7,776.2,181.8z"/>
		<path class="st42" d="M776.1,181.8c-0.7,0.1-1.4,0.1-2,0.1c-0.2-0.2-0.5-0.5-0.7-0.7c-0.4-0.4-0.7-0.8-1.1-1.3
			c0.1,0,0.2,0,0.3,0.1c1.1,0.2,2.1,0.2,3.1,0.2c0.3,0.3,0.7,0.7,1.1,1.1c0,0,0-0.1,0.1-0.1c-0.3-0.3-0.7-0.7-1-1c0.2,0,0.2,0,0.4,0
			c0.4,0,0.8,0,1.1-0.1l0.1-0.1c-0.2,0-0.5,0-0.8,0.1c-0.3,0-0.7,0-0.9,0c-0.2-0.2-0.3-0.3-0.5-0.5c-0.5-0.6-1-1.1-1.5-1.6
			c0.8,0.1,1.6,0.2,2.4,0.2c0.4,0,0.8,0,1.2,0c0.2,0.2,0.4,0.4,0.7,0.7v-0.1c-0.2-0.2-0.3-0.3-0.5-0.6c0.2,0,0.5,0,0.7-0.1V178
			c-0.2,0-0.6,0.1-0.8,0.1c-0.2-0.2-0.3-0.4-0.6-0.6c-0.5-0.5-0.9-1-1.4-1.5c0.5,0.1,1.1,0.1,1.5,0.1c0.5,0,1,0,1.5,0v-0.1
			c-0.3,0-0.7,0-1.1,0c-0.7,0-1.4-0.1-2.1-0.2c-0.3-0.4-0.7-0.8-1-1.1c-0.4-0.6-0.9-1.1-1.3-1.6c0.4,0.2,0.9,0.2,1.3,0.3
			c0.7,0.2,1.5,0.3,2.3,0.4c0.5,0.5,0.9,1.1,1.4,1.5c0.2,0.2,0.2,0.3,0.4,0.4c0-0.1,0-0.1,0-0.2c-0.6-0.6-1.1-1.1-1.6-1.8
			c0.3,0.1,0.7,0.1,1.1,0.1c0.1,0,0.2,0,0.2,0c0,0,0-0.1-0.1-0.1c-0.4,0-0.9-0.1-1.3-0.2c-0.2-0.2-0.4-0.5-0.6-0.7
			c-0.6-0.7-1.1-1.3-1.5-2c0.2,0.1,0.5,0.2,0.7,0.2c0.4,0.1,0.8,0.2,1.2,0.3c-0.1-0.1-0.1-0.1-0.2-0.2c-0.2-0.1-0.5-0.1-0.7-0.2
			c-0.4-0.1-0.8-0.2-1.2-0.3c-0.2-0.2-0.3-0.4-0.5-0.7c-0.2-0.3-0.4-0.7-0.7-1c-0.1,0-0.1-0.1-0.2-0.1c0.2,0.2,0.3,0.5,0.5,0.8
			c0.2,0.3,0.4,0.7,0.7,1c-0.7-0.2-1.3-0.4-2-0.7c-0.4-0.2-0.8-0.3-1.3-0.5l0,0c-0.2-0.3-0.3-0.7-0.5-1c-0.1-0.1-0.1-0.2-0.2-0.3
			c-0.1,0-0.1,0-0.2,0c0.2,0.4,0.4,0.9,0.6,1.3c-0.7-0.2-1.2-0.5-1.9-0.8c-0.2-0.1-0.4-0.2-0.7-0.2c-0.1,0-0.1,0-0.2,0.1
			c0.2,0.1,0.2,0.1,0.4,0.2c0.7,0.3,1.5,0.7,2.3,1c0.2,0.6,0.6,1.1,0.9,1.6c0.3,0.5,0.7,1,1,1.5c-0.5-0.2-1.1-0.3-1.5-0.5
			c-0.7-0.2-1.2-0.5-1.9-0.7c-0.2-0.5-0.5-1-0.7-1.5c-0.2-0.5-0.4-1.1-0.6-1.5H768c0.1,0.4,0.2,0.7,0.4,1.1c0.2,0.7,0.5,1.2,0.7,1.9
			c-0.5-0.2-1-0.4-1.5-0.6c-0.4-0.2-0.7-0.3-1.1-0.5c-0.1-0.3-0.2-0.7-0.2-1l-0.1,0.1c0.1,0.2,0.2,0.6,0.2,0.8
			c-0.2-0.1-0.5-0.2-0.8-0.3l-0.1,0.1c0.3,0.2,0.6,0.2,0.9,0.4l0,0c0.1,0.2,0.2,0.5,0.2,0.7c0.3,0.9,0.7,1.8,1.1,2.6
			c-0.5-0.2-1.1-0.4-1.5-0.7c-0.4-0.2-0.7-0.3-1.1-0.5c-0.1-0.2-0.1-0.3-0.2-0.5c-0.2-0.4-0.2-0.8-0.3-1.2l-0.1,0.1
			c0.1,0.2,0.2,0.5,0.2,0.7c0.1,0.2,0.2,0.5,0.2,0.8c-0.4-0.2-0.8-0.4-1.2-0.6l-0.1,0.1c0.5,0.2,0.9,0.4,1.4,0.7
			c0.3,0.8,0.7,1.6,1.1,2.4c0.1,0.2,0.2,0.4,0.3,0.7c-0.4-0.2-0.7-0.3-1.1-0.5c-0.5-0.2-0.9-0.4-1.4-0.6c-0.2-0.5-0.3-1-0.5-1.5
			c-0.1-0.2-0.1-0.5-0.2-0.7l0,0l-0.1,0.1v0.1c0.2,0.7,0.3,1.3,0.6,1.9c-0.4-0.2-0.9-0.4-1.3-0.7c0,0,0,0.1-0.1,0.1
			c0.5,0.2,1,0.4,1.5,0.7c0.2,0.6,0.4,1.1,0.7,1.6c0.2,0.4,0.3,0.8,0.6,1.1c-0.7-0.3-1.5-0.7-2.3-1c-0.2-0.6-0.4-1.2-0.6-1.8
			c0,0.1-0.1,0.2-0.1,0.2l0,0c0.2,0.5,0.3,1.1,0.5,1.5c-0.2-0.1-0.5-0.2-0.7-0.3v0.1c0.2,0.2,0.6,0.2,0.8,0.4
			c0.1,0.2,0.2,0.5,0.3,0.7c0.3,0.8,0.7,1.5,1.1,2.3h-0.1c-0.6-0.2-1.2-0.5-1.8-0.8c0,0.1,0,0.1,0.1,0.2c0.4,0.2,0.8,0.4,1.3,0.6
			c0.2,0.1,0.4,0.2,0.7,0.2c0.2,0.4,0.5,0.9,0.8,1.3c0.2,0.4,0.6,0.8,0.8,1.1c-0.7-0.2-1.2-0.4-1.9-0.7c0.1,0.1,0.2,0.2,0.2,0.2l0,0
			c0.6,0.2,1.2,0.4,1.8,0.7c0.4,0.5,0.7,1,1.1,1.5c0.1,0,0.2,0.1,0.2,0.1c-0.4-0.5-0.8-1-1.2-1.5c0.3,0.1,0.6,0.2,0.9,0.2
			c0.7,0.2,1.3,0.3,2,0.5l0,0c0,0.1,0.1,0.1,0.1,0.2c0.4,0.4,0.8,0.9,1.2,1.3c0.1,0,0.1,0,0.2,0c-0.3-0.3-0.6-0.7-0.9-1
			c-0.2-0.2-0.2-0.3-0.4-0.5c0.7,0.2,1.4,0.2,2.1,0.3c0.4,0.1,0.9,0.1,1.3,0.1c0.2,0.2,0.3,0.4,0.6,0.6c0,0,0.1,0,0.1-0.1
			c-0.2-0.2-0.3-0.3-0.5-0.5c0.5,0,1,0,1.5,0l0,0c0.1,0,0.2-0.1,0.2-0.2c-0.6,0-1.2,0.1-1.8,0c-0.5-0.5-1-1.1-1.5-1.6
			c-0.1-0.1-0.2-0.2-0.2-0.2c0.2,0,0.6,0.1,0.8,0.1c0.7,0.1,1.5,0.1,2.2,0.1c0.3,0.4,0.7,0.7,1.1,1.1l0.1-0.1
			c-0.3-0.3-0.7-0.7-1-1.1c0.5,0,1,0,1.5-0.1c0.2,0,0.4,0,0.6-0.1l0.1-0.1l0,0C776.2,181.8,776.1,181.8,776.1,181.8z M774.7,179.2
			c0.2,0.2,0.5,0.6,0.8,0.8c-0.9,0-1.7-0.1-2.6-0.2c-0.2,0-0.6-0.1-0.8-0.1c-0.5-0.6-0.9-1.1-1.3-1.6c-0.2-0.3-0.5-0.7-0.7-1
			c0.8,0.2,1.6,0.4,2.4,0.6c0.3,0.1,0.7,0.1,1.1,0.2C773.9,178.4,774.3,178.8,774.7,179.2z M768.5,179.1L768.5,179.1
			c0.7,0.9,1.4,1.8,2.2,2.6c-0.9-0.2-1.7-0.3-2.6-0.6c-0.3-0.1-0.6-0.2-0.9-0.2c-0.1-0.1-0.2-0.2-0.2-0.3c-0.7-0.9-1.2-1.8-1.7-2.7
			C766.4,178.4,767.4,178.8,768.5,179.1z M768.6,179L768.6,179c-0.7-0.9-1.3-1.9-1.9-2.8c0.7,0.2,1.3,0.5,1.9,0.7
			c0.4,0.2,0.8,0.2,1.2,0.4c0.2,0.2,0.3,0.4,0.5,0.7c0.5,0.7,1.1,1.3,1.5,2c-1-0.2-2-0.4-2.8-0.7C768.9,179.1,768.7,179,768.6,179z
			 M770,177.1c-0.5-0.7-1-1.5-1.4-2.2c-0.2-0.3-0.3-0.6-0.5-0.9c0.5,0.2,1,0.4,1.5,0.6c0.6,0.2,1.2,0.4,1.8,0.6
			c0.2,0.4,0.6,0.7,0.8,1.1c0.4,0.6,0.8,1.1,1.3,1.6c-0.2,0-0.3-0.1-0.5-0.1C771.9,177.6,770.9,177.4,770,177.1z M776.4,177.1
			c0.2,0.3,0.6,0.6,0.8,0.9c-0.2,0-0.4,0-0.7,0c-1,0-2-0.1-2.9-0.2c-0.3-0.4-0.7-0.8-1.1-1.2c-0.4-0.5-0.7-1-1.1-1.5
			c0.7,0.2,1.2,0.3,1.9,0.4c0.7,0.2,1.3,0.2,2,0.3l0,0C775.6,176.3,776,176.7,776.4,177.1z M772.2,171.6c-0.4-0.7-0.7-1.2-1.1-1.9
			c0.2,0.1,0.6,0.2,0.8,0.3c0.8,0.3,1.6,0.6,2.4,0.8c0.4,0.6,0.9,1.1,1.3,1.7c0.2,0.3,0.6,0.7,0.8,1c-0.6-0.1-1.1-0.2-1.7-0.3
			c-0.7-0.2-1.2-0.2-1.9-0.5l0,0C772.6,172.4,772.4,172,772.2,171.6z M770.8,172.3c0.7,0.2,1.4,0.5,2.1,0.7l0,0
			c0.3,0.5,0.7,0.9,1.1,1.4c0.4,0.5,0.8,1,1.2,1.5c-0.5-0.1-0.9-0.1-1.4-0.2c-0.8-0.2-1.6-0.3-2.4-0.6c-0.4-0.6-0.7-1.1-1.1-1.7
			c-0.3-0.6-0.6-1.1-0.9-1.6C769.9,171.9,770.4,172.1,770.8,172.3z M767,171.6c-0.2-0.3-0.2-0.7-0.3-1.1c0.2,0.1,0.5,0.2,0.7,0.3
			c0.7,0.3,1.3,0.6,2,0.8c0.2,0.4,0.4,0.9,0.7,1.3c0.4,0.7,0.8,1.4,1.2,2c-0.4-0.1-0.8-0.2-1.2-0.4c-0.7-0.2-1.3-0.5-2-0.7l0,0
			C767.6,173.2,767.3,172.3,767,171.6z M766.5,175.6c-0.5-0.9-0.9-1.9-1.2-2.8c0.2,0.1,0.4,0.2,0.6,0.2c0.7,0.3,1.4,0.6,2.1,0.9l0,0
			c0.1,0.2,0.2,0.4,0.3,0.6c0.5,0.9,1,1.7,1.5,2.5c-0.2-0.1-0.5-0.2-0.7-0.2c-0.8-0.2-1.6-0.6-2.4-0.9l0,0
			C766.5,175.8,766.5,175.8,766.5,175.6z M764.8,176.9c-0.3-0.7-0.6-1.3-0.8-2c0.2,0.2,0.6,0.2,0.8,0.4c0.6,0.2,1.1,0.5,1.7,0.7
			c0.5,0.9,1.1,1.8,1.6,2.6c0.1,0.1,0.2,0.2,0.2,0.3c-1.1-0.3-2.1-0.7-3.2-1.2l0,0C765.1,177.5,764.9,177.2,764.8,176.9z
			 M763.4,177.9c-0.2-0.4-0.3-0.7-0.5-1.1c0.7,0.3,1.3,0.6,2,0.9c0.1,0.1,0.2,0.1,0.3,0.2c0.4,0.8,0.9,1.5,1.5,2.4
			c0.2,0.2,0.3,0.5,0.5,0.7c-0.9-0.3-1.8-0.7-2.7-1C763.9,179.2,763.6,178.6,763.4,177.9z M767.6,182.9c-0.5-0.2-1-0.2-1.5-0.4l0,0
			c-0.2-0.2-0.4-0.6-0.6-0.8c-0.4-0.6-0.7-1.1-1.1-1.6c0.9,0.3,1.8,0.7,2.7,1c0.6,0.7,1.1,1.5,1.8,2.3
			C768.5,183.2,768.1,183,767.6,182.9z M772.5,183.6c-0.2,0-0.5,0-0.7-0.1c-0.9-0.1-1.8-0.2-2.6-0.4c-0.7-0.7-1.2-1.5-1.8-2.2
			c0.1,0,0.2,0.1,0.3,0.1c1.1,0.3,2.1,0.6,3.2,0.7C771.3,182.4,771.9,183.1,772.5,183.6z M772.2,181.8c-0.5,0-0.9-0.1-1.4-0.2
			c-0.7-0.8-1.5-1.7-2.2-2.6c1.1,0.3,2.2,0.7,3.3,0.8c0.3,0.3,0.6,0.7,0.9,1c0.3,0.3,0.7,0.7,1,1.1
			C773.3,181.9,772.8,181.9,772.2,181.8z"/>
	</g>
</g>
</svg>
