<?xml version="1.0" encoding="utf-8"?>
<!-- Generator: Adobe Illustrator 28.3.0, SVG Export Plug-In . SVG Version: 6.00 Build 0)  -->
<svg version="1.1" id="Capa_1" xmlns="http://www.w3.org/2000/svg" xmlns:xlink="http://www.w3.org/1999/xlink" x="0px" y="0px"
	 viewBox="0 0 600 1200" style="enable-background:new 0 0 600 1200;" xml:space="preserve">
<style type="text/css">
	.st0{fill:#38AA45;}
	.st1{fill:#5CB35C;}
	.st2{fill:#F9B513;}
	.st3{fill:#E79403;}
	.st4{fill:#EF9B01;}
</style>
<image style="overflow:visible;" width="5060" height="7590" xlink:href="../../../Downloads/random-institute-flPmLzeIfx8-unsplash.jpg"  transform="matrix(0.1583 0 0 0.1583 -100.5 -0.75)">
</image>
<g>
	<path class="st0" d="M428.6,337.4c0-33.7,14.7-57.6,33-74.2c-4.7-38.8-20.4-56.8-28.3-63.5c-2.6-2.2-6.8-2.2-9.4,0
		c-7.9,6.7-23.6,24.7-28.3,63.5C413.9,279.8,428.6,303.7,428.6,337.4z"/>
	<path class="st1" d="M428.6,387.2c0-46.4,35.3-74.4,68.6-90.3c3-20,10.9-39.3,23.4-56.3c1.8-2.3,1.1-5.4-1.5-6.9
		c-1.6-0.9-3.6-1.1-5.4-0.5c-14.4,5.1-34.8,14.4-52,30c-18.3,16.7-33,40.5-33,74.2c0-33.7-14.7-57.6-33-74.2
		c-17.2-15.6-37.6-24.9-52-30c-3-1-6.3,0.2-7.5,2.8c-0.7,1.5-0.5,3.3,0.6,4.7c12.5,17.1,20.4,36.3,23.4,56.3
		C393.3,312.9,428.6,340.8,428.6,387.2z"/>
	<path class="st0" d="M422,415.7c2.2,0,4.3-0.1,6.6-0.1c2.2,0,4.4,0.1,6.6,0.1c12.9-27.8,41.7-46.6,69-58.7l0.3-0.3
		c8.9-23.9,22.1-46.5,39-66.9c1.9-2.2,1.5-5.3-1-6.9c-1.5-1-3.5-1.3-5.3-0.8c-13.9,3.8-27.3,8.8-40,14.9
		c-33.3,15.9-68.6,43.9-68.6,90.3c0-46.4-35.3-74.4-68.6-90.3c-12.7-6.1-26.2-11.1-40-14.9c-3-0.8-6.2,0.6-7.2,3.2
		c-0.6,1.6-0.2,3.3,0.9,4.6c17,20.4,30.2,43,39,66.9l0.3,0.3C380.4,369.1,409.1,387.8,422,415.7z"/>
	<path class="st1" d="M381.6,418.9c12.4-1.9,25.9-3,40.4-3.2c-12.9-27.8-41.7-46.6-69-58.7c-14.3-6.3-28.2-10.9-39.2-14
		c-3-0.8-6.2,0.6-7.2,3.2c-0.6,1.7-0.1,3.6,1.3,5c22.6,20.7,39.6,45.5,49.9,72.5c6-1.5,12.2-2.9,18.7-4
		C378.3,419.4,379.9,419.1,381.6,418.9z"/>
	<path class="st1" d="M435.2,415.7c14.2,0.3,27.4,1.5,39.6,3.6c1.6,0.3,3.3,0.6,4.9,0.9c6.7,1.3,13.1,2.9,19.2,4.7
		c10.4-27.4,27.5-52.5,50.4-73.6c2.2-2,2.1-5.1-0.2-7c-1.5-1.3-3.7-1.7-5.7-1.2c-11,3.1-24.9,7.6-39.2,14
		C476.8,369.1,448.1,387.8,435.2,415.7z"/>
	<path class="st2" d="M490.6,610.3c-18.7,8.9-38.1,16.8-57.8,23.9c9.6,3.3,19.3,6.5,29,9.4c16.8,5.1,33.9,9.7,51.1,13.9
		c6.3-3.1,12.5-6.2,18.7-9.5c19.2-10.3,37.7-21.8,55.2-34.2c-9.4-1.9-18.8-3.8-28.2-5.8c-14.6-3.1-29.1-6.4-43.5-10
		C507,602.2,498.8,606.4,490.6,610.3z"/>
	<path class="st2" d="M350.4,771.4c-19.8-8.9-39-18.9-57.3-30c-5.9-3.6-11.6-7.2-17.3-11c-7.3,1.4-14.6,2.7-21.9,4.1
		c11.7,19.6,27.3,35.5,45.8,48c16.2-3.3,32.4-6.8,48.5-10.6C348.9,771.8,349.7,771.6,350.4,771.4z"/>
	<path class="st2" d="M428.6,693.8c-27.2,8.7-55,15.9-83,22.3c23.6,11.7,48.2,21.8,73.5,30.4c3.2,1.1,6.3,2.2,9.5,3.2
		c7.3-2.4,14.5-4.9,21.7-7.5c21-7.6,41.6-16.3,61.4-26.1C483.6,709.7,455.8,702.5,428.6,693.8L428.6,693.8z"/>
	<path class="st2" d="M508.9,659.4c-20.6-5.1-40.9-10.8-61-17.2c-6.5-2.1-12.9-4.3-19.4-6.5c-10.3,3.6-20.7,7-31.2,10.2
		c-16.2,5-32.6,9.4-49.2,13.5c25.8,12.3,52.8,22.7,80.4,31.5h0c3.8-1.2,7.5-2.4,11.3-3.7C463.6,679.2,486.7,670,508.9,659.4z"/>
	<path class="st2" d="M510.9,596.9c-16.7-4.2-33.3-8.8-49.6-13.9c-11-3.4-21.9-7-32.7-10.9c-14.7,5.3-29.6,10.1-44.6,14.5
		c-12.5,3.7-25,7.1-37.7,10.3c7.2,3.8,14.5,7.5,21.9,11c19.6,9.3,39.8,17.5,60.4,24.8c24.2-8.6,47.8-18.4,70.4-29.7
		C503,601,507,599,510.9,596.9z"/>
	<path class="st2" d="M538.1,705.2c-6,3.4-12.1,6.7-18.3,9.9c2.3,0.5,4.6,1,7,1.5c17.9,3.9,35.9,7.4,53.9,10.9
		c12.5-8.3,24.6-17.2,36.2-26.5c2.1-5.8,3.9-11.7,5.4-17.9c-12.7-2.3-25.4-4.7-38.1-7.2C569.5,686.4,554.1,696.2,538.1,705.2z"/>
	<path class="st2" d="M382.7,813.6c14.8,2.3,30.1,3.5,45.9,3.5c15.3,0,30.3-1.3,44.6-3.8c-15-3.8-29.9-8-44.6-12.6
		C413.4,805.4,398.1,809.7,382.7,813.6z"/>
	<path class="st2" d="M389.7,787.5c-11.9-4.4-23.6-9.2-35.2-14.2c-5.8,1.4-11.5,2.7-17.3,4c-11.4,2.6-22.8,5-34.3,7.3
		c21.2,13.6,45.9,22.8,73,27.8h0c16.1-4,32.2-8.4,48-13.2C412.4,795.6,401,791.7,389.7,787.5z"/>
	<path class="st2" d="M553.9,747.4c-15.2,8.7-30.9,16.7-47.1,24c5.1,1.2,10.1,2.4,15.2,3.5c10.4,2.3,20.9,4.6,31.4,6.7c0,0,0,0,0,0
		c18.9-12.8,34.9-28.7,47.2-47.7c-6.4-1.2-12.8-2.4-19.2-3.6C572.5,736.4,563.3,742,553.9,747.4z"/>
	<path class="st2" d="M502.7,773.3L502.7,773.3c-15.4,6.8-31.3,13-47.3,18.6c-7.3,2.6-14.7,5-22.1,7.4c15.3,4.6,30.7,8.9,46.3,12.8
		c0,0,0,0,0,0c26-5.4,49.9-14.9,70.6-28.2c-14.5-3-28.9-6.1-43.2-9.5C505.5,774,504.1,773.6,502.7,773.3z"/>
	<path class="st2" d="M602.2,731.5c4.9-7.9,9.2-16.3,12.7-25.2c-9.8,7.6-19.8,15-30.2,22C590.5,729.3,596.3,730.4,602.2,731.5z"/>
	<path class="st2" d="M587.2,673.7c11.9,2.3,23.8,4.6,35.7,6.8c2.8-12.2,4.3-25.2,4.5-38.9c-3.5,3.1-7.1,6.2-10.7,9.2
		C607.2,658.7,597.4,666.4,587.2,673.7z"/>
	<path class="st2" d="M359,772.2c14.9,6.5,30.1,12.4,45.6,17.8c7.9,2.8,15.9,5.4,24,7.9h0c12.4-3.9,24.8-8,36.9-12.5
		c11-4.1,21.9-8.4,32.6-13.1c-23.5-5.7-46.7-12.1-69.6-19.6C405.8,760.1,382.5,766.5,359,772.2z"/>
	<path class="st2" d="M404.6,744.3c-21.7-8-42.9-17-63.3-27.2c-3.1,0.7-6.1,1.4-9.2,2c-17.4,3.8-34.8,7.2-52.3,10.6
		c8.5,5.6,17.1,10.9,26,16c15.8,9.1,32.2,17.3,49.1,24.8c23.4-5.6,46.6-11.9,69.3-19.2C417.6,749,411.1,746.7,404.6,744.3z"/>
	<path class="st2" d="M440.9,748.5c-2.6,0.9-5.2,1.8-7.8,2.7c22.7,7.3,45.9,13.6,69.3,19.2c20.5-9.1,40.3-19.3,59.3-30.8
		c5.3-3.2,10.6-6.6,15.8-10c-20.6-3.9-41.1-8-61.4-12.6C491.9,729.2,466.7,739.5,440.9,748.5z"/>
	<path class="st2" d="M342.4,714c27.5-6.2,54.9-13.2,81.6-21.6c-2.9-0.9-5.8-1.9-8.7-2.9c-24.5-8.3-48.4-17.9-71.4-29
		c-14.7,3.6-29.4,6.9-44.3,10c-7.6,1.6-15.2,3.1-22.8,4.7c14.3,10.1,29.2,19.6,44.7,28.3c6.6,3.7,13.3,7.3,20.1,10.7
		C341.9,714.1,342.2,714,342.4,714z"/>
	<path class="st2" d="M513.3,660.5c-25.7,12.4-52.6,22.9-80.1,31.9c27,8.5,54.6,15.5,82.4,21.8c10.2-5.2,20.3-10.6,30-16.4
		c12-7.1,23.5-14.6,34.8-22.6c-11.6-2.3-23.1-4.7-34.6-7.2C534.8,665.6,524,663.1,513.3,660.5z"/>
	<path class="st2" d="M428.6,569.2c19.5-7,38.5-14.9,57-23.6c10.5-5,20.9-10.3,31-15.9c-15.8-3.8-31.5-7.9-47-12.5
		c-13.8-4-27.5-8.4-41.1-13.2h0c-17.2,6-34.6,11.5-52.3,16.4c-11.9,3.3-23.8,6.4-35.8,9.3C354,537,367.8,544,382,550.4
		C397.2,557.2,412.8,563.5,428.6,569.2z"/>
	<path class="st2" d="M432.7,570.6c14,5,28.2,9.5,42.5,13.7c13,3.8,26.1,7.3,39.3,10.6c22-11.9,43.1-25.1,62.9-39.6
		c4.5-3.2,8.9-6.6,13.2-9.9c-9.9-1.9-19.9-3.9-29.8-5.9c-13.5-2.8-26.9-5.7-40.2-8.9h0c-14.2,7.9-28.9,15.3-43.9,22.1
		C462.4,559.2,447.7,565.2,432.7,570.6z"/>
	<path class="st2" d="M344.4,657.5c21.1-5.2,42-10.9,62.5-17.5c5.9-1.9,11.7-3.8,17.6-5.9c-23.4-8.4-46.3-18-68.2-28.9
		c-4.7-2.4-9.4-4.8-14-7.3h0c-18.4,4.6-36.8,8.7-55.4,12.5c-5.4,1.1-10.8,2.2-16.3,3.3c20.5,14.5,42.2,27.7,65,39.4
		C338.4,654.6,341.4,656.1,344.4,657.5L344.4,657.5z"/>
	<path class="st2" d="M428.6,501.1c15-5.3,29.8-11.1,44.2-17.4c13.4-5.9,26.6-12.2,39.4-19c-10.5-2.5-21-5.2-31.4-8.1
		c-17.6-4.9-35.1-10.2-52.2-16.2c-20.6,7.2-41.5,13.4-62.7,19c-6.9,1.8-13.9,3.6-20.9,5.3c16.1,8.5,32.7,16.4,49.7,23.4
		C405.8,492.7,417.1,497,428.6,501.1L428.6,501.1z"/>
	<path class="st2" d="M342.7,595c17.1-4.3,34.1-8.9,50.9-14.1c10.4-3.2,20.8-6.6,31-10.2c-18.7-6.8-37.1-14.4-54.9-22.9
		c-11.3-5.4-22.3-11.1-33.2-17.1c-17.2,4.1-34.4,7.8-51.8,11.3c-6.1,1.2-12.1,2.4-18.2,3.6c7.3,5.7,14.8,11.2,22.5,16.5
		C306.1,573.9,324,584.9,342.7,595L342.7,595z"/>
	<path class="st2" d="M615.6,547.3c-1.4-4.8-3-9.7-4.7-14.4c-4.5,3.8-9,7.4-13.6,11.1C603.4,545.1,609.5,546.2,615.6,547.3z"/>
	<path class="st2" d="M337.2,463.6c-10.5-5.7-20.7-11.7-30.7-18c-14.2,9.1-25.7,19.9-35.2,31.9c5.6-1.1,11.2-2.2,16.8-3.3
		C304.6,471,320.9,467.5,337.2,463.6z"/>
	<path class="st2" d="M520,463.6c19.6,4.6,39.4,8.8,59.3,12.7c-8.9-10.7-19.3-20.4-31.6-28.8c-1.7,1.1-3.5,2.2-5.3,3.2
		C535,455.2,527.6,459.5,520,463.6z"/>
	<path class="st2" d="M243.6,530.6c-1.9,5.7-3.5,11.4-4.9,17.2c7-1.3,14.1-2.6,21.1-3.9C254.3,539.6,248.9,535.2,243.6,530.6z"/>
	<path class="st2" d="M294.6,537.1c12.8-2.7,25.6-5.5,38.3-8.4c-14.6-8.3-28.7-17.1-42.4-26.4c-8.3-5.7-16.4-11.6-24.4-17.7
		c-9.4,13.4-16.4,28-21.6,43.2c6.2,5.3,12.5,10.5,19,15.5C274,541.3,284.3,539.2,294.6,537.1z"/>
	<path class="st2" d="M337,527.7c16.3-3.9,32.5-8.1,48.6-12.8c13.1-3.8,26.1-7.9,38.9-12.4c-14.2-5.1-28.3-10.6-42-16.7
		c-14.2-6.2-28.1-13-41.6-20.2c-20.5,4.9-41.2,9.3-61.9,13.3c-3.4,0.7-6.7,1.3-10.1,1.9c-0.3,0.4-0.7,0.9-1,1.3
		c10.9,8.4,22.2,16.4,33.8,24.1C313.1,513.7,324.9,520.9,337,527.7z"/>
	<path class="st2" d="M341.3,462.7L341.3,462.7c11.1-2.7,22.1-5.5,33.1-8.5c16.8-4.6,33.5-9.7,50-15.3c-9-3.2-18-6.6-26.8-10.2
		c-7.1-2.9-14.1-5.8-21-9c-6.5,1.1-12.7,2.5-18.7,4c-18.9,4.9-35,11.8-48.7,20.3c2.6,1.6,5.2,3.2,7.8,4.8
		C325,453.6,333.1,458.2,341.3,462.7z"/>
	<path class="st2" d="M593.6,612.3c11.1,2.2,22.2,4.3,33.3,6.3c-0.5-9.7-1.3-19.8-2.7-30.1c-7.5,6.3-15.1,12.4-23,18.3
		C598.7,608.6,596.1,610.5,593.6,612.3z"/>
	<path class="st2" d="M570.1,564.1c-16.5,11.5-33.7,22.1-51.6,31.9c17.7,4.4,35.6,8.3,53.5,12c5.9,1.2,11.8,2.4,17.7,3.6
		c6.3-4.5,12.5-9.2,18.6-14c5.2-4.1,10.3-8.3,15.3-12.5c-1.7-11.5-4-23.2-7.3-34.8c-7.3-1.3-14.6-2.7-21.9-4.1
		C586.6,552.4,578.5,558.3,570.1,564.1z"/>
	<path class="st2" d="M516.3,465.6c-16.8,9-34.1,17.2-51.9,24.7c-10.4,4.4-21,8.4-31.7,12.3c16.5,5.7,33.2,10.8,50.1,15.5
		c12.4,3.4,24.9,6.6,37.4,9.6c15.4-8.6,30.4-17.9,44.8-27.8c7.1-4.9,14-9.9,20.9-15c-1.3-1.7-2.6-3.5-3.9-5.2
		c-4.8-0.9-9.7-1.9-14.5-2.9C550.3,473.3,533.3,469.6,516.3,465.6z"/>
	<path class="st2" d="M524.3,528.6c16.5,3.9,33.1,7.5,49.8,10.8c6.5,1.3,13,2.6,19.5,3.8c5.5-4.3,10.9-8.7,16.3-13.2
		c-5.6-15-12.9-29.5-22.3-42.9c-9.7,7.3-19.6,14.3-29.8,21.1C546.8,515.3,535.7,522.2,524.3,528.6z"/>
	<path class="st2" d="M523.6,655.3c-2.2,1.1-4.3,2.2-6.5,3.3c13.9,3.4,28,6.5,42,9.5c8.1,1.7,16.2,3.3,24.3,4.9
		c13.9-10,27.3-20.6,40-31.7c1.3-1.2,2.7-2.3,4-3.5c0-5.2-0.1-10.7-0.4-16.2c-12.2-2.2-24.4-4.5-36.5-6.9
		C569.5,629.6,547.1,643.3,523.6,655.3z"/>
	<path class="st2" d="M273.8,673c12.2-2.4,24.3-4.9,36.5-7.6c10-2.2,19.9-4.5,29.8-6.8c-5.6-2.8-11.1-5.6-16.6-8.6
		c-19.8-10.7-38.8-22.6-56.8-35.5c-12.2,2.4-24.4,4.7-36.6,6.9c-0.1,5.6-0.2,11-0.2,16.2c4.3,3.9,8.7,7.6,13.2,11.4
		C252.9,657.4,263.2,665.3,273.8,673z"/>
	<path class="st2" d="M247.2,600c-5.1-4-10.2-8.1-15.1-12.3c-1.1,10.6-1.7,21-2,31c11.2-2.1,22.4-4.1,33.5-6.3
		C258,608.3,252.6,604.2,247.2,600z"/>
	<path class="st2" d="M231.3,642.9c-0.5-0.4-1-0.9-1.5-1.3c0.2,13.9,1.5,26.9,3.8,39c12.1-2.2,24.3-4.5,36.3-6.9
		C256.5,664,243.6,653.7,231.3,642.9z"/>
	<path class="st2" d="M267.4,611.6c9.9-2,19.8-4,29.6-6.1c13.9-3,27.8-6.1,41.5-9.5c-21.1-11.5-41.4-24.4-60.5-38.2
		c-5.2-3.8-10.3-7.6-15.4-11.6h0c-8.2,1.6-16.4,3.1-24.7,4.6c-2.6,11.1-4.4,22.4-5.6,33.4c8.2,7,16.6,13.7,25.2,20.2
		C260.9,606.8,264.2,609.2,267.4,611.6z"/>
	<path class="st2" d="M240,704.5c3.4,9.9,7.5,19,12.4,27.5c6.7-1.2,13.4-2.5,20.1-3.8C261.3,720.7,250.5,712.8,240,704.5z"/>
	<path class="st2" d="M337.4,715.1c-9.6-4.9-19-10.1-28.2-15.6c-12.4-7.4-24.5-15.3-36.1-23.6c-12.9,2.5-25.9,5-38.8,7.4
		c1.2,5.6,2.6,11,4.2,16.2v0c12.2,9.8,24.9,19.2,38.2,28C296.9,723.6,317.2,719.6,337.4,715.1z"/>
	<path class="st2" d="M449.7,432.6c-5.6,2.2-11.3,4.3-17,6.3c19.8,6.8,40.1,12.8,60.5,18.2c7.5,2,15.1,3.9,22.6,5.7
		c9.9-5.3,19.7-11,29.2-16.8c-13.3-8.7-28.6-15.9-46.2-21c-6.1-1.8-12.5-3.4-19.2-4.7C469.8,424.5,459.8,428.7,449.7,432.6z"/>
	<path class="st2" d="M435.2,415.7c-2.2,0-4.3-0.1-6.6-0.1c-2.2,0-4.4,0.1-6.6,0.1c-14.5,0.3-28,1.3-40.4,3.2
		c9.1,4,18.4,7.8,27.8,11.5c6.4,2.4,12.7,4.8,19.2,7c9.8-3.4,19.5-7.1,29.1-10.9c5.7-2.3,11.4-4.7,17-7.2
		C462.5,417.2,449.3,416,435.2,415.7z"/>
	<path class="st3" d="M623.4,641.2c-12.7,11.1-26.1,21.7-40,31.7c-8.1-1.6-16.2-3.2-24.3-4.9c-14.1-3-28.1-6.1-42-9.5
		c2.2-1.1,4.4-2.2,6.5-3.3c23.5-12,45.9-25.7,66.9-40.8c12.1,2.4,24.3,4.7,36.5,6.9c0-0.9-0.1-1.9-0.1-2.8
		c-11.1-2-22.2-4.1-33.3-6.3c2.5-1.8,5.1-3.7,7.6-5.6c7.9-5.9,15.5-12,23-18.3c-0.2-1.1-0.3-2.3-0.5-3.4c-5,4.3-10.1,8.4-15.3,12.5
		c-6.1,4.8-12.3,9.5-18.6,14c-5.9-1.2-11.8-2.4-17.7-3.6c-17.9-3.7-35.8-7.7-53.5-12c17.9-9.8,35.1-20.4,51.6-31.9
		c8.3-5.8,16.4-11.8,24.4-17.9c7.3,1.4,14.6,2.8,21.9,4.1c-0.3-1-0.5-1.9-0.8-2.9c-6.1-1.1-12.2-2.2-18.3-3.4
		c4.6-3.6,9.1-7.3,13.6-11.1c-0.3-1-0.7-1.9-1.1-2.9c-5.3,4.5-10.8,8.9-16.3,13.2c-6.5-1.2-13-2.5-19.5-3.8
		c-16.7-3.3-33.3-6.9-49.8-10.8c11.4-6.5,22.6-13.3,33.4-20.4c10.2-6.7,20.2-13.8,29.8-21.1c-0.5-0.8-1.1-1.6-1.7-2.3
		c-6.8,5.2-13.8,10.2-20.9,15c-14.4,9.9-29.3,19.2-44.8,27.8c-12.5-3-25-6.2-37.4-9.6c-16.9-4.7-33.6-9.8-50.1-15.5
		c10.7-3.8,21.3-7.9,31.7-12.3c17.8-7.4,35.1-15.7,51.9-24.7c16.9,4,34,7.7,51.1,11.2c4.8,1,9.6,1.9,14.5,2.9
		c-0.9-1.1-1.8-2.2-2.7-3.3c-19.9-3.9-39.6-8-59.3-12.7c7.6-4.1,15.1-8.4,22.4-12.9c1.8-1.1,3.5-2.1,5.3-3.2
		c-0.9-0.6-1.7-1.2-2.6-1.7c-9.5,5.9-19.3,11.5-29.2,16.8c-7.6-1.8-15.1-3.7-22.6-5.7c-20.4-5.4-40.6-11.3-60.5-18.2
		c5.7-2,11.3-4.1,17-6.3c10.1-3.9,20.1-8,29.9-12.4c-1.6-0.3-3.2-0.6-4.9-0.9c-5.6,2.5-11.3,4.9-17,7.2c-9.6,3.9-19.3,7.5-29.1,10.9
		c-6.4-2.3-12.8-4.6-19.2-7c-9.4-3.6-18.6-7.4-27.8-11.5c-1.7,0.3-3.4,0.5-5,0.8c6.9,3.1,13.9,6.1,21,9c8.9,3.6,17.8,7,26.8,10.2
		c-16.4,5.6-33.1,10.7-50,15.3c-11,3-22,5.8-33.1,8.5h0c-8.3-4.4-16.4-9.1-24.4-13.9c-2.6-1.6-5.2-3.2-7.8-4.8
		c-0.9,0.5-1.8,1.1-2.6,1.7c10,6.3,20.2,12.3,30.7,18c-16.3,3.8-32.6,7.4-49.1,10.7c-5.6,1.1-11.2,2.2-16.8,3.3
		c-0.9,1.1-1.7,2.2-2.5,3.3c3.4-0.6,6.7-1.3,10.1-1.9c20.7-4,41.4-8.4,61.9-13.3c13.5,7.3,27.4,14,41.6,20.2
		c13.7,6,27.8,11.6,42,16.7c-12.8,4.5-25.8,8.5-38.9,12.4c-16,4.7-32.3,8.9-48.6,12.8c-12.1-6.8-23.8-13.9-35.3-21.4
		c-11.6-7.6-22.9-15.7-33.8-24.1c-0.6,0.8-1.1,1.5-1.7,2.3c7.9,6.1,16.1,12,24.4,17.7c13.7,9.4,27.8,18.2,42.4,26.4
		c-12.7,3-25.5,5.8-38.3,8.4c-10.3,2.1-20.7,4.2-31,6.2c-6.5-5.1-12.8-10.2-19-15.5c-0.3,1-0.7,2-1,3c5.3,4.5,10.7,9,16.2,13.3
		c-7,1.3-14.1,2.6-21.1,3.9c-0.2,1-0.5,1.9-0.7,2.9c8.2-1.5,16.4-3,24.7-4.6h0c5,3.9,10.2,7.8,15.4,11.6
		c19.2,13.9,39.4,26.7,60.5,38.2c-13.8,3.4-27.6,6.5-41.5,9.5c-9.9,2.1-19.7,4.1-29.6,6.1c-3.3-2.4-6.5-4.7-9.8-7.2
		c-8.7-6.5-17.1-13.3-25.2-20.2c-0.1,1.2-0.3,2.3-0.4,3.5c4.9,4.2,10,8.3,15.1,12.3c5.4,4.2,10.9,8.3,16.4,12.4
		c-11.2,2.2-22.3,4.3-33.5,6.3c0,0.9-0.1,1.9-0.1,2.8c12.2-2.2,24.4-4.5,36.6-6.9c18,12.9,37,24.8,56.8,35.5c5.5,3,11,5.8,16.6,8.6
		c-9.9,2.4-19.8,4.7-29.8,6.8c-12.1,2.6-24.3,5.1-36.5,7.6c-10.6-7.6-20.9-15.6-30.8-23.9c-4.5-3.7-8.9-7.5-13.2-11.4v1
		c0,1,0,2,0,2.9c0.5,0.4,1,0.9,1.5,1.3c12.3,10.8,25.2,21.1,38.7,30.8c-12.1,2.4-24.2,4.6-36.3,6.9c0.2,0.9,0.4,1.8,0.5,2.7
		c13-2.4,25.9-4.8,38.8-7.4c11.6,8.3,23.7,16.2,36.1,23.6c9.2,5.5,18.6,10.7,28.2,15.6c-20.2,4.5-40.5,8.5-60.9,12.4
		c-13.2-8.8-25.9-18.2-38.2-28c0.5,1.7,1.1,3.3,1.6,5v0c10.5,8.3,21.3,16.2,32.5,23.8c-6.7,1.3-13.4,2.5-20.1,3.8
		c0.5,0.8,1,1.7,1.5,2.5c7.3-1.3,14.6-2.7,21.9-4.1c5.7,3.8,11.5,7.4,17.3,11c18.3,11.1,37.5,21.1,57.3,30c-0.7,0.2-1.5,0.4-2.2,0.5
		c-16.1,3.8-32.3,7.3-48.5,10.6c1.1,0.7,2.2,1.4,3.2,2.1c11.5-2.3,22.9-4.8,34.3-7.3c5.8-1.3,11.6-2.6,17.3-4
		c11.5,5.1,23.3,9.8,35.2,14.2c11.3,4.2,22.7,8.1,34.3,11.7c-15.8,4.8-31.9,9.2-48,13.2c2.2,0.4,4.4,0.8,6.7,1.1c0,0,0,0,0,0
		c15.5-3.9,30.8-8.2,46-12.9c14.7,4.6,29.6,8.7,44.6,12.6c2.1-0.4,4.2-0.8,6.4-1.2c-15.6-3.9-31-8.1-46.3-12.8
		c7.4-2.3,14.8-4.8,22.1-7.4c16.1-5.6,31.9-11.8,47.3-18.6h0c1.4,0.4,2.9,0.7,4.3,1c14.3,3.4,28.7,6.5,43.2,9.5
		c1.1-0.7,2.2-1.4,3.2-2.1c-10.5-2.2-21-4.4-31.4-6.7c-5.1-1.1-10.1-2.3-15.2-3.5c16.2-7.3,31.9-15.3,47.1-24
		c9.4-5.4,18.6-11.1,27.5-17c6.4,1.2,12.8,2.4,19.2,3.6c0.5-0.8,1.1-1.7,1.6-2.5c-5.8-1.1-11.7-2.2-17.5-3.3
		c10.4-7,20.5-14.3,30.2-22v0c0.7-1.7,1.4-3.5,2-5.3c-11.6,9.3-23.7,18.1-36.2,26.5c-18-3.4-36-7-53.9-10.9c-2.3-0.5-4.6-1-7-1.5
		c6.2-3.2,12.3-6.5,18.3-9.9c16-9,31.3-18.8,46-29.3c12.7,2.5,25.4,4.9,38.1,7.2c0.2-0.9,0.4-1.8,0.6-2.7
		c-11.9-2.2-23.8-4.4-35.7-6.8c10.1-7.3,20-15,29.5-23c3.6-3,7.2-6.1,10.7-9.2c0-1,0-2,0-3v-1C626.1,638.9,624.7,640.1,623.4,641.2z
		 M558.5,608c9.4,2,18.8,3.9,28.2,5.8c-17.5,12.4-35.9,23.9-55.2,34.2c-6.1,3.3-12.4,6.5-18.7,9.5c-17.2-4.2-34.2-8.8-51.1-13.9
		c-9.7-3-19.4-6.1-29-9.4c19.7-7.1,39.1-15,57.8-23.9c8.3-3.9,16.4-8,24.4-12.3C529.4,601.5,543.9,604.8,558.5,608z M428.6,690.9
		c-27.6-8.8-54.6-19.2-80.4-31.5c16.5-4.1,33-8.6,49.2-13.5c10.5-3.2,20.9-6.6,31.2-10.2c6.4,2.3,12.9,4.4,19.4,6.5
		c20.1,6.5,40.4,12.1,61,17.2c-22.2,10.6-45.4,19.8-69.1,27.8C436.1,688.5,432.4,689.7,428.6,690.9L428.6,690.9z M511.6,716.1
		c-19.8,9.8-40.3,18.5-61.4,26.1c-7.2,2.6-14.4,5.1-21.7,7.5c-3.2-1-6.4-2.1-9.5-3.2c-25.3-8.7-49.9-18.7-73.5-30.4
		c28-6.4,55.8-13.6,83-22.3h0C455.8,702.5,483.6,709.7,511.6,716.1z M368.2,607.9c-7.4-3.5-14.7-7.2-21.9-11
		c12.6-3.2,25.2-6.6,37.7-10.3c15.1-4.4,30-9.2,44.6-14.5c10.8,3.9,21.7,7.5,32.7,10.9c16.4,5.1,32.9,9.7,49.6,13.9
		C507,599,503,601,499,603c-22.6,11.3-46.3,21.1-70.4,29.7C408,625.4,387.8,617.2,368.2,607.9z M520.7,530.6L520.7,530.6
		c13.4,3.2,26.8,6.1,40.2,8.9c9.9,2.1,19.8,4,29.8,5.9c-4.4,3.4-8.8,6.7-13.2,9.9c-19.9,14.4-40.9,27.7-62.9,39.6
		c-13.2-3.3-26.3-6.8-39.3-10.6c-14.3-4.2-28.5-8.8-42.5-13.7c15-5.5,29.7-11.4,44.1-17.9C491.8,545.9,506.5,538.5,520.7,530.6z
		 M394.7,488.1c-17-7.1-33.6-14.9-49.7-23.4c7-1.7,13.9-3.5,20.9-5.3c21.2-5.6,42.2-11.9,62.7-19c17.2,6,34.6,11.3,52.2,16.2
		c10.4,2.9,20.9,5.6,31.4,8.1c-12.8,6.8-26,13.1-39.4,19c-14.5,6.3-29.2,12.1-44.2,17.4h0C417.1,497,405.8,492.7,394.7,488.1z
		 M376.3,520.4c17.6-4.9,35.1-10.3,52.3-16.4h0c13.5,4.8,27.2,9.1,41.1,13.2c15.5,4.5,31.2,8.7,47,12.5c-10.1,5.6-20.5,10.9-31,15.9
		c-18.5,8.8-37.6,16.6-57,23.6c-15.8-5.7-31.4-12-46.6-18.8c-14.2-6.4-28-13.3-41.4-20.7C352.5,526.7,364.4,523.7,376.3,520.4z
		 M289,562c-7.7-5.3-15.2-10.8-22.5-16.5c6.1-1.2,12.2-2.4,18.2-3.6c17.3-3.5,34.6-7.2,51.8-11.3c10.8,6,21.9,11.7,33.2,17.1
		c17.8,8.5,36.2,16.1,54.9,22.9c-10.2,3.6-20.6,7-31,10.2c-16.8,5.2-33.8,9.8-50.9,14.1h0C324,584.9,306.1,573.9,289,562z
		 M335.5,653.1c-22.8-11.6-44.5-24.9-65-39.4c5.4-1.1,10.8-2.2,16.3-3.3c18.6-3.8,37.1-8,55.4-12.5h0c4.6,2.5,9.3,4.9,14,7.3
		c21.9,11,44.8,20.6,68.2,28.9c-5.8,2-11.7,4-17.6,5.9c-20.6,6.6-41.4,12.3-62.5,17.5h0C341.4,656.1,338.4,654.6,335.5,653.1z
		 M321.6,703.4c-15.5-8.7-30.4-18.2-44.7-28.3c7.6-1.5,15.2-3.1,22.8-4.7c14.8-3.1,29.6-6.4,44.3-10c23,11.1,46.9,20.7,71.4,29
		c2.9,1,5.8,2,8.7,2.9c-26.8,8.4-54.1,15.4-81.6,21.6c-0.2,0.1-0.5,0.1-0.7,0.2C334.9,710.7,328.2,707.1,321.6,703.4z M305.8,745.6
		c-8.9-5.1-17.5-10.4-26-16c17.5-3.3,34.9-6.8,52.3-10.6c3.1-0.7,6.1-1.3,9.2-2c20.4,10.2,41.6,19.3,63.3,27.2
		c6.5,2.4,13,4.7,19.6,6.8c-22.7,7.3-45.9,13.6-69.3,19.2C338,762.9,321.6,754.7,305.8,745.6z M465.5,785.3
		c-12.2,4.5-24.5,8.7-36.9,12.5h0c-8-2.5-16-5.1-24-7.9c-15.5-5.4-30.7-11.3-45.6-17.8c23.5-5.7,46.8-12.1,69.6-19.6
		c22.8,7.5,46.1,13.9,69.6,19.6C487.5,776.9,476.6,781.2,465.5,785.3z M577.4,729.7c-5.2,3.4-10.5,6.7-15.8,10
		c-18.9,11.4-38.8,21.6-59.3,30.8c-23.4-5.6-46.6-11.9-69.3-19.2c2.6-0.9,5.2-1.8,7.8-2.7c25.8-9,51-19.3,75.1-31.4
		C536.3,721.6,556.8,725.7,577.4,729.7z M545.5,697.7c-9.8,5.8-19.8,11.3-30,16.4c-27.8-6.2-55.4-13.3-82.4-21.8
		c27.5-9,54.4-19.5,80.1-31.9c10.8,2.6,21.6,5.1,32.4,7.5c11.5,2.5,23.1,4.9,34.6,7.2C569.1,683.1,557.5,690.6,545.5,697.7z"/>
</g>
<g>
	<defs>
		<path id="SVGID_1_" d="M122,856l-20-2V670h3l6-1v-24h-5.5L105,391l-3-2v-1h3v-11l-2-2l-2-1v-6.1l4,0.1v-6l-1-2h-2l-1-0.2V354h4v-6
			h-0.9l-0.1-2l-3-0.2V340l3,0v-7h-3v-2.5h6.1L107,329h13v-27h13v-6h56l-1-97h-1.7l-0.3-83h1.7l0.3-44h7.3l12.7-1l32,5l13,2v42l9,1
			v61l7,1l-1,2l0.5,0.5h-7v13l7,1v5h-12v14l32,2v103l-5,0v11l26,1v64.1v59.6l21.5,4.3l1.5,115l-5,3v9h26l2,3v115.9l-14,2.1
			c0,0-1,6,0,6s51,3,51,3l3,111l-46,20L122,856z"/>
	</defs>
	<clipPath id="SVGID_00000050621396082119461000000011960230298273523330_">
		<use xlink:href="#SVGID_1_"  style="overflow:visible;"/>
	</clipPath>
	<g style="clip-path:url(#SVGID_00000050621396082119461000000011960230298273523330_);">
		
			<image style="overflow:visible;" width="5060" height="7590" xlink:href="../../../Downloads/random-institute-flPmLzeIfx8-unsplash.jpg"  transform="matrix(0.1583 0 0 0.1583 -101 -1)">
		</image>
	</g>
</g>
<g>
	<defs>
		<path id="SVGID_00000155855993601626204240000005538868568258589576_" d="M392.7,727.4L418,729c0,0,0,9.9,0,9.5s4-1.5,4-1.5v7.1
			l3-1.1l14-4l13-1v-9l7.7-1.6L476,729v8.3l14,2.7v3l16,2v5.5l8-1.5l-6-1v-7l10-7l15-3l1-4l9-3l2-190l31-7l21-4l47,6l-1,181l27-11
			l43,5v105.5l10,423.5l-381-7L392.7,727.4z"/>
	</defs>
	<clipPath id="SVGID_00000116236218860793560240000007722500066763604388_">
		<use xlink:href="#SVGID_00000155855993601626204240000005538868568258589576_"  style="overflow:visible;"/>
	</clipPath>
	<g style="clip-path:url(#SVGID_00000116236218860793560240000007722500066763604388_);">
		
			<image style="overflow:visible;" width="5060" height="7590" xlink:href="../../../Downloads/random-institute-flPmLzeIfx8-unsplash.jpg"  transform="matrix(0.1583 0 0 0.1583 -100.5 1)">
		</image>
	</g>
</g>
<g>
	<path class="st4" d="M149.3,69.5C149.3,69.6,149.4,69.6,149.3,69.5C149.4,69.6,149.3,69.5,149.3,69.5
		C149.3,69.5,149.3,69.5,149.3,69.5z"/>
	<g>
		<path class="st0" d="M49.3,41V28.4c-0.2,0-0.3,0.1-0.4,0.2c-0.8,0.6-2.2,2.3-2.7,6C47.8,36,49.1,38.1,49.3,41z"/>
		<path class="st1" d="M49.3,46V41c-0.1-2.9-1.5-5-3.1-6.5c-1.6-1.5-3.6-2.4-4.9-2.8c-0.3-0.1-0.6,0-0.7,0.3c-0.1,0.1,0,0.3,0.1,0.4
			c1.2,1.6,1.9,3.4,2.2,5.3C45.9,39.2,49.1,41.8,49.3,46z"/>
		<path class="st0" d="M48.7,49c0.2,0,0.4,0,0.6,0v-3c-0.2-4.2-3.4-6.8-6.5-8.2c-1.2-0.6-2.5-1.1-3.8-1.4c-0.3-0.1-0.6,0.1-0.7,0.3
			c-0.1,0.1,0,0.3,0.1,0.4c1.6,1.9,2.9,4.1,3.7,6.3l0,0C44.7,44.6,47.4,46.3,48.7,49z"/>
		<path class="st1" d="M44.8,49.3c1.2-0.2,2.4-0.3,3.8-0.3c-1.2-2.6-3.9-4.4-6.5-5.6c-1.4-0.6-2.7-1-3.7-1.3
			c-0.3-0.1-0.6,0.1-0.7,0.3c-0.1,0.2,0,0.3,0.1,0.5c2.1,2,3.7,4.3,4.7,6.9c0.6-0.1,1.2-0.3,1.8-0.4C44.5,49.3,44.7,49.3,44.8,49.3z
			"/>
		<path class="st2" d="M41.7,72c2.4,1.2,5,2.1,7.6,3v-5.2c-1,0.3-1.9,0.7-2.9,1C44.8,71.2,43.2,71.7,41.7,72z"/>
		<path class="st2" d="M41.9,82.6c-1.9-0.8-3.7-1.8-5.4-2.8c-0.6-0.3-1.1-0.7-1.6-1c-0.7,0.1-1.4,0.3-2.1,0.4
			c1.1,1.9,2.6,3.4,4.3,4.5c1.5-0.3,3.1-0.6,4.6-1C41.7,82.7,41.8,82.7,41.9,82.6z"/>
		<path class="st2" d="M41,53.4L41,53.4c1.1-0.3,2.1-0.5,3.1-0.8c1.6-0.4,3.2-0.9,4.7-1.5c-0.9-0.3-1.7-0.6-2.5-1
			c-0.7-0.3-1.3-0.6-2-0.8c-0.6,0.1-1.2,0.2-1.8,0.4c-1.8,0.5-3.3,1.1-4.6,1.9c0.2,0.2,0.5,0.3,0.7,0.5C39.5,52.6,40.2,53,41,53.4z"
			/>
		<path class="st2" d="M34,67.5c0.9-0.2,1.9-0.4,2.8-0.6c1.3-0.3,2.6-0.6,3.9-0.9c-2-1.1-3.9-2.3-5.7-3.6c-0.5-0.4-1-0.7-1.5-1.1h0
			c-0.8,0.1-1.6,0.3-2.3,0.4c-0.2,1.1-0.4,2.1-0.5,3.2c0.8,0.7,1.6,1.3,2.4,1.9C33.4,67.1,33.7,67.3,34,67.5z"/>
		<path class="st2" d="M41.5,66.1c0.7,0.4,1.4,0.7,2.1,1c1.8,0.9,3.8,1.7,5.7,2.3v-5.7c-1.4,0.5-2.8,1-4.2,1.4
			C43.9,65.5,42.7,65.8,41.5,66.1z"/>
		<path class="st2" d="M48.4,80.3c0.3,0.1,0.6,0.2,0.9,0.3v-5.3c-2.6,0.8-5.2,1.5-7.8,2.1C43.6,78.5,46,79.5,48.4,80.3z"/>
		<path class="st2" d="M45.6,84.2c-1.1-0.4-2.2-0.9-3.3-1.3c-0.5,0.1-1.1,0.3-1.6,0.4c-1.1,0.2-2.2,0.5-3.2,0.7
			c2,1.3,4.3,2.2,6.9,2.6h0c1.5-0.4,3-0.8,4.5-1.2C47.7,84.9,46.7,84.6,45.6,84.2z"/>
		<path class="st2" d="M31.4,76.3c0.3,0.9,0.7,1.8,1.2,2.6c0.6-0.1,1.3-0.2,1.9-0.4C33.4,77.8,32.4,77.1,31.4,76.3z"/>
		<path class="st2" d="M36.6,60.5c1.2-0.3,2.4-0.5,3.6-0.8c-1.4-0.8-2.7-1.6-4-2.5c-0.8-0.5-1.6-1.1-2.3-1.7c-0.9,1.3-1.6,2.7-2,4.1
			c0.6,0.5,1.2,1,1.8,1.5C34.6,60.9,35.6,60.7,36.6,60.5z"/>
		<path class="st2" d="M40.6,59.6c1.5-0.4,3.1-0.8,4.6-1.2c1.2-0.4,2.5-0.7,3.7-1.2c-1.3-0.5-2.7-1-4-1.6c-1.3-0.6-2.7-1.2-3.9-1.9
			c-1.9,0.5-3.9,0.9-5.9,1.3c-0.3,0.1-0.6,0.1-1,0.2c0,0-0.1,0.1-0.1,0.1c1,0.8,2.1,1.6,3.2,2.3C38.3,58.3,39.5,58.9,40.6,59.6z"/>
		<path class="st2" d="M40.6,53.5c-1-0.5-2-1.1-2.9-1.7c-1.3,0.9-2.4,1.9-3.3,3c0.5-0.1,1.1-0.2,1.6-0.3
			C37.5,54.2,39.1,53.9,40.6,53.5z"/>
		<path class="st2" d="M44.9,86.6c1.4,0.2,2.8,0.3,4.3,0.3v-1.5C47.8,85.9,46.4,86.3,44.9,86.6z"/>
		<path class="st2" d="M31.8,59.9c-0.2,0.5-0.3,1.1-0.5,1.6c0.7-0.1,1.3-0.2,2-0.4C32.8,60.7,32.3,60.3,31.8,59.9z"/>
		<path class="st2" d="M47,84.4c0.7,0.3,1.5,0.5,2.3,0.7v-4.3c-2.2,0.7-4.4,1.3-6.6,1.8C44.1,83.3,45.5,83.9,47,84.4z"/>
		<path class="st2" d="M41.4,53.6c1.5,0.8,3.1,1.5,4.7,2.2c1,0.4,2.1,0.8,3.2,1.2v-5.7c-1.9,0.7-3.9,1.3-5.9,1.8
			C42.7,53.3,42,53.4,41.4,53.6z"/>
		<path class="st2" d="M40.6,77.3c-0.9-0.5-1.8-1-2.7-1.5c-1.2-0.7-2.3-1.4-3.4-2.2c-1.2,0.2-2.4,0.5-3.7,0.7c0.1,0.5,0.2,1,0.4,1.5
			v0c1.2,0.9,2.4,1.8,3.6,2.6C36.8,78.1,38.7,77.7,40.6,77.3z"/>
		<path class="st2" d="M32.1,66.4c-0.5-0.4-1-0.8-1.4-1.2c-0.1,1-0.2,2-0.2,2.9c1.1-0.2,2.1-0.4,3.2-0.6
			C33.1,67.2,32.6,66.8,32.1,66.4z"/>
		<path class="st2" d="M34.6,73.3c1.2-0.2,2.3-0.5,3.4-0.7c0.9-0.2,1.9-0.4,2.8-0.6c-0.5-0.3-1.1-0.5-1.6-0.8
			c-1.9-1-3.7-2.1-5.4-3.4c-1.2,0.2-2.3,0.4-3.5,0.7c0,0.5,0,1,0,1.5c0.4,0.4,0.8,0.7,1.2,1.1C32.6,71.8,33.6,72.6,34.6,73.3z"/>
		<path class="st2" d="M40.9,59.8c1.3,0.7,2.6,1.4,3.9,2c1.4,0.6,2.9,1.2,4.4,1.8v-6.2c-1.6,0.6-3.3,1.1-4.9,1.5
			C43.2,59.2,42.1,59.5,40.9,59.8z"/>
		<path class="st2" d="M41.1,77.2c2.6-0.6,5.2-1.3,7.7-2c-0.3-0.1-0.6-0.2-0.8-0.3c-2.3-0.8-4.6-1.7-6.8-2.7
			c-1.4,0.3-2.8,0.7-4.2,0.9c-0.7,0.2-1.4,0.3-2.2,0.4c1.4,1,2.8,1.9,4.2,2.7C39.8,76.6,40.4,76.9,41.1,77.2
			C41.1,77.2,41.1,77.2,41.1,77.2z"/>
		<path class="st2" d="M41.3,71.9c2-0.5,4-1,5.9-1.7c0.6-0.2,1.1-0.4,1.7-0.6c-2.2-0.8-4.4-1.7-6.5-2.7c-0.4-0.2-0.9-0.5-1.3-0.7h0
			c-1.7,0.4-3.5,0.8-5.2,1.2c-0.5,0.1-1,0.2-1.5,0.3c1.9,1.4,4,2.6,6.2,3.7C40.7,71.6,41,71.7,41.3,71.9L41.3,71.9z"/>
		<path class="st2" d="M47,80.1c-2.1-0.8-4.1-1.6-6-2.6c-0.3,0.1-0.6,0.1-0.9,0.2c-1.6,0.4-3.3,0.7-4.9,1c0.8,0.5,1.6,1,2.5,1.5
			c1.5,0.9,3,1.6,4.6,2.3c2.2-0.5,4.4-1.1,6.6-1.8C48.2,80.5,47.6,80.3,47,80.1z"/>
		<path class="st2" d="M41.1,65.9c1.6-0.4,3.2-0.8,4.8-1.3c1-0.3,2-0.6,2.9-1c-1.8-0.6-3.5-1.4-5.2-2.2c-1.1-0.5-2.1-1-3.1-1.6
			c-1.6,0.4-3.3,0.7-4.9,1.1c-0.6,0.1-1.1,0.2-1.7,0.3c0.7,0.5,1.4,1.1,2.1,1.6C37.7,63.9,39.4,65,41.1,65.9L41.1,65.9z"/>
		<path class="st2" d="M30.6,70.5c0,0-0.1-0.1-0.1-0.1c0,1.3,0.1,2.5,0.4,3.7c1.1-0.2,2.3-0.4,3.4-0.6C33,72.5,31.8,71.5,30.6,70.5z
			"/>
		<path class="st2" d="M44.8,49.3c0.9,0.4,1.7,0.7,2.6,1.1c0.6,0.2,1.2,0.4,1.8,0.7V49c-0.2,0-0.4,0-0.6,0
			C47.3,49,46,49.1,44.8,49.3z"/>
		<path class="st3" d="M49.3,85.1c-0.8-0.2-1.5-0.5-2.3-0.7c-1.5-0.5-2.9-1.1-4.3-1.7c2.2-0.5,4.4-1.1,6.6-1.8v-0.3
			c-0.3-0.1-0.6-0.2-0.9-0.3c-2.4-0.8-4.7-1.8-7-2.9c2.6-0.6,5.3-1.3,7.8-2.1V75c-2.6-0.8-5.2-1.8-7.6-3c1.6-0.4,3.1-0.8,4.7-1.3
			c1-0.3,2-0.6,2.9-1v-0.3c-1.9-0.7-3.9-1.5-5.7-2.3c-0.7-0.3-1.4-0.7-2.1-1c1.2-0.3,2.4-0.6,3.6-1c1.4-0.4,2.8-0.9,4.2-1.4v-0.3
			c-1.5-0.5-3-1.1-4.4-1.8c-1.3-0.6-2.6-1.3-3.9-2c1.1-0.3,2.3-0.6,3.4-0.9c1.7-0.5,3.3-1,4.9-1.5v-0.3c-1.1-0.4-2.1-0.8-3.2-1.2
			c-1.6-0.7-3.2-1.4-4.7-2.2c0.7-0.2,1.3-0.3,2-0.5c2-0.5,4-1.1,5.9-1.8V51c-0.6-0.2-1.2-0.4-1.8-0.7c-0.9-0.3-1.8-0.7-2.6-1.1
			c-0.2,0-0.3,0.1-0.5,0.1c0.7,0.3,1.3,0.6,2,0.8c0.8,0.3,1.7,0.7,2.5,1c-1.6,0.5-3.1,1-4.7,1.5c-1,0.3-2.1,0.6-3.1,0.8h0
			c-0.8-0.4-1.5-0.9-2.3-1.3c-0.2-0.1-0.5-0.3-0.7-0.5c-0.1,0.1-0.2,0.1-0.3,0.2c0.9,0.6,1.9,1.2,2.9,1.7c-1.5,0.4-3.1,0.7-4.6,1
			c-0.5,0.1-1.1,0.2-1.6,0.3c-0.1,0.1-0.2,0.2-0.2,0.3c0.3-0.1,0.6-0.1,1-0.2c2-0.4,3.9-0.8,5.9-1.3c1.3,0.7,2.6,1.3,3.9,1.9
			c1.3,0.6,2.6,1.1,4,1.6c-1.2,0.4-2.4,0.8-3.7,1.2c-1.5,0.4-3.1,0.8-4.6,1.2c-1.1-0.6-2.3-1.3-3.3-2c-1.1-0.7-2.2-1.5-3.2-2.3
			c-0.1,0.1-0.1,0.1-0.2,0.2c0.8,0.6,1.5,1.1,2.3,1.7c1.3,0.9,2.6,1.7,4,2.5c-1.2,0.3-2.4,0.5-3.6,0.8c-1,0.2-2,0.4-2.9,0.6
			c-0.6-0.5-1.2-1-1.8-1.5c0,0.1-0.1,0.2-0.1,0.3c0.5,0.4,1,0.8,1.5,1.3c-0.7,0.1-1.3,0.2-2,0.4c0,0.1,0,0.2-0.1,0.3
			c0.8-0.1,1.6-0.3,2.3-0.4h0c0.5,0.4,1,0.7,1.5,1.1c1.8,1.3,3.7,2.5,5.7,3.6c-1.3,0.3-2.6,0.6-3.9,0.9c-0.9,0.2-1.9,0.4-2.8,0.6
			c-0.3-0.2-0.6-0.4-0.9-0.7c-0.8-0.6-1.6-1.3-2.4-1.9c0,0.1,0,0.2,0,0.3c0.5,0.4,0.9,0.8,1.4,1.2c0.5,0.4,1,0.8,1.6,1.2
			c-1.1,0.2-2.1,0.4-3.2,0.6c0,0.1,0,0.2,0,0.3c1.2-0.2,2.3-0.4,3.5-0.7c1.7,1.2,3.5,2.3,5.4,3.4c0.5,0.3,1,0.5,1.6,0.8
			c-0.9,0.2-1.9,0.4-2.8,0.6c-1.1,0.3-2.3,0.5-3.4,0.7c-1-0.7-2-1.5-2.9-2.3c-0.4-0.4-0.8-0.7-1.2-1.1v0.1c0,0.1,0,0.2,0,0.3
			c0,0,0.1,0.1,0.1,0.1c1.2,1,2.4,2,3.7,2.9c-1.1,0.2-2.3,0.4-3.4,0.6c0,0.1,0,0.2,0.1,0.3c1.2-0.2,2.5-0.5,3.7-0.7
			c1.1,0.8,2.2,1.5,3.4,2.2c0.9,0.5,1.8,1,2.7,1.5c-1.9,0.4-3.8,0.8-5.8,1.2c-1.3-0.8-2.5-1.7-3.6-2.6c0,0.2,0.1,0.3,0.2,0.5v0
			c1,0.8,2,1.5,3.1,2.2c-0.6,0.1-1.3,0.2-1.9,0.4c0,0.1,0.1,0.2,0.1,0.2c0.7-0.1,1.4-0.3,2.1-0.4c0.5,0.4,1.1,0.7,1.6,1
			c1.7,1.1,3.5,2,5.4,2.8c-0.1,0-0.1,0-0.2,0c-1.5,0.4-3.1,0.7-4.6,1c0.1,0.1,0.2,0.1,0.3,0.2c1.1-0.2,2.2-0.5,3.2-0.7
			c0.5-0.1,1.1-0.2,1.6-0.4c1.1,0.5,2.2,0.9,3.3,1.3c1.1,0.4,2.2,0.8,3.2,1.1c-1.5,0.5-3,0.9-4.5,1.2c0.2,0,0.4,0.1,0.6,0.1
			c0,0,0,0,0,0c1.5-0.4,2.9-0.8,4.3-1.2V85.1z M36.1,62.8c-0.7-0.5-1.4-1-2.1-1.6c0.6-0.1,1.2-0.2,1.7-0.3c1.6-0.3,3.3-0.7,4.9-1.1
			c1,0.6,2.1,1.1,3.1,1.6c1.7,0.8,3.4,1.5,5.2,2.2c-1,0.3-1.9,0.7-2.9,1c-1.6,0.5-3.2,0.9-4.8,1.3h0C39.4,65,37.7,63.9,36.1,62.8z
			 M40.5,71.4c-2.2-1.1-4.2-2.4-6.2-3.7c0.5-0.1,1-0.2,1.5-0.3c1.8-0.4,3.5-0.8,5.2-1.2h0c0.4,0.2,0.9,0.5,1.3,0.7
			c2.1,1,4.2,1.9,6.5,2.7c-0.6,0.2-1.1,0.4-1.7,0.6c-1.9,0.6-3.9,1.2-5.9,1.7h0C41,71.7,40.7,71.6,40.5,71.4z M39.1,76.2
			c-1.5-0.8-2.9-1.7-4.2-2.7c0.7-0.1,1.4-0.3,2.2-0.4c1.4-0.3,2.8-0.6,4.2-0.9c2.2,1.1,4.4,2,6.8,2.7c0.3,0.1,0.5,0.2,0.8,0.3
			c-2.5,0.8-5.1,1.5-7.7,2c0,0,0,0-0.1,0C40.4,76.9,39.8,76.6,39.1,76.2z M37.7,80.2c-0.8-0.5-1.7-1-2.5-1.5c1.7-0.3,3.3-0.6,4.9-1
			c0.3-0.1,0.6-0.1,0.9-0.2c1.9,1,3.9,1.8,6,2.6c0.6,0.2,1.2,0.4,1.9,0.6c-2.2,0.7-4.3,1.3-6.6,1.8C40.7,81.8,39.1,81.1,37.7,80.2z"
			/>
	</g>
	<g>
		<g>
			<path class="st4" d="M55.9,46.3v-5.3c0-3.7-1.7-5.1-1.7-8.2c0-2.3,2.2-3.2,5.7-3.2h10.2c5.1,0,9.3,3.8,9.3,8.4s-4.2,8.4-9.3,8.4
				H64c0.1,3.5,1.7,5,1.7,7.9c0,2.4-2.2,3.2-5.7,3.2c-3.5,0-5.7-0.8-5.7-3.2C54.2,51.5,55.9,50,55.9,46.3z M64,42.4
				c0,1.2,1.4,1.7,2.9,1.3c2.6-0.8,4.4-3,4.4-5.6c0-2.6-1.8-4.8-4.4-5.6c-1.5-0.4-2.9,0.1-2.9,1.3V42.4z"/>
		</g>
	</g>
	<g>
		<g>
			<path class="st4" d="M80.7,46.3v-5.3c0-3.7-1.7-5.1-1.7-8.1c0-2.4,2.2-3.3,5.7-3.3c3.5,0,5.7,0.9,5.7,3.3c0,3-1.7,4.4-1.7,8.1
				v5.3c0,3.7,1.7,5.1,1.7,8.1c0,2.4-2.2,3.2-5.7,3.2c-3.5,0-5.7-0.8-5.7-3.2C79,51.5,80.7,50,80.7,46.3z"/>
		</g>
	</g>
	<g>
		<g>
			<path class="st4" d="M95.1,46.9v-6.8c0-3.7-1.7-4.8-1.7-7.6c0-2,1.4-2.8,3.5-2.8h1.7c4.6,0,10.5,8.7,14.3,14
				c0.9,1.4,3.6,4.7,3.5,4.5c0.1-0.3,0.1-0.5,0.1-0.9v-6.8c0-3.7-3.3-5.3-3.3-8c0-2,1.8-2.8,4.7-2.8c2.5,0,4.7,0.8,4.7,2.8
				c0,2.7-3.3,4.3-3.3,8v6.8c0,3.7,1.7,4.8,1.7,7.6c0,2-1.4,2.8-3.5,2.8h-1.7c-4.6,0-10.5-8.7-14.3-14c-0.9-1.1-3.6-4.5-3.6-4.5
				c-0.1,0.3-0.1,0.6-0.1,0.9v6.8c0,3.6,3.3,5.3,3.3,8c0,2-1.8,2.8-4.7,2.8c-2.5,0-4.7-0.8-4.7-2.8C91.8,52.2,95.1,50.5,95.1,46.9z"
				/>
		</g>
	</g>
	<g>
		<g>
			<path class="st4" d="M122,54.3c0.8-2.5,4.2-3.9,5.3-7l2.8-7.4c1-2.9,0.2-4.7,1.3-7.4c0.8-2.1,2.8-2.9,5.1-2.9
				c5.3,0,7,7.7,8.3,11.4l1.9,5.3c1.3,3.7,3.5,5.1,4.6,8.1c0.8,2.4-1.4,3.2-5,3.2s-6.1-0.8-6.9-3.2c-0.7-1.9-0.5-3.1-0.6-4.6h-9.2
				c-0.2,1.9,3,3.2,2.6,5.3c-0.3,1.6-2.4,2.6-5.8,2.6C123.9,57.7,121.2,56.7,122,54.3z M130.3,47.1h8.1l-2.2-6
				c-1.3-4.1-2.6-2.8-3.4-1L130.3,47.1z"/>
		</g>
	</g>
	<g>
		<g>
			<path class="st4" d="M56.3,77.6V73c0-3.2-1.4-4.5-1.4-7.1c0-2.1,1.9-2.8,4.9-2.8h5c3.1,0,4.6-0.1,5.5-0.3
				c7.1-1.5,7.3,6.9,3.9,6.9c-3.2,0-4.4-4.2-7.6-4.2c-1.9,0-3.3,0.8-3.3,2.7v5.4h1.3c2.3,0,3.6-2,5.8-2c1.9,0,2,1.3,2,3.2
				c0,1.9-0.1,3.3-2,3.3c-2.2,0-3.5-2.1-5.8-2.1h-1.3v1.6c0,3.2,1.5,4.5,1.5,7.1c0,2.1-1.9,2.8-5,2.8c-3.1,0-5-0.7-5-2.8
				C54.9,82.1,56.3,80.8,56.3,77.6z"/>
		</g>
	</g>
	<g>
		<g>
			<path class="st4" d="M78.7,73c0-3.2-1.4-4.5-1.4-7.1c0-2.1,1.9-2.8,4.9-2.8h5c3.1,0,4.6-0.1,5.5-0.3c7.1-1.5,7.3,6.9,3.9,6.9
				c-3.2,0-4.4-4.2-7.6-4.2c-1.9,0-3.3,0.8-3.3,2.7v5.4h1.6c2.3,0,3.6-2,5.8-2c1.9,0,2,1.3,2,3.2c0,1.9-0.1,3.3-2,3.3
				c-2.2,0-3.5-2.1-5.8-2.1h-1.6v6.3c0,2,1.4,2.7,3.3,2.7c3.2,0,4.4-4.2,7.6-4.2c3.4,0,3.2,8.4-3.9,6.9c-1-0.2-2.4-0.4-5.5-0.4h-5
				c-3,0-4.9-0.8-4.9-2.8c0-2.6,1.4-3.8,1.4-7.1V73z"/>
		</g>
	</g>
	<g>
		<g>
			<path class="st4" d="M101.4,74.5c-4.6-4.6,1-11.6,9.9-11.4c5,0.1,5.4,1.4,7.9,1.8c4,0.5,2.8,7.2-0.2,7.1c-3.5,0-3.8-6.3-8.6-6.4
				c-0.8,0-1.3,0.5-1.4,1.5c-0.2,4,6.6,5.3,10.2,8.2c0.3,0.3,0.7,0.5,0.9,0.8c4.6,4.6-1,11.6-9.9,11.4c-5-0.1-5.4-1.3-7.9-1.7
				c-3.8-0.6-2.8-7.2,0.2-7.1c3.5,0.1,3.8,6.4,8.6,6.5c0.8,0,1.3-0.5,1.4-1.5c0.2-4-6.6-5.4-10.2-8.2L101.4,74.5z"/>
		</g>
	</g>
	<g>
		<g>
			<path class="st4" d="M129,63.2c0.7,0.1,2.8,0.3,5.3,0.3h5.8c2.4,0,4.6-0.2,5.3-0.3c7.1-1.5,7.3,7.6,3.9,7.6c-3.2,0-5.3-4.9-8-4.9
				h-0.6c0,0.2,0,0.4,0,0.6v11.5c0,3.2,1.4,4.5,1.4,7.1c0,2.1-1.9,2.8-5,2.8c-3.1,0-5-0.7-5-2.8c0-2.6,1.5-3.8,1.5-7.1V66.6
				c0-0.2,0-0.4,0-0.6h-0.6c-2.7,0-4.8,4.9-8,4.9C121.7,70.9,121.8,61.8,129,63.2z"/>
		</g>
	</g>
	<g>
		<path class="st4" d="M95.1,25.8c-0.9-4.1,0.3-3.3,1.1-3.8c0.9-0.3,2.1-0.3,3.3,0c3,0.4,4.4,4.1,7.5,3.8c0.9-0.1,1.7-0.7,2.1-1.5
			c0.4-0.7,0.5-1.5,1-2c0.2-0.2,0.5-0.4,0.8-0.6c0.5,0,1.3,1,1.8,1.5c0.4,0.5,0.9,1.1,1.2,1.6c0.4,0.9,0.9,2.3,1,3.2
			c0.1,0.7,0,1-0.2,1.2c-1.6,0.9-3.5,0.7-5.3-0.2c-1.2-0.6-2-1.5-2.8-2c-1.4-1.2-3.1-1.5-4.8-1.6c-1.8-0.1-1.9,1.6-3.2,2.3
			C97.8,27.8,97.5,29.3,95.1,25.8C95.1,25.8,95.1,25.8,95.1,25.8L95.1,25.8z"/>
	</g>
</g>
</svg>
