<?xml version="1.0" encoding="utf-8"?>
<!-- Generator: Adobe Illustrator 28.3.0, SVG Export Plug-In . SVG Version: 6.00 Build 0)  -->
<svg version="1.1" id="Capa_1" xmlns="http://www.w3.org/2000/svg" xmlns:xlink="http://www.w3.org/1999/xlink" x="0px" y="0px"
	 viewBox="0 0 1030.87 400" style="enable-background:new 0 0 1030.87 400;" xml:space="preserve">
<style type="text/css">
	.st0{fill:#EF9B01;}
	.st1{fill:#38AA45;}
	.st2{fill:#5CB35C;}
	.st3{fill:#F9B513;}
	.st4{fill:#E79403;}
</style>
<g>
	<path class="st0" d="M794.75,264.07c0.09,0.09,0.18,0.17,0.27,0.26c-0.09-0.12-0.17-0.23-0.26-0.35
		C794.76,264.01,794.76,264.04,794.75,264.07z"/>
	<g>
		<path class="st1" d="M274.56,50.12c-0.81,0.02-1.62,0.26-2.25,0.78c-3.91,3.28-11.61,12.16-13.93,31.28l0.02,0.07
			c8.86,8.07,15.94,19.57,16.15,35.74V50.12z"/>
		<path class="st2" d="M274.56,142.41v-24.41c-0.21-16.18-7.29-27.67-16.15-35.74c-8.47-7.72-18.5-12.36-25.61-14.86
			c-1.46-0.51-3.11,0.1-3.7,1.36c-0.35,0.76-0.25,1.63,0.28,2.3c6.13,8.4,10.05,17.86,11.5,27.72
			C257.07,106.51,274.14,120.07,274.56,142.41z"/>
		<path class="st1" d="M271.38,157.24c1.08-0.02,2.08-0.11,3.18-0.11v-14.73c-0.42-22.33-17.49-35.89-33.68-43.64
			c-6.27-3.01-12.87-5.46-19.7-7.33c-1.48-0.42-3.06,0.28-3.54,1.56c-0.29,0.77-0.12,1.61,0.45,2.25
			c8.36,10.04,14.84,21.15,19.21,32.93l0.25,0.23C250.99,134.37,265.03,143.56,271.38,157.24z"/>
		<path class="st2" d="M251.53,158.77c5.3-0.81,11.1-1.22,17.18-1.43c0.89-0.03,1.77-0.08,2.67-0.09
			c-6.35-13.68-20.39-22.87-33.83-28.84c-7.05-3.13-13.93-5.44-19.37-6.95c-1.49-0.41-3.07,0.3-3.55,1.58
			c-0.32,0.86-0.06,1.79,0.65,2.44c11.11,10.2,19.42,22.41,24.53,35.7c2.95-0.77,6.01-1.44,9.24-2
			C249.87,159.03,250.7,158.9,251.53,158.77z"/>
		<path class="st3" d="M195.36,253.57c4.87-0.96,9.73-1.95,14.58-2.99c6.84-1.46,13.65-3.01,20.43-4.68
			c-10.4-5.68-20.34-11.99-29.78-18.82c-2.56-1.85-5.08-3.75-7.57-5.69h0c-4.04,0.77-8.08,1.52-12.13,2.26
			c-1.26,5.48-2.15,11-2.76,16.44c4.02,3.43,8.16,6.75,12.42,9.95C192.14,251.24,193.74,252.41,195.36,253.57z"/>
		<path class="st3" d="M185.39,247.86c-2.52-1.98-5-4-7.44-6.05c-0.54,5.22-0.83,10.34-0.98,15.25c5.51-1.01,11.01-2.04,16.49-3.11
			C190.73,251.96,188.03,249.93,185.39,247.86z"/>
		<path class="st3" d="M183.63,213.75c-0.92,2.8-1.72,5.63-2.41,8.47c3.46-0.63,6.93-1.27,10.39-1.93
			C188.91,218.16,186.25,215.98,183.63,213.75z"/>
		<path class="st3" d="M231.71,180.3L231.71,180.3c5.46-1.31,10.89-2.7,16.29-4.18c8.29-2.28,16.5-4.77,24.58-7.55
			c-4.45-1.58-8.85-3.24-13.2-5c-0.67-0.27-1.32-0.57-1.98-0.85c-2.8-1.15-5.59-2.32-8.34-3.56c-3.23,0.56-6.29,1.23-9.24,2
			c-9.26,2.4-17.18,5.79-23.93,9.95c1.27,0.8,2.55,1.58,3.84,2.36C223.65,175.84,227.64,178.12,231.71,180.3z"/>
		<path class="st3" d="M208.73,216.91c6.3-1.3,12.59-2.68,18.85-4.16c-7.17-4.06-14.12-8.41-20.84-13.01
			c-4.09-2.8-8.09-5.7-11.99-8.69c-4.62,6.6-8.06,13.79-10.62,21.24c3.05,2.61,6.16,5.16,9.35,7.65
			C198.56,218.97,203.65,217.96,208.73,216.91z"/>
		<path class="st3" d="M229.68,180.79c-5.14-2.8-10.18-5.75-15.1-8.84c-6.97,4.49-12.65,9.81-17.3,15.7
			c2.75-0.53,5.51-1.07,8.26-1.62C213.62,184.41,221.68,182.68,229.68,180.79z"/>
		<path class="st3" d="M229.56,212.28c8.03-1.92,16-3.99,23.9-6.29c6.44-1.87,12.83-3.89,19.13-6.08
			c-7.01-2.51-13.91-5.24-20.67-8.21c-6.98-3.06-13.81-6.39-20.46-9.96c-10.08,2.41-20.25,4.56-30.46,6.55
			c-1.66,0.32-3.31,0.64-4.97,0.96c-0.16,0.21-0.32,0.43-0.48,0.65c5.38,4.13,10.93,8.08,16.65,11.84
			C217.84,205.44,223.63,208.96,229.56,212.28z"/>
		<path class="st3" d="M198.5,283.77c6-1.18,11.97-2.41,17.94-3.72c4.9-1.07,9.79-2.19,14.67-3.37c-2.75-1.36-5.48-2.77-8.18-4.22
			c-9.76-5.26-19.1-11.11-27.97-17.45c-6,1.18-12.01,2.31-18.03,3.41c-0.07,2.74-0.1,5.41-0.1,7.98c2.13,1.9,4.29,3.76,6.5,5.6
			C188.22,276.09,193.27,280.02,198.5,283.77z"/>
		<path class="st3" d="M243.78,178.66c-3.41,0.9-6.84,1.77-10.28,2.6c7.92,4.19,16.09,8.05,24.46,11.53c5.45,2.28,11,4.39,16.6,6.37
			v-29.85C264.47,172.84,254.18,175.92,243.78,178.66z"/>
		<path class="st3" d="M248.91,208.69c-5.83,1.63-11.7,3.14-17.6,4.56c6.62,3.65,13.42,7.05,20.39,10.2
			c7.46,3.37,15.1,6.43,22.86,9.23v-32.02C266.14,203.62,257.57,206.28,248.91,208.69z"/>
		<path class="st3" d="M252.68,241.3c-6.14,1.81-12.32,3.48-18.54,5.05c3.54,1.88,7.14,3.69,10.78,5.42
			c9.6,4.56,19.51,8.58,29.64,12.16v-29.75C267.36,236.77,260.06,239.13,252.68,241.3z"/>
		<path class="st3" d="M259.3,270.43c-7.99,2.44-16.06,4.64-24.2,6.66c12.66,6.04,25.91,11.14,39.46,15.49v-27.16
			C269.52,267.2,264.43,268.87,259.3,270.43z"/>
		<path class="st3" d="M233.79,304.98c11.6,5.75,23.73,10.7,36.16,14.97c1.53,0.53,3.07,1.04,4.61,1.55v-27.45
			C261.2,298.32,247.56,301.86,233.79,304.98z"/>
		<path class="st3" d="M232.36,245.4c8.42-2.1,16.78-4.39,25.03-6.94c5.12-1.58,10.21-3.25,15.24-5.04
			c-9.21-3.37-18.24-7.1-27.01-11.27c-5.55-2.64-10.99-5.45-16.31-8.42c-8.44,2.01-16.94,3.83-25.47,5.55
			c-2.98,0.6-5.97,1.19-8.97,1.76c3.61,2.79,7.3,5.5,11.07,8.12C214.37,235.02,223.19,240.46,232.36,245.4L232.36,245.4z"/>
		<path class="st3" d="M240.41,332.59c7.32,3.19,14.82,6.09,22.43,8.73c3.88,1.35,7.79,2.63,11.73,3.85v-22.2
			C263.36,326.63,251.94,329.78,240.41,332.59z"/>
		<path class="st3" d="M177.57,268.98c-0.25-0.22-0.49-0.43-0.73-0.65c0.08,6.82,0.73,13.21,1.89,19.19
			c5.97-1.09,11.93-2.21,17.88-3.38C189.99,279.35,183.64,274.28,177.57,268.98z"/>
		<path class="st3" d="M262.82,318.86c-10.69-3.91-21.12-8.36-31.16-13.4c-1.51,0.34-3.02,0.67-4.53,1
			c-8.54,1.85-17.11,3.56-25.71,5.2c4.17,2.73,8.43,5.36,12.8,7.85c7.77,4.45,15.85,8.5,24.14,12.18c11.5-2.77,22.91-5.86,34.1-9.46
			C269.23,321.15,266.01,320.03,262.82,318.86z"/>
		<path class="st3" d="M233.19,276.17c10.37-2.55,20.65-5.38,30.76-8.62c2.89-0.92,5.77-1.89,8.64-2.88
			c-11.52-4.13-22.76-8.84-33.56-14.24c-2.32-1.16-4.62-2.35-6.9-3.58h0c-9.03,2.25-18.13,4.28-27.27,6.17
			c-2.67,0.55-5.33,1.09-8,1.62c10.08,7.14,20.76,13.64,31.99,19.37C230.28,274.74,231.73,275.47,233.19,276.17L233.19,276.17z"/>
		<path class="st3" d="M232.25,303.95c13.55-3.05,26.99-6.51,40.16-10.63c-1.43-0.47-2.86-0.94-4.29-1.43
			c-12.05-4.09-23.82-8.81-35.12-14.28c-7.22,1.77-14.48,3.4-21.77,4.94c-3.73,0.79-7.48,1.55-11.22,2.29
			c7.03,4.97,14.36,9.63,21.98,13.91c3.25,1.83,6.56,3.59,9.9,5.28C232.01,304,232.13,303.98,232.25,303.95z"/>
		<path class="st3" d="M229.77,304.5c-4.73-2.42-9.36-4.98-13.89-7.68c-6.12-3.64-12.04-7.52-17.77-11.61
			c-6.36,1.25-12.73,2.45-19.11,3.62c0.57,2.75,1.26,5.41,2.05,7.98v0c6.01,4.83,12.27,9.44,18.77,13.78
			C209.83,308.69,219.83,306.7,229.77,304.5z"/>
		<path class="st3" d="M236.17,332.22c-9.75-4.39-19.18-9.3-28.19-14.77c-2.88-1.75-5.73-3.56-8.52-5.41
			c-3.59,0.68-7.19,1.35-10.79,2.01c5.77,9.63,13.43,17.48,22.55,23.62c7.99-1.62,15.95-3.34,23.87-5.19
			C235.44,332.39,235.8,332.3,236.17,332.22z"/>
		<path class="st3" d="M252.03,352.96c7.23,1.15,14.78,1.72,22.53,1.72v-8.04C267.13,348.94,259.61,351.03,252.03,352.96z"/>
		<path class="st3" d="M181.84,299.27c1.66,4.85,3.7,9.36,6.1,13.54c3.3-0.61,6.61-1.22,9.91-1.85
			C192.34,307.25,187,303.35,181.84,299.27z"/>
		<path class="st3" d="M255.5,340.13c-5.86-2.17-11.63-4.5-17.3-7.01c-2.83,0.68-5.67,1.34-8.52,1.98
			c-5.61,1.26-11.24,2.46-16.88,3.61c10.41,6.67,22.6,11.2,35.94,13.68h0c7.94-1.98,15.82-4.13,23.61-6.5
			C266.68,344.11,261.06,342.19,255.5,340.13z"/>
		<path class="st3" d="M271.38,157.24c-0.91,0.02-1.78,0.06-2.67,0.09c-6.07,0.21-11.88,0.63-17.18,1.43
			c3.18,1.4,6.43,2.69,9.68,3.99c1.33,0.53,2.64,1.13,3.98,1.64c3.1,1.19,6.22,2.34,9.37,3.44v-10.71
			C273.46,157.14,272.46,157.22,271.38,157.24z"/>
		<path class="st4" d="M274.56,345.18c-3.93-1.22-7.84-2.5-11.73-3.85c-7.61-2.64-15.11-5.55-22.43-8.73
			c11.53-2.81,22.95-5.96,34.16-9.62v-1.47c-1.54-0.51-3.08-1.02-4.61-1.55c-12.43-4.27-24.56-9.22-36.16-14.97
			c13.77-3.12,27.41-6.67,40.77-10.93v-1.47c-13.55-4.35-26.8-9.45-39.46-15.49c8.14-2.02,16.21-4.22,24.2-6.66
			c5.13-1.57,10.22-3.23,15.26-5v-1.49c-10.13-3.58-20.04-7.61-29.64-12.16c-3.65-1.73-7.24-3.54-10.78-5.42
			c6.22-1.57,12.4-3.25,18.54-5.05c7.38-2.17,14.68-4.54,21.88-7.12v-1.5c-7.76-2.8-15.4-5.87-22.86-9.23
			c-6.97-3.14-13.76-6.55-20.39-10.2c5.9-1.42,11.77-2.94,17.6-4.56c8.66-2.41,17.22-5.07,25.65-8.03v-1.49
			c-5.6-1.98-11.15-4.1-16.6-6.37c-8.37-3.49-16.54-7.34-24.46-11.53c3.43-0.83,6.86-1.7,10.28-2.6c10.4-2.74,20.69-5.82,30.78-9.34
			v-1.48c-3.14-1.1-6.27-2.24-9.37-3.44c-1.34-0.52-2.65-1.11-3.98-1.64c-3.24-1.3-6.49-2.59-9.68-3.99
			c-0.83,0.13-1.66,0.26-2.48,0.4c2.75,1.24,5.55,2.4,8.34,3.56c0.67,0.27,1.32,0.58,1.98,0.85c4.35,1.76,8.75,3.43,13.2,5
			c-8.08,2.78-16.3,5.27-24.58,7.55c-5.4,1.48-10.83,2.87-16.29,4.18h0c-4.06-2.19-8.06-4.46-11.98-6.83
			c-1.29-0.77-2.57-1.56-3.84-2.36c-0.44,0.27-0.87,0.54-1.3,0.83c4.92,3.09,9.96,6.04,15.1,8.84c-8,1.89-16.06,3.62-24.14,5.24
			c-2.75,0.55-5.51,1.09-8.26,1.62c-0.42,0.53-0.83,1.06-1.23,1.61c1.66-0.31,3.31-0.63,4.97-0.96c10.2-1.99,20.37-4.14,30.46-6.55
			c6.65,3.57,13.48,6.89,20.46,9.96c6.76,2.97,13.66,5.7,20.67,8.21c-6.3,2.19-12.69,4.21-19.13,6.08
			c-7.89,2.3-15.87,4.38-23.9,6.29c-5.94-3.32-11.73-6.84-17.35-10.54c-5.72-3.76-11.27-7.71-16.65-11.84
			c-0.28,0.38-0.55,0.76-0.82,1.15c3.91,2.99,7.91,5.89,11.99,8.69c6.72,4.6,13.67,8.95,20.84,13.01
			c-6.26,1.47-12.55,2.85-18.85,4.16c-5.08,1.05-10.16,2.06-15.26,3.03c-3.18-2.48-6.3-5.04-9.35-7.65
			c-0.17,0.49-0.33,0.97-0.49,1.46c2.61,2.23,5.27,4.41,7.98,6.54c-3.46,0.66-6.92,1.3-10.39,1.93c-0.12,0.48-0.23,0.95-0.34,1.43
			c4.05-0.74,8.09-1.48,12.13-2.26h0c2.48,1.94,5.01,3.84,7.57,5.69c9.43,6.83,19.37,13.14,29.78,18.82
			c-6.78,1.67-13.59,3.22-20.43,4.68c-4.85,1.04-9.71,2.03-14.58,2.99c-1.62-1.16-3.22-2.34-4.81-3.53
			c-4.26-3.21-8.39-6.53-12.42-9.95c-0.06,0.57-0.13,1.15-0.18,1.72c2.43,2.06,4.91,4.07,7.44,6.05c2.65,2.07,5.34,4.1,8.08,6.09
			c-5.49,1.07-10.99,2.1-16.49,3.11c-0.01,0.46-0.03,0.92-0.04,1.37c6.02-1.1,12.03-2.23,18.03-3.41
			c8.87,6.34,18.2,12.19,27.97,17.45c2.69,1.45,5.42,2.86,8.18,4.22c-4.87,1.18-9.76,2.3-14.67,3.37
			c-5.96,1.3-11.94,2.53-17.94,3.72c-5.22-3.75-10.28-7.68-15.17-11.76c-2.2-1.84-4.36-3.7-6.5-5.6v0.47c0,0.48,0,0.97,0.01,1.45
			c0.24,0.22,0.49,0.43,0.73,0.65c6.07,5.3,12.42,10.37,19.04,15.16c-5.95,1.16-11.91,2.28-17.88,3.38
			c0.08,0.44,0.17,0.88,0.27,1.32c6.38-1.17,12.75-2.37,19.11-3.62c5.73,4.09,11.65,7.97,17.77,11.61c4.53,2.7,9.17,5.26,13.89,7.68
			c-9.94,2.2-19.94,4.19-29.95,6.09c-6.5-4.33-12.76-8.94-18.77-13.78c0.25,0.82,0.52,1.64,0.8,2.45v0
			c5.16,4.08,10.5,7.98,16.01,11.7c-3.3,0.63-6.61,1.24-9.91,1.85c0.23,0.42,0.48,0.83,0.72,1.24c3.6-0.66,7.2-1.33,10.79-2.01
			c2.8,1.86,5.64,3.66,8.52,5.41c9.01,5.47,18.44,10.38,28.19,14.77c-0.36,0.09-0.72,0.17-1.08,0.26
			c-7.92,1.86-15.88,3.57-23.87,5.19c0.53,0.36,1.06,0.71,1.6,1.05c5.64-1.15,11.27-2.35,16.88-3.61c2.84-0.64,5.68-1.3,8.52-1.98
			c5.67,2.5,11.44,4.84,17.3,7.01c5.56,2.06,11.19,3.98,16.86,5.77c-7.79,2.37-15.67,4.52-23.61,6.5c1.09,0.2,2.18,0.39,3.28,0.56
			c0,0,0,0,0,0c7.57-1.93,15.09-4.02,22.53-6.32V345.18z M205.95,229.16c-3.77-2.63-7.46-5.33-11.07-8.12
			c2.99-0.57,5.99-1.16,8.97-1.76c8.53-1.71,17.03-3.54,25.47-5.55c5.32,2.97,10.76,5.78,16.31,8.42
			c8.77,4.17,17.79,7.91,27.01,11.27c-5.03,1.78-10.12,3.46-15.24,5.04c-8.26,2.54-16.61,4.84-25.03,6.94h0
			C223.19,240.46,214.37,235.02,205.95,229.16z M228.84,274.01c-11.22-5.73-21.9-12.23-31.99-19.37c2.67-0.52,5.34-1.06,8-1.62
			c9.14-1.89,18.24-3.92,27.27-6.17h0c2.28,1.23,4.58,2.42,6.9,3.58c10.8,5.4,22.04,10.11,33.56,14.24
			c-2.86,0.99-5.75,1.96-8.64,2.88c-10.11,3.23-20.39,6.07-30.76,8.62h0C231.73,275.47,230.28,274.74,228.84,274.01z M221.98,298.75
			c-7.62-4.28-14.94-8.94-21.98-13.91c3.75-0.74,7.49-1.51,11.22-2.29c7.29-1.53,14.55-3.17,21.77-4.94
			c11.3,5.47,23.07,10.18,35.12,14.28c1.43,0.49,2.86,0.96,4.29,1.43c-13.17,4.13-26.61,7.58-40.16,10.63
			c-0.12,0.03-0.24,0.05-0.36,0.08C228.54,302.34,225.23,300.58,221.98,298.75z M214.22,319.51c-4.37-2.5-8.63-5.12-12.8-7.85
			c8.6-1.64,17.17-3.35,25.71-5.2c1.51-0.33,3.02-0.66,4.53-1c10.03,5.04,20.46,9.49,31.16,13.4c3.19,1.17,6.4,2.29,9.64,3.37
			c-11.19,3.6-22.6,6.7-34.1,9.46C230.07,328.01,222,323.96,214.22,319.51z"/>
	</g>
	<g>
		<g>
			<path class="st0" d="M308.89,143.48v-27.46c0-19.25-8.6-26.61-8.6-42.46c0-12.17,11.47-16.7,29.82-16.7h53.05
				c26.38,0,48.18,19.81,48.18,43.87s-21.79,43.87-48.18,43.87h-32.12c0.57,18.4,8.89,25.76,8.89,41.04
				c0,12.45-11.47,16.7-29.82,16.7c-18.35,0-29.82-4.25-29.82-16.7C300.29,170.09,308.89,162.73,308.89,143.48z M351.04,122.82
				c0,6.23,7.17,9.06,14.91,6.79c13.48-3.96,22.94-15.85,22.94-28.87c0-13.59-9.18-24.91-22.94-28.87
				c-7.74-2.27-14.91,0.57-14.91,6.79V122.82z"/>
		</g>
	</g>
	<g>
		<g>
			<path class="st0" d="M437.93,143.48v-27.46c0-19.25-8.6-26.61-8.6-42.18c0-12.45,11.47-16.98,29.82-16.98
				c18.35,0,29.82,4.53,29.82,16.98c0,15.57-8.89,22.93-8.89,42.18v27.46c0,19.25,8.89,26.61,8.89,42.18
				c0,12.45-11.47,16.7-29.82,16.7c-18.35,0-29.82-4.25-29.82-16.7C429.33,170.09,437.93,162.73,437.93,143.48z"/>
		</g>
	</g>
	<g>
		<g>
			<path class="st0" d="M513.06,146.31v-35.38c0-19.25-8.89-25.19-8.89-39.35c0-10.47,7.46-14.72,18.35-14.72h8.6
				c24.09,0,54.77,45.29,74.56,72.75c4.88,7.08,18.93,24.34,18.35,23.5c0.29-1.42,0.29-2.83,0.29-4.53v-35.38
				c0-19.25-17.21-27.46-17.21-41.61c0-10.47,9.18-14.72,24.37-14.72c13.19,0,24.37,4.25,24.37,14.72
				c0,14.15-17.21,22.36-17.21,41.61v35.38c0,19.25,8.89,25.19,8.89,39.35c0,10.47-7.46,14.44-18.35,14.44h-8.6
				c-24.09,0-54.77-45.01-74.27-72.75c-4.59-5.94-18.64-23.21-18.64-23.49c-0.29,1.7-0.29,3.11-0.29,4.81v35.38
				c0,18.97,17.21,27.46,17.21,41.61c0,10.47-9.18,14.44-24.37,14.44c-13.19,0-24.37-3.96-24.37-14.44
				C495.86,173.77,513.06,165.27,513.06,146.31z"/>
		</g>
	</g>
	<g>
		<g>
			<path class="st0" d="M652.81,184.8c4.01-12.74,21.79-20.1,27.53-36.23l14.34-38.21c5.45-15,1.15-24.63,6.88-38.5
				c4.3-10.76,14.34-15,26.38-15c27.53,0,36.13,39.91,43.01,59.16l9.75,27.46c6.88,19.25,18.35,26.61,24.09,42.18
				c4.3,12.45-7.46,16.7-25.81,16.7c-18.35,0-31.54-4.25-35.84-16.7c-3.44-9.62-2.58-16.13-2.87-24.06h-47.89
				c-1.15,9.91,15.49,16.42,13.48,27.46c-1.43,8.49-12.33,13.3-30.11,13.3C662.85,202.35,648.51,197.26,652.81,184.8z
				 M696.11,147.44h41.87l-11.18-31.42c-6.88-21.51-13.48-14.72-17.49-5.09L696.11,147.44z"/>
		</g>
	</g>
	<g>
		<g>
			<path class="st0" d="M311.15,305.99v-23.88c0-16.74-7.48-23.14-7.48-36.68c0-10.83,9.73-14.52,25.44-14.77h26.19
				c15.96,0,23.69-0.74,28.68-1.72c36.91-7.63,37.91,35.94,20.2,35.94c-16.46,0-22.94-21.66-39.4-21.66
				c-9.73,0-16.96,3.94-16.96,14.28v28.06h6.73c11.97,0,18.7-10.58,30.18-10.58c9.73,0,10.22,6.89,10.22,16.74
				c0,9.85-0.5,16.99-10.22,16.99c-11.47,0-18.21-10.83-30.18-10.83h-6.73v8.12c0,16.74,7.73,23.14,7.73,36.68
				c0,10.83-9.97,14.52-25.94,14.52c-15.96,0-25.94-3.69-25.94-14.52C303.67,329.13,311.15,322.72,311.15,305.99z"/>
		</g>
	</g>
	<g>
		<g>
			<path class="st0" d="M427.86,282.11c0-16.74-7.48-23.14-7.48-36.68c0-10.83,9.73-14.52,25.44-14.77h26.18
				c15.96,0,23.69-0.74,28.68-1.72c36.91-7.63,37.91,35.94,20.2,35.94c-16.46,0-22.94-21.66-39.4-21.66
				c-9.73,0-16.96,3.94-16.96,14.28v28.06h8.48c11.97,0,18.7-10.58,30.17-10.58c9.73,0,10.47,6.89,10.47,16.74
				c0,9.85-0.75,16.99-10.47,16.99c-11.47,0-18.2-10.83-30.17-10.83h-8.48v32.74c0,10.34,7.23,14.28,16.96,14.28
				c16.46,0,22.94-21.66,39.4-21.66c17.71,0,16.71,43.57-20.2,35.94c-4.99-0.99-12.72-1.97-28.68-1.97h-26.18
				c-15.71,0-25.44-3.94-25.44-14.52c0-13.54,7.48-19.94,7.48-36.68V282.11z"/>
		</g>
	</g>
	<g>
		<g>
			<path class="st0" d="M545.81,289.74c-23.69-23.88,5.24-60.06,51.37-59.08c26.18,0.74,28.18,7.38,40.9,9.11
				c20.95,2.71,14.71,37.42-1,36.92c-18.2-0.25-19.95-32.99-44.89-33.48c-4.24-0.25-6.98,2.46-7.23,7.88
				c-1.25,20.68,34.42,27.57,52.87,42.83c1.75,1.48,3.49,2.71,4.74,4.19c23.69,24.12-4.99,60.31-51.37,59.08
				c-25.94-0.49-28.18-6.89-40.9-8.86c-19.95-2.95-14.47-37.42,1-37.17c18.46,0.49,19.95,33.23,44.89,33.72
				c4.24,0,6.98-2.46,7.48-7.88c1-20.68-34.42-27.82-53.12-42.83L545.81,289.74z"/>
		</g>
	</g>
	<g>
		<g>
			<path class="st0" d="M688.95,231.32c3.49,0.74,14.71,1.72,27.68,1.72h30.17c12.72,0,23.94-0.99,27.43-1.72
				c37.16-7.63,37.91,39.63,20.2,39.63c-16.46,0-27.43-25.35-41.4-25.35h-3.24c0,0.98,0.25,1.97,0.25,3.2v59.57
				c0,16.74,7.48,23.14,7.48,36.68c0,10.83-9.97,14.52-25.94,14.52c-15.96,0-25.94-3.69-25.94-14.52c0-13.54,7.73-19.94,7.73-36.68
				V248.8c0-1.23,0-2.22,0.25-3.2h-3.24c-14.21,0-25.19,25.35-41.65,25.35C651.05,270.95,651.8,223.69,688.95,231.32z"/>
		</g>
	</g>
	<g>
		<path class="st0" d="M512.69,36.63c0.71-6.61,4.38-7.82,9.84-9.93c17.15-6.31,24.44-0.27,39.03,7.66
			c7.35,4.03,16.39,5.99,24.32,2.65c3.65-1.48,6.62-3.63,10.03-5.59c1.69-1,3.44-1.93,5.27-2.84c0.94-0.39,2.06-0.49,3.48-0.06
			c1.39,0.46,3.34,1.26,5.46,3.24c0.49,4.2,0.31,7.26-2.49,9.23c-6.28,3.51-13.98,5.18-21.19,3.87
			c-11.49-2.21-20.54-8.39-31.42-11.72c-3.94-1.29-7.98-2.77-12.14-2.8c-6,0.16-10.79,3.4-16.33,5.9c-2.98,1.2-5.81,3.41-9.32,2.65
			c-1.58-0.33-3-0.99-4.48-2.1C512.76,36.78,512.69,36.63,512.69,36.63L512.69,36.63z"/>
	</g>
</g>
</svg>
