<?xml version="1.0" encoding="utf-8"?>
<!-- Generator: Adobe Illustrator 28.3.0, SVG Export Plug-In . SVG Version: 6.00 Build 0)  -->
<svg version="1.1" id="Capa_1" xmlns="http://www.w3.org/2000/svg" xmlns:xlink="http://www.w3.org/1999/xlink" x="0px" y="0px"
	 viewBox="0 0 96.74 58.53" style="enable-background:new 0 0 96.74 58.53;" xml:space="preserve">
<style type="text/css">
	.st0{fill:#EF9B01;}
	.st1{fill:#38AA45;}
	.st2{fill:#5CB35C;}
	.st3{fill:#F9B513;}
	.st4{fill:#E79403;}
</style>
<g>
	<path class="st0" d="M89.3,40.5c0.01,0.01,0.02,0.02,0.04,0.03c-0.01-0.02-0.02-0.03-0.03-0.05C89.3,40.49,89.3,40.5,89.3,40.5z"/>
	<g>
		<path class="st1" d="M18.99,11.58c-0.11,0-0.22,0.04-0.3,0.11c-0.53,0.44-1.57,1.64-1.88,4.23l0,0.01
			c1.2,1.09,2.15,2.64,2.18,4.83V11.58z"/>
		<path class="st2" d="M18.99,24.05v-3.3c-0.03-2.19-0.99-3.74-2.18-4.83c-1.15-1.04-2.5-1.67-3.46-2.01
			c-0.2-0.07-0.42,0.01-0.5,0.18c-0.05,0.1-0.03,0.22,0.04,0.31c0.83,1.14,1.36,2.41,1.56,3.75C16.63,19.2,18.93,21.04,18.99,24.05z
			"/>
		<path class="st1" d="M18.56,26.06c0.15,0,0.28-0.01,0.43-0.01v-1.99c-0.06-3.02-2.36-4.85-4.55-5.9
			c-0.85-0.41-1.74-0.74-2.66-0.99c-0.2-0.06-0.41,0.04-0.48,0.21c-0.04,0.1-0.02,0.22,0.06,0.3c1.13,1.36,2.01,2.86,2.6,4.45
			l0.03,0.03C15.8,22.97,17.7,24.21,18.56,26.06z"/>
		<path class="st2" d="M15.88,26.27c0.72-0.11,1.5-0.17,2.32-0.19c0.12,0,0.24-0.01,0.36-0.01c-0.86-1.85-2.76-3.09-4.57-3.9
			c-0.95-0.42-1.88-0.73-2.62-0.94c-0.2-0.06-0.42,0.04-0.48,0.21c-0.04,0.12-0.01,0.24,0.09,0.33c1.5,1.38,2.63,3.03,3.32,4.83
			c0.4-0.1,0.81-0.19,1.25-0.27C15.65,26.3,15.77,26.28,15.88,26.27z"/>
		<path class="st3" d="M8.28,39.08c0.66-0.13,1.32-0.26,1.97-0.4c0.92-0.2,1.85-0.41,2.76-0.63c-1.41-0.77-2.75-1.62-4.02-2.54
			c-0.35-0.25-0.69-0.51-1.02-0.77h0c-0.55,0.1-1.09,0.21-1.64,0.31c-0.17,0.74-0.29,1.49-0.37,2.22c0.54,0.46,1.1,0.91,1.68,1.35
			C7.85,38.76,8.07,38.92,8.28,39.08z"/>
		<path class="st3" d="M6.94,38.31c-0.34-0.27-0.68-0.54-1.01-0.82c-0.07,0.7-0.11,1.4-0.13,2.06c0.74-0.14,1.49-0.28,2.23-0.42
			C7.66,38.86,7.29,38.59,6.94,38.31z"/>
		<path class="st3" d="M6.7,33.7c-0.12,0.38-0.23,0.76-0.33,1.14c0.47-0.09,0.94-0.17,1.4-0.26C7.41,34.29,7.05,34,6.7,33.7z"/>
		<path class="st3" d="M13.2,29.18L13.2,29.18c0.74-0.18,1.47-0.36,2.2-0.56c1.12-0.31,2.23-0.64,3.32-1.02
			c-0.6-0.21-1.2-0.44-1.78-0.68c-0.09-0.04-0.18-0.08-0.27-0.11c-0.38-0.16-0.76-0.31-1.13-0.48c-0.44,0.08-0.85,0.17-1.25,0.27
			c-1.25,0.33-2.32,0.78-3.24,1.35c0.17,0.11,0.35,0.21,0.52,0.32C12.11,28.57,12.65,28.88,13.2,29.18z"/>
		<path class="st3" d="M10.09,34.12c0.85-0.18,1.7-0.36,2.55-0.56c-0.97-0.55-1.91-1.14-2.82-1.76c-0.55-0.38-1.09-0.77-1.62-1.17
			c-0.62,0.89-1.09,1.86-1.44,2.87c0.41,0.35,0.83,0.7,1.26,1.03C8.72,34.4,9.41,34.27,10.09,34.12z"/>
		<path class="st3" d="M12.92,29.24c-0.7-0.38-1.38-0.78-2.04-1.19c-0.94,0.61-1.71,1.33-2.34,2.12c0.37-0.07,0.74-0.14,1.12-0.22
			C10.75,29.73,11.84,29.5,12.92,29.24z"/>
		<path class="st3" d="M12.91,33.5c1.09-0.26,2.16-0.54,3.23-0.85c0.87-0.25,1.73-0.53,2.59-0.82c-0.95-0.34-1.88-0.71-2.79-1.11
			c-0.94-0.41-1.87-0.86-2.77-1.35c-1.36,0.33-2.74,0.62-4.12,0.89c-0.22,0.04-0.45,0.09-0.67,0.13c-0.02,0.03-0.04,0.06-0.06,0.09
			c0.73,0.56,1.48,1.09,2.25,1.6C11.32,32.57,12.11,33.05,12.91,33.5z"/>
		<path class="st3" d="M8.71,43.16c0.81-0.16,1.62-0.33,2.42-0.5c0.66-0.14,1.32-0.3,1.98-0.46c-0.37-0.18-0.74-0.37-1.11-0.57
			c-1.32-0.71-2.58-1.5-3.78-2.36c-0.81,0.16-1.62,0.31-2.44,0.46c-0.01,0.37-0.01,0.73-0.01,1.08c0.29,0.26,0.58,0.51,0.88,0.76
			C7.32,42.12,8,42.66,8.71,43.16z"/>
		<path class="st3" d="M14.83,28.96c-0.46,0.12-0.92,0.24-1.39,0.35c1.07,0.57,2.17,1.09,3.31,1.56c0.74,0.31,1.49,0.59,2.24,0.86
			v-4.03C17.63,28.17,16.24,28.58,14.83,28.96z"/>
		<path class="st3" d="M15.52,33.01c-0.79,0.22-1.58,0.42-2.38,0.62c0.9,0.49,1.81,0.95,2.76,1.38c1.01,0.46,2.04,0.87,3.09,1.25
			v-4.33C17.85,32.33,16.69,32.69,15.52,33.01z"/>
		<path class="st3" d="M16.03,37.42c-0.83,0.24-1.67,0.47-2.51,0.68c0.48,0.25,0.96,0.5,1.46,0.73c1.3,0.62,2.64,1.16,4.01,1.64
			v-4.02C18.02,36.81,17.03,37.13,16.03,37.42z"/>
		<path class="st3" d="M16.93,41.36c-1.08,0.33-2.17,0.63-3.27,0.9c1.71,0.82,3.5,1.51,5.33,2.09v-3.67
			C18.31,40.92,17.62,41.15,16.93,41.36z"/>
		<path class="st3" d="M13.48,46.03c1.57,0.78,3.21,1.45,4.89,2.02c0.21,0.07,0.41,0.14,0.62,0.21v-3.71
			C17.18,45.13,15.34,45.61,13.48,46.03z"/>
		<path class="st3" d="M13.29,37.98c1.14-0.28,2.27-0.59,3.38-0.94c0.69-0.21,1.38-0.44,2.06-0.68c-1.25-0.46-2.47-0.96-3.65-1.52
			c-0.75-0.36-1.49-0.74-2.21-1.14c-1.14,0.27-2.29,0.52-3.44,0.75c-0.4,0.08-0.81,0.16-1.21,0.24c0.49,0.38,0.99,0.74,1.5,1.1
			C10.85,36.57,12.05,37.31,13.29,37.98L13.29,37.98z"/>
		<path class="st3" d="M14.37,49.76c0.99,0.43,2,0.82,3.03,1.18c0.52,0.18,1.05,0.36,1.58,0.52v-3
			C17.48,48.96,15.93,49.38,14.37,49.76z"/>
		<path class="st3" d="M5.88,41.16c-0.03-0.03-0.07-0.06-0.1-0.09c0.01,0.92,0.1,1.79,0.26,2.59c0.81-0.15,1.61-0.3,2.42-0.46
			C7.56,42.56,6.7,41.88,5.88,41.16z"/>
		<path class="st3" d="M17.4,47.91c-1.45-0.53-2.86-1.13-4.21-1.81c-0.2,0.05-0.41,0.09-0.61,0.13c-1.15,0.25-2.31,0.48-3.48,0.7
			c0.56,0.37,1.14,0.72,1.73,1.06c1.05,0.6,2.14,1.15,3.26,1.65c1.55-0.37,3.1-0.79,4.61-1.28C18.27,48.22,17.84,48.06,17.4,47.91z"
			/>
		<path class="st3" d="M13.4,42.14c1.4-0.34,2.79-0.73,4.16-1.16c0.39-0.12,0.78-0.25,1.17-0.39c-1.56-0.56-3.08-1.19-4.54-1.93
			c-0.31-0.16-0.62-0.32-0.93-0.48h0c-1.22,0.3-2.45,0.58-3.69,0.83c-0.36,0.07-0.72,0.15-1.08,0.22c1.36,0.97,2.81,1.84,4.32,2.62
			C13.01,41.94,13.2,42.04,13.4,42.14L13.4,42.14z"/>
		<path class="st3" d="M13.27,45.89c1.83-0.41,3.65-0.88,5.43-1.44c-0.19-0.06-0.39-0.13-0.58-0.19c-1.63-0.55-3.22-1.19-4.75-1.93
			c-0.98,0.24-1.96,0.46-2.94,0.67c-0.5,0.11-1.01,0.21-1.52,0.31c0.95,0.67,1.94,1.3,2.97,1.88c0.44,0.25,0.89,0.48,1.34,0.71
			C13.24,45.9,13.26,45.89,13.27,45.89z"/>
		<path class="st3" d="M12.94,45.96c-0.64-0.33-1.27-0.67-1.88-1.04c-0.83-0.49-1.63-1.02-2.4-1.57c-0.86,0.17-1.72,0.33-2.58,0.49
			c0.08,0.37,0.17,0.73,0.28,1.08v0c0.81,0.65,1.66,1.28,2.54,1.86C10.24,46.53,11.59,46.26,12.94,45.96z"/>
		<path class="st3" d="M13.8,49.71c-1.32-0.59-2.59-1.26-3.81-2c-0.39-0.24-0.77-0.48-1.15-0.73c-0.49,0.09-0.97,0.18-1.46,0.27
			c0.78,1.3,1.82,2.36,3.05,3.19c1.08-0.22,2.16-0.45,3.23-0.7C13.7,49.73,13.75,49.72,13.8,49.71z"/>
		<path class="st3" d="M15.95,52.51c0.98,0.16,2,0.23,3.04,0.23v-1.09C17.99,51.97,16.97,52.25,15.95,52.51z"/>
		<path class="st3" d="M6.46,45.26c0.22,0.66,0.5,1.26,0.82,1.83c0.45-0.08,0.89-0.16,1.34-0.25C7.88,46.34,7.16,45.81,6.46,45.26z"
			/>
		<path class="st3" d="M16.41,50.78c-0.79-0.29-1.57-0.61-2.34-0.95c-0.38,0.09-0.77,0.18-1.15,0.27c-0.76,0.17-1.52,0.33-2.28,0.49
			c1.41,0.9,3.06,1.51,4.86,1.85h0c1.07-0.27,2.14-0.56,3.19-0.88C17.93,51.32,17.17,51.06,16.41,50.78z"/>
		<path class="st3" d="M18.56,26.06c-0.12,0-0.24,0.01-0.36,0.01c-0.82,0.03-1.61,0.08-2.32,0.19c0.43,0.19,0.87,0.36,1.31,0.54
			c0.18,0.07,0.36,0.15,0.54,0.22c0.42,0.16,0.84,0.32,1.27,0.46v-1.45C18.84,26.05,18.71,26.06,18.56,26.06z"/>
		<path class="st4" d="M18.99,51.46c-0.53-0.17-1.06-0.34-1.58-0.52c-1.03-0.36-2.04-0.75-3.03-1.18c1.56-0.38,3.1-0.81,4.62-1.3
			v-0.2c-0.21-0.07-0.42-0.14-0.62-0.21c-1.68-0.58-3.32-1.25-4.89-2.02c1.86-0.42,3.71-0.9,5.51-1.48v-0.2
			c-1.83-0.59-3.62-1.28-5.33-2.09c1.1-0.27,2.19-0.57,3.27-0.9c0.69-0.21,1.38-0.44,2.06-0.68v-0.2c-1.37-0.48-2.71-1.03-4.01-1.64
			c-0.49-0.23-0.98-0.48-1.46-0.73c0.84-0.21,1.68-0.44,2.51-0.68c1-0.29,1.98-0.61,2.96-0.96v-0.2c-1.05-0.38-2.08-0.79-3.09-1.25
			c-0.94-0.42-1.86-0.89-2.76-1.38c0.8-0.19,1.59-0.4,2.38-0.62c1.17-0.33,2.33-0.69,3.47-1.09v-0.2c-0.76-0.27-1.51-0.55-2.24-0.86
			c-1.13-0.47-2.24-0.99-3.31-1.56c0.46-0.11,0.93-0.23,1.39-0.35c1.41-0.37,2.8-0.79,4.16-1.26v-0.2c-0.43-0.15-0.85-0.3-1.27-0.46
			c-0.18-0.07-0.36-0.15-0.54-0.22c-0.44-0.18-0.88-0.35-1.31-0.54c-0.11,0.02-0.22,0.04-0.33,0.05c0.37,0.17,0.75,0.32,1.13,0.48
			c0.09,0.04,0.18,0.08,0.27,0.11c0.59,0.24,1.18,0.46,1.78,0.68c-1.09,0.38-2.2,0.71-3.32,1.02c-0.73,0.2-1.46,0.39-2.2,0.56h0
			c-0.55-0.3-1.09-0.6-1.62-0.92c-0.17-0.1-0.35-0.21-0.52-0.32c-0.06,0.04-0.12,0.07-0.18,0.11c0.67,0.42,1.35,0.82,2.04,1.19
			c-1.08,0.26-2.17,0.49-3.26,0.71c-0.37,0.07-0.74,0.15-1.12,0.22c-0.06,0.07-0.11,0.14-0.17,0.22c0.22-0.04,0.45-0.09,0.67-0.13
			c1.38-0.27,2.75-0.56,4.12-0.89c0.9,0.48,1.82,0.93,2.77,1.35c0.91,0.4,1.85,0.77,2.79,1.11c-0.85,0.3-1.72,0.57-2.59,0.82
			c-1.07,0.31-2.15,0.59-3.23,0.85c-0.8-0.45-1.59-0.92-2.35-1.42c-0.77-0.51-1.52-1.04-2.25-1.6c-0.04,0.05-0.07,0.1-0.11,0.16
			c0.53,0.4,1.07,0.8,1.62,1.17c0.91,0.62,1.85,1.21,2.82,1.76c-0.85,0.2-1.7,0.39-2.55,0.56c-0.69,0.14-1.37,0.28-2.06,0.41
			C7.6,34.2,7.18,33.85,6.77,33.5c-0.02,0.07-0.04,0.13-0.07,0.2c0.35,0.3,0.71,0.6,1.08,0.88c-0.47,0.09-0.94,0.18-1.4,0.26
			c-0.02,0.06-0.03,0.13-0.05,0.19c0.55-0.1,1.09-0.2,1.64-0.31h0c0.34,0.26,0.68,0.52,1.02,0.77c1.27,0.92,2.62,1.78,4.02,2.54
			c-0.92,0.23-1.84,0.43-2.76,0.63c-0.66,0.14-1.31,0.27-1.97,0.4c-0.22-0.16-0.44-0.32-0.65-0.48c-0.58-0.43-1.13-0.88-1.68-1.35
			c-0.01,0.08-0.02,0.16-0.02,0.23c0.33,0.28,0.66,0.55,1.01,0.82c0.36,0.28,0.72,0.55,1.09,0.82c-0.74,0.15-1.49,0.28-2.23,0.42
			c0,0.06,0,0.12-0.01,0.19c0.81-0.15,1.63-0.3,2.44-0.46c1.2,0.86,2.46,1.65,3.78,2.36c0.36,0.2,0.73,0.39,1.11,0.57
			c-0.66,0.16-1.32,0.31-1.98,0.46c-0.81,0.18-1.61,0.34-2.42,0.5C8,42.66,7.32,42.12,6.66,41.57c-0.3-0.25-0.59-0.5-0.88-0.76v0.06
			c0,0.07,0,0.13,0,0.2c0.03,0.03,0.07,0.06,0.1,0.09c0.82,0.72,1.68,1.4,2.57,2.05c-0.8,0.16-1.61,0.31-2.42,0.46
			c0.01,0.06,0.02,0.12,0.04,0.18c0.86-0.16,1.72-0.32,2.58-0.49c0.77,0.55,1.58,1.08,2.4,1.57c0.61,0.36,1.24,0.71,1.88,1.04
			c-1.34,0.3-2.69,0.57-4.05,0.82c-0.88-0.59-1.72-1.21-2.54-1.86c0.03,0.11,0.07,0.22,0.11,0.33v0c0.7,0.55,1.42,1.08,2.16,1.58
			c-0.45,0.08-0.89,0.17-1.34,0.25c0.03,0.06,0.06,0.11,0.1,0.17c0.49-0.09,0.97-0.18,1.46-0.27c0.38,0.25,0.76,0.5,1.15,0.73
			c1.22,0.74,2.49,1.4,3.81,2c-0.05,0.01-0.1,0.02-0.15,0.04c-1.07,0.25-2.15,0.48-3.23,0.7c0.07,0.05,0.14,0.1,0.22,0.14
			c0.76-0.16,1.52-0.32,2.28-0.49c0.38-0.09,0.77-0.18,1.15-0.27c0.77,0.34,1.55,0.65,2.34,0.95c0.75,0.28,1.51,0.54,2.28,0.78
			c-1.05,0.32-2.12,0.61-3.19,0.88c0.15,0.03,0.29,0.05,0.44,0.08c0,0,0,0,0,0c1.02-0.26,2.04-0.54,3.04-0.85V51.46z M9.72,35.78
			c-0.51-0.35-1.01-0.72-1.5-1.1c0.4-0.08,0.81-0.16,1.21-0.24c1.15-0.23,2.3-0.48,3.44-0.75c0.72,0.4,1.45,0.78,2.21,1.14
			c1.18,0.56,2.41,1.07,3.65,1.52c-0.68,0.24-1.37,0.47-2.06,0.68c-1.12,0.34-2.25,0.65-3.38,0.94h0
			C12.05,37.31,10.85,36.57,9.72,35.78z M12.81,41.84c-1.52-0.77-2.96-1.65-4.32-2.62c0.36-0.07,0.72-0.14,1.08-0.22
			c1.24-0.26,2.47-0.53,3.69-0.83h0c0.31,0.17,0.62,0.33,0.93,0.48c1.46,0.73,2.98,1.37,4.54,1.93c-0.39,0.13-0.78,0.26-1.17,0.39
			c-1.37,0.44-2.76,0.82-4.16,1.16h0C13.2,42.04,13.01,41.94,12.81,41.84z M11.88,45.19c-1.03-0.58-2.02-1.21-2.97-1.88
			c0.51-0.1,1.01-0.2,1.52-0.31c0.99-0.21,1.97-0.43,2.94-0.67c1.53,0.74,3.12,1.38,4.75,1.93c0.19,0.07,0.39,0.13,0.58,0.19
			c-1.78,0.56-3.6,1.03-5.43,1.44c-0.02,0-0.03,0.01-0.05,0.01C12.77,45.67,12.32,45.43,11.88,45.19z M10.83,47.99
			c-0.59-0.34-1.17-0.69-1.73-1.06c1.16-0.22,2.32-0.45,3.48-0.7c0.2-0.04,0.41-0.09,0.61-0.13c1.36,0.68,2.77,1.28,4.21,1.81
			c0.43,0.16,0.87,0.31,1.3,0.46c-1.51,0.49-3.05,0.91-4.61,1.28C12.98,49.14,11.89,48.59,10.83,47.99z"/>
	</g>
	<g>
		<g>
			<path class="st0" d="M23.63,24.2v-3.71c0-2.6-1.16-3.6-1.16-5.74c0-1.65,1.55-2.26,4.03-2.26h7.17c3.57,0,6.51,2.68,6.51,5.93
				s-2.95,5.93-6.51,5.93h-4.34c0.08,2.49,1.2,3.48,1.2,5.55c0,1.68-1.55,2.26-4.03,2.26s-4.03-0.57-4.03-2.26
				C22.47,27.8,23.63,26.8,23.63,24.2z M29.33,21.41c0,0.84,0.97,1.22,2.02,0.92c1.82-0.54,3.1-2.14,3.1-3.9
				c0-1.84-1.24-3.37-3.1-3.9c-1.05-0.31-2.02,0.08-2.02,0.92V21.41z"/>
		</g>
	</g>
	<g>
		<g>
			<path class="st0" d="M41.07,24.2v-3.71c0-2.6-1.16-3.6-1.16-5.7c0-1.68,1.55-2.3,4.03-2.3s4.03,0.61,4.03,2.3
				c0,2.1-1.2,3.1-1.2,5.7v3.71c0,2.6,1.2,3.6,1.2,5.7c0,1.68-1.55,2.26-4.03,2.26s-4.03-0.57-4.03-2.26
				C39.91,27.8,41.07,26.8,41.07,24.2z"/>
		</g>
	</g>
	<g>
		<g>
			<path class="st0" d="M51.23,24.58V19.8c0-2.6-1.2-3.41-1.2-5.32c0-1.42,1.01-1.99,2.48-1.99h1.16c3.26,0,7.4,6.12,10.08,9.83
				c0.66,0.96,2.56,3.29,2.48,3.18c0.04-0.19,0.04-0.38,0.04-0.61v-4.78c0-2.6-2.33-3.71-2.33-5.62c0-1.42,1.24-1.99,3.29-1.99
				c1.78,0,3.29,0.57,3.29,1.99c0,1.91-2.33,3.02-2.33,5.62v4.78c0,2.6,1.2,3.41,1.2,5.32c0,1.42-1.01,1.95-2.48,1.95h-1.16
				c-3.26,0-7.4-6.08-10.04-9.83c-0.62-0.8-2.52-3.14-2.52-3.18c-0.04,0.23-0.04,0.42-0.04,0.65v4.78c0,2.56,2.33,3.71,2.33,5.62
				c0,1.42-1.24,1.95-3.29,1.95c-1.78,0-3.29-0.54-3.29-1.95C48.9,28.29,51.23,27.15,51.23,24.58z"/>
		</g>
	</g>
	<g>
		<g>
			<path class="st0" d="M70.12,29.79c0.54-1.72,2.95-2.72,3.72-4.9l1.94-5.17c0.74-2.03,0.16-3.33,0.93-5.2
				c0.58-1.45,1.94-2.03,3.57-2.03c3.72,0,4.88,5.39,5.81,8l1.32,3.71c0.93,2.6,2.48,3.6,3.26,5.7c0.58,1.68-1.01,2.26-3.49,2.26
				s-4.26-0.57-4.85-2.26c-0.47-1.3-0.35-2.18-0.39-3.25h-6.47c-0.16,1.34,2.09,2.22,1.82,3.71c-0.19,1.15-1.67,1.8-4.07,1.8
				C71.47,32.16,69.54,31.47,70.12,29.79z M75.97,24.74h5.66l-1.51-4.25c-0.93-2.91-1.82-1.99-2.36-0.69L75.97,24.74z"/>
		</g>
	</g>
	<g>
		<g>
			<path class="st0" d="M23.94,46.17v-3.23c0-2.26-1.01-3.13-1.01-4.96c0-1.46,1.31-1.96,3.44-2h3.54c2.16,0,3.2-0.1,3.88-0.23
				c4.99-1.03,5.12,4.86,2.73,4.86c-2.22,0-3.1-2.93-5.33-2.93c-1.31,0-2.29,0.53-2.29,1.93v3.79h0.91c1.62,0,2.53-1.43,4.08-1.43
				c1.31,0,1.38,0.93,1.38,2.26c0,1.33-0.07,2.3-1.38,2.3c-1.55,0-2.46-1.46-4.08-1.46h-0.91v1.1c0,2.26,1.04,3.13,1.04,4.96
				c0,1.46-1.35,1.96-3.51,1.96s-3.51-0.5-3.51-1.96C22.92,49.29,23.94,48.43,23.94,46.17z"/>
		</g>
	</g>
	<g>
		<g>
			<path class="st0" d="M39.71,42.94c0-2.26-1.01-3.13-1.01-4.96c0-1.46,1.31-1.96,3.44-2h3.54c2.16,0,3.2-0.1,3.88-0.23
				c4.99-1.03,5.12,4.86,2.73,4.86c-2.22,0-3.1-2.93-5.33-2.93c-1.31,0-2.29,0.53-2.29,1.93v3.79h1.15c1.62,0,2.53-1.43,4.08-1.43
				c1.31,0,1.42,0.93,1.42,2.26c0,1.33-0.1,2.3-1.42,2.3c-1.55,0-2.46-1.46-4.08-1.46h-1.15v4.43c0,1.4,0.98,1.93,2.29,1.93
				c2.22,0,3.1-2.93,5.33-2.93c2.39,0,2.26,5.89-2.73,4.86c-0.67-0.13-1.72-0.27-3.88-0.27h-3.54c-2.12,0-3.44-0.53-3.44-1.96
				c0-1.83,1.01-2.7,1.01-4.96V42.94z"/>
		</g>
	</g>
	<g>
		<g>
			<path class="st0" d="M55.65,43.97c-3.2-3.23,0.71-8.12,6.94-7.99c3.54,0.1,3.81,1,5.53,1.23c2.83,0.37,1.99,5.06-0.13,4.99
				c-2.46-0.03-2.7-4.46-6.07-4.53c-0.57-0.03-0.94,0.33-0.98,1.06c-0.17,2.79,4.65,3.73,7.15,5.79c0.24,0.2,0.47,0.37,0.64,0.57
				c3.2,3.26-0.67,8.15-6.94,7.99c-3.51-0.07-3.81-0.93-5.53-1.2c-2.7-0.4-1.96-5.06,0.13-5.02c2.49,0.07,2.7,4.49,6.07,4.56
				c0.57,0,0.94-0.33,1.01-1.06c0.13-2.79-4.65-3.76-7.18-5.79L55.65,43.97z"/>
		</g>
	</g>
	<g>
		<g>
			<path class="st0" d="M75,36.07c0.47,0.1,1.99,0.23,3.74,0.23h4.08c1.72,0,3.24-0.13,3.71-0.23c5.02-1.03,5.12,5.36,2.73,5.36
				c-2.22,0-3.71-3.43-5.6-3.43h-0.44c0,0.13,0.03,0.27,0.03,0.43v8.05c0,2.26,1.01,3.13,1.01,4.96c0,1.46-1.35,1.96-3.51,1.96
				c-2.16,0-3.51-0.5-3.51-1.96c0-1.83,1.05-2.7,1.05-4.96v-8.05c0-0.17,0-0.3,0.03-0.43H77.9c-1.92,0-3.4,3.43-5.63,3.43
				C69.88,41.43,69.98,35.04,75,36.07z"/>
		</g>
	</g>
	<g>
		<path class="st0" d="M51.18,9.76c0.33-0.69,0.91-0.79,1.46-1.04c0.55-0.22,1.15-0.39,1.78-0.42c2.35-0.01,4.25,2.45,6.67,1.76
			c0.54-0.12,1.01-0.37,1.51-0.61c0.53-0.2,0.88-0.71,1.74-0.36c-0.12,0.92-0.83,0.97-1.36,1.24c-3.59,1.51-6.61-3.13-10.05-0.92
			C52.4,9.59,51.9,10.02,51.18,9.76L51.18,9.76z"/>
	</g>
</g>
</svg>
